<?xml version="1.0" encoding="UTF-8"?>
<svg width="48px" height="48px" viewBox="0 0 48 48" version="1.1" xmlns="http://www.w3.org/2000/svg" xmlns:xlink="http://www.w3.org/1999/xlink">
    <!-- Generator: Sketch 53 (72520) - https://sketchapp.com -->
    <title>Group 11</title>
    <desc>Created with Sketch.</desc>
    <g id="Web" stroke="none" stroke-width="1" fill="none" fill-rule="evenodd">
        <g id="41_Settings_D" transform="translate(-1188.000000, -509.000000)">
            <g id="Group-11" transform="translate(1188.000000, 509.000000)">
                <rect id="Rectangle" fill="#FFFFFF" x="0" y="0" width="48" height="48" rx="24"></rect>
                <path d="M34.6975318,22.3255235 L25.6743789,22.3255235 L25.6743789,13.3023218 C25.6743789,12.891278 25.1162201,12 23.9999512,12 C22.8836823,12 22.3255235,12.8913268 22.3255235,13.3023218 L22.3255235,22.3255723 L13.3023218,22.3255723 C12.8913268,22.3255235 12,22.8836823 12,23.9999024 C12,25.1161225 12.8913268,25.6743301 13.3023218,25.6743301 L22.3255723,25.6743301 L22.3255723,34.6975806 C22.3255723,35.1085268 22.8836823,35.9999024 24,35.9999024 C25.1163177,35.9999024 25.6744277,35.1085268 25.6744277,34.6975806 L25.6744277,25.6743301 L34.6976782,25.6743301 C35.1086244,25.6743301 36,25.1162201 36,23.9999024 C36,22.8835848 35.1085268,22.3255235 34.6975318,22.3255235 Z" id="Path" fill="#E7F0EC" fill-rule="nonzero"></path>
            </g>
        </g>
    </g>
</svg>