<?xml version="1.0" encoding="UTF-8"?>
<svg width="20px" height="20px" viewBox="0 0 20 20" version="1.1" xmlns="http://www.w3.org/2000/svg" xmlns:xlink="http://www.w3.org/1999/xlink">
    <!-- Generator: Sketch 53 (72520) - https://sketchapp.com -->
    <title>address</title>
    <desc>Created with Sketch.</desc>
    <g id="Web" stroke="none" stroke-width="1" fill="none" fill-rule="evenodd">
        <g id="27_Checkout_D" transform="translate(-544.000000, -975.000000)" fill="#7A8680" fill-rule="nonzero">
            <g id="Group-36" transform="translate(280.000000, 816.000000)">
                <g id="Group-39" transform="translate(240.000000, 148.000000)">
                    <g id="address" transform="translate(24.000000, 11.000000)">
                        <path d="M8.00391389,17.9493334 L8.00391389,19.9789017 L7.51314826,19.582467 C7.43731656,19.5211595 5.63310297,18.056354 3.80351029,15.9558464 C1.27965996,13.0581886 0,10.4571306 0,8.22514067 L0,8.00391389 C0,3.59053937 3.59053937,0 8.00391389,0 C12.4172884,0 16.0078278,3.59053937 16.0078278,8.00391389 L16.0078278,8.22514067 C16.0078278,8.41257949 15.9978902,8.60292321 15.9798495,8.79556016 L14.4145976,7.36760031 C14.0939946,4.11295256 11.3414261,1.56173558 8.00391389,1.56173558 C4.45174904,1.56173558 1.56173558,4.45174904 1.56173558,8.00391389 L1.56173558,8.22514067 C1.56173558,11.9968505 6.42138575,16.5628058 8.00391389,17.9493334 Z M12.8062317,16.8276052 L15.1487586,16.8276052 L15.1487586,14.4850783 L12.8062317,14.4850783 L12.8062317,16.8276052 Z M8.00391389,4.68520669 C9.83381237,4.68520669 11.3226211,6.17401542 11.3226211,8.00391389 C11.3226211,9.83381237 9.83381237,11.3226211 8.00391389,11.3226211 C6.17401542,11.3226211 4.68520669,9.83381237 4.68520669,8.00391389 C4.68520669,6.17401542 6.17401542,4.68520669 8.00391389,4.68520669 Z M8.00391389,6.24694227 C7.03507217,6.24694227 6.24694227,7.03507217 6.24694227,8.00391389 C6.24694227,8.97260274 7.03507217,9.76088552 8.00391389,9.76088552 C8.97260274,9.76088552 9.76088552,8.97260274 9.76088552,8.00391389 C9.76088552,7.03507217 8.97260274,6.24694227 8.00391389,6.24694227 Z M18.9866683,15.76642 L18.5475783,15.3658574 L18.5475783,17.8730431 C18.5475783,19.0404843 17.5976945,19.9902153 16.4302532,19.9902153 L11.485751,19.9902153 C10.3183097,19.9902153 9.36842587,19.0404843 9.36842587,17.8730431 L9.36842587,15.3658574 L8.92933585,15.76642 L7.87686521,14.6127385 L13.9579256,9.06494618 L20.0391389,14.6127385 L18.9866683,15.76642 Z M16.9858427,13.9411081 L13.9579256,11.1789078 L10.9301614,13.9411081 L10.9301614,17.8728902 C10.9301614,18.1792747 11.1793664,18.4284797 11.485751,18.4284797 L16.4302532,18.4284797 C16.7366377,18.4284797 16.9858427,18.1792747 16.9858427,17.8728902 L16.9858427,13.9411081 Z" id="Shape"></path>
                    </g>
                </g>
            </g>
        </g>
    </g>
</svg>