<?xml version="1.0" encoding="UTF-8"?>
<svg width="24px" height="24px" viewBox="0 0 24 24" version="1.1" xmlns="http://www.w3.org/2000/svg" xmlns:xlink="http://www.w3.org/1999/xlink">
    <!-- Generator: Sketch 53 (72520) - https://sketchapp.com -->
    <title>calendar</title>
    <desc>Created with Sketch.</desc>
    <g id="Web" stroke="none" stroke-width="1" fill="none" fill-rule="evenodd">
        <g id="31_OrderDetail_D" transform="translate(-996.000000, -407.000000)" fill="#7A8680" fill-rule="nonzero">
            <g id="calendar" transform="translate(996.000000, 407.000000)">
                <path d="M22.0005,2.25 L18.75,2.25 L18.75,0.75 C18.75,0.33525 18.41475,0 18,0 C17.58525,0 17.25,0.33525 17.25,0.75 L17.25,2.25 L12.75,2.25 L12.75,0.75 C12.75,0.33525 12.414,0 12,0 C11.586,0 11.25,0.33525 11.25,0.75 L11.25,2.25 L6.75,2.25 L6.75,0.75 C6.75,0.33525 6.414,0 6,0 C5.586,0 5.25,0.33525 5.25,0.75 L5.25,2.25 L2.00025,2.25 C0.8955,2.25 0,3.14475 0,4.2495 L0,21.99975 C0,23.1045 0.8955,24 2.00025,24 L22.0005,24 C23.10525,24 24,23.1045 24,21.99975 L24,4.2495 C24,3.14475 23.10525,2.25 22.0005,2.25 Z M22.5,21.99975 C22.5,22.27575 22.27575,22.5 22.0005,22.5 L2.00025,22.5 C1.72425,22.5 1.5,22.27575 1.5,21.99975 L1.5,4.2495 C1.5,3.97425 1.72425,3.75 2.00025,3.75 L5.25,3.75 L5.25,5.25 C5.25,5.66475 5.586,6 6,6 C6.414,6 6.75,5.66475 6.75,5.25 L6.75,3.75 L11.25,3.75 L11.25,5.25 C11.25,5.66475 11.586,6 12,6 C12.414,6 12.75,5.66475 12.75,5.25 L12.75,3.75 L17.25,3.75 L17.25,5.25 C17.25,5.66475 17.58525,6 18,6 C18.41475,6 18.75,5.66475 18.75,5.25 L18.75,3.75 L22.0005,3.75 C22.27575,3.75 22.5,3.97425 22.5,4.2495 L22.5,21.99975 Z" id="Shape"></path>
                <rect id="Rectangle" x="5.25" y="9" width="3" height="2.25"></rect>
                <rect id="Rectangle" x="5.25" y="12.75" width="3" height="2.25"></rect>
                <rect id="Rectangle" x="5.25" y="16.5" width="3" height="2.25"></rect>
                <rect id="Rectangle" x="10.5" y="16.5" width="3" height="2.25"></rect>
                <rect id="Rectangle" x="10.5" y="12.75" width="3" height="2.25"></rect>
                <rect id="Rectangle" x="10.5" y="9" width="3" height="2.25"></rect>
                <rect id="Rectangle" x="15.75" y="16.5" width="3" height="2.25"></rect>
                <rect id="Rectangle" x="15.75" y="12.75" width="3" height="2.25"></rect>
                <rect id="Rectangle" x="15.75" y="9" width="3" height="2.25"></rect>
            </g>
        </g>
    </g>
</svg>