<?xml version="1.0" encoding="utf-8"?>
<!-- Generator: Adobe Illustrator 16.0.0, SVG Export Plug-In . SVG Version: 6.00 Build 0)  -->
<!DOCTYPE svg PUBLIC "-//W3C//DTD SVG 1.1//EN" "http://www.w3.org/Graphics/SVG/1.1/DTD/svg11.dtd">
<svg version="1.1" id="Layer_1" xmlns="http://www.w3.org/2000/svg" xmlns:xlink="http://www.w3.org/1999/xlink" x="0px" y="0px"
	 width="31px" height="28px" viewBox="0 0 31 28" enable-background="new 0 0 31 28" xml:space="preserve">
<title>Group 2</title>
<desc>Created with Sketch.</desc>
<g id="Web">
	<g id="_x30_1_x5F_Main_x5F_D" transform="translate(-1134.000000, -33.000000)">
		<g id="Group-2" transform="translate(1134.000000, 33.000000)">
			<path id="Shape" fill="#7A8680" d="M12.917,22.814c-1.424,0-2.583,1.164-2.583,2.593c0,1.43,1.159,2.593,2.583,2.593
				c1.425,0,2.583-1.163,2.583-2.593C15.5,23.979,14.341,22.814,12.917,22.814z M12.917,26.553c-0.629,0-1.141-0.514-1.141-1.146
				s0.512-1.146,1.141-1.146c0.629,0,1.141,0.514,1.141,1.146S13.546,26.553,12.917,26.553z"/>
			<path id="Shape_1_" fill="#7A8680" d="M22.217,22.814c-1.425,0-2.584,1.164-2.584,2.593c0,1.43,1.159,2.593,2.584,2.593
				c1.424,0,2.583-1.163,2.583-2.593C24.8,23.979,23.641,22.814,22.217,22.814z M22.217,26.553c-0.629,0-1.141-0.514-1.141-1.146
				s0.512-1.146,1.141-1.146s1.141,0.514,1.141,1.146S22.846,26.553,22.217,26.553z"/>
			<path id="Path" fill="#7A8680" d="M23.008,9.333H12.126c-0.419,0-0.759,0.232-0.759,0.519c0,0.286,0.34,0.518,0.759,0.518h10.882
				c0.419,0,0.759-0.232,0.759-0.518C23.767,9.565,23.427,9.333,23.008,9.333z"/>
			<path id="Path_1_" fill="#7A8680" d="M22.997,12.444h-9.828c-0.425,0-0.77,0.232-0.77,0.519c0,0.287,0.345,0.519,0.77,0.519
				h9.828c0.425,0,0.77-0.232,0.77-0.519C23.767,12.677,23.422,12.444,22.997,12.444z"/>
			<path id="Shape_2_" fill="#7A8680" d="M30.657,5.432c-0.29-0.353-0.72-0.555-1.18-0.555H5.769l-0.479-2.3
				c-0.1-0.48-0.431-0.883-0.885-1.078L1.064,0.063C0.679-0.104,0.23,0.072,0.063,0.454s0.01,0.826,0.395,0.991L3.799,2.88
				l3.683,17.695c0.145,0.696,0.772,1.202,1.491,1.202h18.234c0.421,0,0.762-0.337,0.762-0.753s-0.341-0.753-0.762-0.753H8.973
				l-0.448-2.152h18.824c0.719,0,1.346-0.506,1.491-1.203l2.129-10.229C31.061,6.242,30.947,5.784,30.657,5.432z M27.349,16.611
				H8.211L6.083,6.383h23.395L27.349,16.611z"/>
		</g>
	</g>
</g>
</svg>
