<?xml version="1.0" encoding="utf-8"?>
<!-- Generator: Adobe Illustrator 16.0.0, SVG Export Plug-In . SVG Version: 6.00 Build 0)  -->
<!DOCTYPE svg PUBLIC "-//W3C//DTD SVG 1.1//EN" "http://www.w3.org/Graphics/SVG/1.1/DTD/svg11.dtd">
<svg version="1.1" id="Layer_1" xmlns="http://www.w3.org/2000/svg" xmlns:xlink="http://www.w3.org/1999/xlink" x="0px" y="0px"
	 width="25px" height="24px" viewBox="0 0 25 24" enable-background="new 0 0 25 24" xml:space="preserve">
<title>edit</title>
<desc>Created with Sketch.</desc>
<g id="Web">
	<g id="_x32_9_x5F_Products_x5F_D" transform="translate(-601.000000, -594.000000)">
		<g id="Group-3" transform="translate(420.000000, 279.000000)">
			<g id="Group-5-Copy">
				<g id="Group-11" transform="translate(74.000000, 315.000000)">
					<g id="edit" transform="translate(107.000000, 0.000000)">
						<path id="Path" fill="#DE6362" d="M22.235,15.059c-0.331,0-0.601,0.269-0.601,0.6v5.328c0,0.993-0.806,1.799-1.799,1.799H3
							c-0.994,0-1.799-0.806-1.8-1.799V5.351C1.201,4.357,2.006,3.552,3,3.55h5.327c0.332,0,0.6-0.269,0.6-0.6
							c0-0.331-0.269-0.6-0.6-0.6H3c-1.656,0.001-2.998,1.344-3,3v15.636c0.002,1.656,1.344,2.998,3,3h16.836
							c1.656-0.002,2.998-1.344,3-3v-5.328C22.836,15.327,22.566,15.059,22.235,15.059z"/>
						<path id="Shape" fill="#DE6362" d="M22.598,0.807c-1.055-1.055-2.764-1.055-3.818,0L8.075,11.511
							c-0.073,0.073-0.126,0.165-0.154,0.264l-1.408,5.083c-0.058,0.208,0.001,0.432,0.154,0.584
							c0.153,0.152,0.376,0.212,0.584,0.154l5.082-1.408c0.1-0.027,0.191-0.08,0.264-0.154L23.302,5.329
							c1.053-1.055,1.053-2.764,0-3.818L22.598,0.807z M9.382,11.901l8.76-8.761l2.826,2.826l-8.761,8.761L9.382,11.901z
							 M8.818,13.033l2.257,2.258l-3.123,0.865L8.818,13.033z M22.453,4.48l-0.637,0.636l-2.825-2.826l0.637-0.636
							c0.586-0.585,1.536-0.585,2.121,0l0.704,0.704C23.038,2.945,23.038,3.895,22.453,4.48L22.453,4.48z"/>
					</g>
				</g>
			</g>
		</g>
	</g>
</g>
</svg>
