<?xml version="1.0" encoding="UTF-8"?>
<svg width="25px" height="24px" viewBox="0 0 25 24" version="1.1" xmlns="http://www.w3.org/2000/svg" xmlns:xlink="http://www.w3.org/1999/xlink">
    <!-- Generator: Sketch 53 (72520) - https://sketchapp.com -->
    <title>edit</title>
    <desc>Created with Sketch.</desc>
    <g id="Web" stroke="none" stroke-width="1" fill="none" fill-rule="evenodd">
        <g id="29_Products_D" transform="translate(-601.000000, -594.000000)" fill="#000000" fill-rule="nonzero">
            <g id="Group-3" transform="translate(420.000000, 279.000000)">
                <g id="Group-5-Copy">
                    <g id="Group-11" transform="translate(74.000000, 315.000000)">
                        <g id="edit" transform="translate(107.000000, 0.000000)">
                            <path d="M22.2353906,15.0583594 C21.9039844,15.0583594 21.6353906,15.3269531 21.6353906,15.6583594 L21.6353906,20.9857031 C21.6342187,21.9794531 20.8291406,22.7847656 19.8353906,22.7857031 L3,22.7857031 C2.00625,22.7847656 1.20117186,21.9794531 1.2,20.9857031 L1.2,5.3503125 C1.20117186,4.35679686 2.00625,3.55148436 3,3.5503125 L8.32734372,3.5503125 C8.65875,3.5503125 8.92734372,3.28171872 8.92734372,2.9503125 C8.92734372,2.61914064 8.65875,2.3503125 8.32734372,2.3503125 L3,2.3503125 C1.34390628,2.3521875 0.001875,3.69421872 0,5.3503125 L0,20.9859375 C0.001875,22.6420313 1.34390628,23.9840625 3,23.9859375 L19.8353906,23.9859375 C21.4914844,23.9840625 22.8335156,22.6420313 22.8353906,20.9859375 L22.8353906,15.6583594 C22.8353906,15.3269531 22.5667969,15.0583594 22.2353906,15.0583594 Z" id="Path"></path>
                            <path d="M22.5977344,0.80648436 C21.5432813,-0.24796872 19.83375,-0.24796872 18.7792969,0.80648436 L8.07492186,11.5108594 C8.0015625,11.5842187 7.94859372,11.6751563 7.9209375,11.775 L6.51328128,16.8569531 C6.45539064,17.0653125 6.51421872,17.2884375 6.66703128,17.4414844 C6.82007814,17.5942969 7.04320314,17.653125 7.2515625,17.5954687 L12.3335156,16.1875781 C12.4333594,16.1599219 12.5242969,16.1069531 12.5976563,16.0335937 L23.3017969,5.32898436 C24.3546094,4.27382814 24.3546094,2.56570314 23.3017969,1.51054686 L22.5977344,0.80648436 Z M9.38226564,11.9008594 L18.1429687,3.13992186 L20.9683594,5.9653125 L12.2074219,14.72625 L9.38226564,11.9008594 Z M8.81789064,13.0333594 L11.0751563,15.2908594 L7.9528125,16.1559375 L8.81789064,13.0333594 Z M22.4533594,4.48054686 L21.8170313,5.116875 L18.9914063,2.29125 L19.6279687,1.65492186 C20.2136719,1.06921872 21.1633594,1.06921872 21.7490625,1.65492186 L22.4533594,2.35898436 C23.038125,2.94539064 23.038125,3.894375 22.4533594,4.48054686 L22.4533594,4.48054686 Z" id="Shape"></path>
                        </g>
                    </g>
                </g>
            </g>
        </g>
    </g>
</svg>