<?xml version="1.0" encoding="UTF-8"?>
<svg width="160px" height="144px" viewBox="0 0 160 144" version="1.1" xmlns="http://www.w3.org/2000/svg" xmlns:xlink="http://www.w3.org/1999/xlink">
    <!-- Generator: Sketch 53 (72520) - https://sketchapp.com -->
    <title>packing</title>
    <desc>Created with Sketch.</desc>
    <g id="Mobile" stroke="none" stroke-width="1" fill="none" fill-rule="evenodd">
        <g id="19_Cart_Empty" transform="translate(-80.000000, -246.000000)" fill-rule="nonzero">
            <g id="packing" transform="translate(80.000000, 246.000000)">
                <polygon id="Path" fill="#E4ECE8" points="79.9996875 0.060625 12.398125 31.26125 79.9996875 62.461875 147.601562 31.26125"></polygon>
                <path d="M146.090937,112.560625 L80,143.064063 L80,62.461875 L147.601875,31.26125 L147.601875,110.199687 C147.601562,111.21375 147.011875,112.135313 146.090937,112.560625 Z" id="Path" fill="#D8E5DF"></path>
                <path d="M13.9084375,112.560625 L79.9996875,143.064063 L79.9996875,62.461875 L12.398125,31.26125 L12.398125,110.199375 C12.398125,111.21375 12.9878125,112.135313 13.9084375,112.560625 Z" id="Path" fill="#C3D5CD"></path>
                <path d="M147.601562,31.26125 L79.9996875,62.461875 L92.08125,98.7071875 C92.57125,100.177188 94.230625,100.895 95.6375,100.245937 L158.488437,71.2378125 C159.69125,70.6825 160.284375,69.3115625 159.865312,68.0546875 L147.601562,31.26125 Z" id="Path" fill="#E4ECE8"></path>
                <path d="M12.398125,31.26125 L80,62.461875 L67.918125,98.7071875 C67.428125,100.177188 65.76875,100.895 64.361875,100.245937 L1.5109375,71.2375 C0.308125,70.6821875 -0.285,69.31125 0.1340625,68.054375 L12.398125,31.26125 Z" id="Path" fill="#D8E5DF"></path>
                <polygon id="Path" fill="#C3D5CD" points="147.601562 31.26125 79.9996875 0.060625 79.9996875 62.461875"></polygon>
            </g>
        </g>
    </g>
</svg>