<?xml version="1.0" encoding="utf-8"?>
<!-- Generator: Adobe Illustrator 16.0.0, SVG Export Plug-In . SVG Version: 6.00 Build 0)  -->
<!DOCTYPE svg PUBLIC "-//W3C//DTD SVG 1.1//EN" "http://www.w3.org/Graphics/SVG/1.1/DTD/svg11.dtd">
<svg version="1.1" id="Layer_1" xmlns="http://www.w3.org/2000/svg" xmlns:xlink="http://www.w3.org/1999/xlink" x="0px" y="0px"
	 width="24px" height="24px" viewBox="0 0 24 24" enable-background="new 0 0 24 24" xml:space="preserve">
<title>facebook-logo</title>
<desc>Created with Sketch.</desc>
<g id="Web">
	<g id="_x30_1_x5F_Main_x5F_D" transform="translate(-455.000000, -1660.000000)">
		<g id="facebook-logo" transform="translate(455.000000, 1660.000000)">
			<path id="Facebook__x28_alt_x29_" fill="#475993" d="M24,4c0-2.102-1.897-4-4-4H4C1.897,0,0,1.898,0,4v16c0,2.102,1.897,4,4,4h8
				v-9.066H9.067v-4H12V9.375c0-2.688,2.018-5.108,4.5-5.108h3.233v4H16.5c-0.354,0-0.767,0.43-0.767,1.073v1.594h4v4h-4V24H20
				c2.103,0,4-1.898,4-4V4z"/>
		</g>
	</g>
</g>
</svg>
