<?xml version="1.0" encoding="UTF-8"?>
<svg width="20px" height="21px" viewBox="0 0 20 21" version="1.1" xmlns="http://www.w3.org/2000/svg" xmlns:xlink="http://www.w3.org/1999/xlink">
    <!-- Generator: Sketch 53 (72520) - https://sketchapp.com -->
    <title>filters</title>
    <desc>Created with Sketch.</desc>
    <g id="Mobile" stroke="none" stroke-width="1" fill="none" fill-rule="evenodd">
        <g id="33_Ready" transform="translate(-276.000000, -220.000000)" fill="#7A8680" fill-rule="nonzero">
            <g id="filters" transform="translate(276.000000, 220.000000)">
                <path d="M10.6047009,10.0042735 L10.6047009,0.576923077 C10.6047009,0.256410256 10.3482906,0 10.0277778,0 C9.70726496,0 9.4508547,0.256410256 9.4508547,0.576923077 L9.4508547,10.0042735 C8.11324786,10.2735043 7.10042735,11.457265 7.10042735,12.8760684 C7.10042735,14.2948718 8.11324786,15.4786325 9.4508547,15.7478632 L9.4508547,19.9444444 C9.4508547,20.2649573 9.70726496,20.5213675 10.0277778,20.5213675 C10.3482906,20.5213675 10.6047009,20.2649573 10.6047009,19.9444444 L10.6047009,15.7478632 C11.9423077,15.4786325 12.9551282,14.2948718 12.9551282,12.8760684 C12.9551282,11.4615385 11.9465812,10.2735043 10.6047009,10.0042735 Z M10.0277778,14.6495726 C9.0491453,14.6495726 8.2542735,13.8547009 8.2542735,12.8760684 C8.2542735,11.8974359 9.0491453,11.1025641 10.0277778,11.1025641 C11.0064103,11.1025641 11.8012821,11.8974359 11.8012821,12.8760684 C11.8012821,13.8547009 11.0064103,14.6495726 10.0277778,14.6495726 Z" id="Shape"></path>
                <path d="M3.54059829,5.16666667 L3.54059829,0.576923077 C3.54059829,0.256410256 3.28418803,0 2.96367521,0 C2.64316239,0 2.38675214,0.256410256 2.38675214,0.576923077 L2.38675214,5.16666667 C1.0491453,5.43589744 0.0363247863,6.61965812 0.0363247863,8.03846154 C0.0363247863,9.45726496 1.0491453,10.6410256 2.38675214,10.9102564 L2.38675214,19.9444444 C2.38675214,20.2649573 2.64316239,20.5213675 2.96367521,20.5213675 C3.28418803,20.5213675 3.54059829,20.2649573 3.54059829,19.9444444 L3.54059829,10.9059829 C4.87820513,10.6367521 5.89102564,9.45299145 5.89102564,8.03418803 C5.89102564,6.61538462 4.87820513,5.43589744 3.54059829,5.16666667 Z M2.96367521,9.81196581 C1.98504274,9.81196581 1.19017094,9.01709402 1.19017094,8.03846154 C1.19017094,7.05982906 1.98504274,6.26495726 2.96367521,6.26495726 C3.94230769,6.26495726 4.73717949,7.05982906 4.73717949,8.03846154 C4.73717949,9.01709402 3.93803419,9.81196581 2.96367521,9.81196581 Z" id="Shape"></path>
                <path d="M17.6260684,5.16666667 L17.6260684,0.576923077 C17.6260684,0.256410256 17.3696581,0 17.0491453,0 C16.7286325,0 16.4722222,0.256410256 16.4722222,0.576923077 L16.4722222,5.16666667 C15.1346154,5.43589744 14.1217949,6.61965812 14.1217949,8.03846154 C14.1217949,9.45726496 15.1346154,10.6410256 16.4722222,10.9102564 L16.4722222,19.9487179 C16.4722222,20.2692308 16.7286325,20.525641 17.0491453,20.525641 C17.3696581,20.525641 17.6260684,20.2692308 17.6260684,19.9487179 L17.6260684,10.9059829 C18.9636752,10.6367521 19.9764957,9.45299145 19.9764957,8.03418803 C19.9764957,6.61538462 18.9679487,5.43589744 17.6260684,5.16666667 Z M17.0491453,9.81196581 C16.0705128,9.81196581 15.275641,9.01709402 15.275641,8.03846154 C15.275641,7.05982906 16.0705128,6.26495726 17.0491453,6.26495726 C18.0277778,6.26495726 18.8226496,7.05982906 18.8226496,8.03846154 C18.8226496,9.01709402 18.0277778,9.81196581 17.0491453,9.81196581 Z" id="Shape"></path>
            </g>
        </g>
    </g>
</svg>