<?xml version="1.0" encoding="UTF-8"?>
<svg width="28px" height="28px" viewBox="0 0 28 28" version="1.1" xmlns="http://www.w3.org/2000/svg" xmlns:xlink="http://www.w3.org/1999/xlink">
    <!-- Generator: Sketch 53 (72520) - https://sketchapp.com -->
    <title>search</title>
    <desc>Created with Sketch.</desc>
    <g id="Web" stroke="none" stroke-width="1" fill="none" fill-rule="evenodd">
        <g id="07_Login_D" transform="translate(-623.000000, -636.000000)" fill-rule="nonzero">
            <g id="search" transform="translate(623.000000, 636.000000)">
                <path d="M6.20539062,16.92075 L5.23075,20.5592187 L1.66846094,20.6345781 C0.603859375,18.6599766 0,16.4007813 0,14 C0,11.6784609 0.56459375,9.48921094 1.565375,7.56153125 L1.56614062,7.56153125 L4.73757812,8.14296875 L6.12685937,11.295375 C5.83608594,12.1430859 5.67760156,13.0530859 5.67760156,14 C5.67771094,15.0276875 5.86386719,16.0123359 6.20539062,16.92075 Z" id="Path" fill="#FBBB00"></path>
                <path d="M27.7553828,11.384625 C27.9161641,12.2315156 28,13.1061328 28,14 C28,15.0023125 27.8946172,15.9800156 27.6938594,16.9231016 C27.0123437,20.1323281 25.2315547,22.934625 22.7646562,24.9177031 L22.7638906,24.9169375 L18.7692969,24.7131172 L18.2039375,21.1838594 C19.8408437,20.223875 21.1200937,18.7215547 21.7939531,16.9231016 L14.3077812,16.9231016 L14.3077812,11.384625 L21.9031641,11.384625 L27.7553828,11.384625 L27.7553828,11.384625 Z" id="Path" fill="#518EF8"></path>
                <path d="M22.7638359,24.9169375 L22.7646016,24.9177031 C20.3654062,26.8461484 17.3176719,28 14,28 C8.66846094,28 4.03309375,25.0200234 1.66846094,20.6346328 L6.20539062,16.9208047 C7.38767969,20.0761641 10.4315312,22.3223437 14,22.3223437 C15.5338203,22.3223437 16.9707891,21.9077031 18.2038281,21.1838594 L22.7638359,24.9169375 Z" id="Path" fill="#28B446"></path>
                <path d="M22.9361562,3.2230625 L18.4007578,6.936125 C17.124625,6.13845312 15.616125,5.67765625 14,5.67765625 C10.3507578,5.67765625 7.24997656,8.02686719 6.12691406,11.295375 L1.56614062,7.56153125 L1.565375,7.56153125 C3.89539063,3.06922656 8.58921875,0 14,0 C17.3969141,0 20.5115313,1.21001563 22.9361562,3.2230625 Z" id="Path" fill="#F14336"></path>
            </g>
        </g>
    </g>
</svg>