<?xml version="1.0" encoding="UTF-8"?>
<svg width="20px" height="20px" viewBox="0 0 20 20" version="1.1" xmlns="http://www.w3.org/2000/svg" xmlns:xlink="http://www.w3.org/1999/xlink">
    <!-- Generator: Sketch 53 (72520) - https://sketchapp.com -->
    <title>information</title>
    <desc>Created with Sketch.</desc>
    <g id="Web" stroke="none" stroke-width="1" fill="none" fill-rule="evenodd">
        <g id="40_Calculate_D" transform="translate(-668.000000, -411.000000)" fill="#66C088" fill-rule="nonzero">
            <g id="information" transform="translate(668.000000, 411.000000)">
                <circle id="Oval" cx="10" cy="14.7851562" r="1"></circle>
                <path d="M10,0 C4.47328125,0 0,4.47253906 0,10 C0,15.5267188 4.47253906,20 10,20 C15.5267188,20 20,15.5274609 20,10 C20,4.47328125 15.5274609,0 10,0 Z M10,18.4375 C5.33683594,18.4375 1.5625,14.6637891 1.5625,10 C1.5625,5.33683594 5.33621094,1.5625 10,1.5625 C14.6631641,1.5625 18.4375,5.33621094 18.4375,10 C18.4375,14.6631641 14.6637891,18.4375 10,18.4375 Z" id="Shape"></path>
                <path d="M10,5.01953125 C8.276875,5.01953125 6.875,6.42140625 6.875,8.14453125 C6.875,8.57601563 7.22476562,8.92578125 7.65625,8.92578125 C8.08773438,8.92578125 8.4375,8.57601563 8.4375,8.14453125 C8.4375,7.28296875 9.1384375,6.58203125 10,6.58203125 C10.8615625,6.58203125 11.5625,7.28296875 11.5625,8.14453125 C11.5625,9.00609375 10.8615625,9.70703125 10,9.70703125 C9.56851562,9.70703125 9.21875,10.0567969 9.21875,10.4882812 L9.21875,12.4414062 C9.21875,12.8728906 9.56851562,13.2226562 10,13.2226562 C10.4314844,13.2226562 10.78125,12.8728906 10.78125,12.4414062 L10.78125,11.1706641 C12.1275781,10.8228906 13.125,9.59800781 13.125,8.14453125 C13.125,6.42140625 11.723125,5.01953125 10,5.01953125 Z" id="Path"></path>
            </g>
        </g>
    </g>
</svg>