<?xml version="1.0" encoding="utf-8"?>
<!-- Generator: Adobe Illustrator 16.0.0, SVG Export Plug-In . SVG Version: 6.00 Build 0)  -->
<!DOCTYPE svg PUBLIC "-//W3C//DTD SVG 1.1//EN" "http://www.w3.org/Graphics/SVG/1.1/DTD/svg11.dtd">
<svg version="1.1" id="Layer_1" xmlns="http://www.w3.org/2000/svg" xmlns:xlink="http://www.w3.org/1999/xlink" x="0px" y="0px"
	 width="20px" height="20px" viewBox="0 0 20 20" enable-background="new 0 0 20 20" xml:space="preserve">
<title>information</title>
<desc>Created with Sketch.</desc>
<g id="Web">
	<g id="_x34_0_x5F_Calculate_x5F_D" transform="translate(-1248.000000, -411.000000)">
		<g id="information" transform="translate(1248.000000, 411.000000)">
			<circle id="Oval" fill="#DE6362" cx="10" cy="14.785" r="1"/>
			<path id="Shape" fill="#DE6362" d="M10,0C4.473,0,0,4.473,0,10s4.473,10,10,10s10-4.473,10-10C20,4.473,15.527,0,10,0z
				 M10,18.438c-4.663,0-8.438-3.773-8.438-8.438c0-4.663,3.774-8.438,8.438-8.438c4.663,0,8.438,3.773,8.438,8.438
				C18.438,14.663,14.664,18.438,10,18.438z"/>
			<path id="Path" fill="#DE6362" d="M10,5.02c-1.723,0-3.125,1.402-3.125,3.125c0,0.432,0.35,0.781,0.781,0.781
				s0.781-0.35,0.781-0.781c0-0.861,0.701-1.563,1.563-1.563s1.563,0.701,1.563,1.563S10.861,9.707,10,9.707
				c-0.432,0-0.781,0.35-0.781,0.781v1.953c0,0.432,0.35,0.781,0.781,0.781s0.781-0.35,0.781-0.781v-1.271
				c1.346-0.349,2.344-1.573,2.344-3.026C13.125,6.421,11.723,5.02,10,5.02z"/>
		</g>
	</g>
</g>
</svg>
