<?xml version="1.0" encoding="UTF-8"?>
<svg width="28px" height="28px" viewBox="0 0 28 28" version="1.1" xmlns="http://www.w3.org/2000/svg" xmlns:xlink="http://www.w3.org/1999/xlink">
    <!-- Generator: Sketch 53 (72520) - https://sketchapp.com -->
    <title>Group 7</title>
    <desc>Created with Sketch.</desc>
    <g id="Mobile" stroke="none" stroke-width="1" fill="none" fill-rule="evenodd">
        <g id="17_Account_Chat" transform="translate(-265.000000, -227.000000)" fill="#7A8680" fill-rule="nonzero">
            <g id="Group-7" transform="translate(265.000000, 227.000487)">
                <path d="M27.0721248,13.0994152 L16.0103253,13.0994152 C15.5282651,13.0994152 15.1370309,12.7081811 15.1370309,12.2261208 C15.1370309,11.7440607 15.5282651,11.3528265 16.0103253,11.3528265 L27.0721248,11.3528265 C27.5541849,11.3528265 27.9454191,11.7440607 27.9454191,12.2261208 C27.9454191,12.7081811 27.5541849,13.0994152 27.0721248,13.0994152 Z" id="Path"></path>
                <path d="M22.705653,17.4658869 C22.4819993,17.4658869 22.2585587,17.3808175 22.0884198,17.2098258 C21.7472892,16.868482 21.7472892,16.315424 22.0884198,15.9742934 L25.8378716,12.2250548 L22.0884198,8.47560308 C21.7472892,8.13447248 21.7472892,7.58141446 22.0884198,7.24028386 C22.4297636,6.89894006 22.9828216,6.89894006 23.3239522,7.24028386 L27.690424,11.6067556 C28.0315546,11.9478862 28.0315546,12.5009442 27.690424,12.8420748 L23.3239522,17.2085466 C23.1527473,17.3808175 22.9293068,17.4658869 22.705653,17.4658869 L22.705653,17.4658869 Z" id="Path"></path>
                <path d="M9.31521078,27.9454191 C9.06597219,27.9454191 8.82952606,27.9104532 8.59329312,27.8371102 L1.58583092,25.5024976 C0.632370885,25.1694688 -2.13162821e-13,24.2810368 -2.13162821e-13,23.2879203 L-2.13162821e-13,2.32885598 C-2.13162821e-13,1.04449926 1.04449928,1.42108547e-14 2.32885601,1.42108547e-14 C2.57788135,1.42108547e-14 2.81432749,0.0349659142 3.05077362,0.108308994 L10.0580227,2.44292154 C11.0116959,2.77595032 11.6438535,3.6643823 11.6438535,4.6574988 L11.6438535,25.6165631 C11.6438535,26.9009198 10.5995675,27.9454191 9.31521078,27.9454191 Z M2.32885601,1.74658867 C2.00861963,1.74658867 1.74658869,2.00861965 1.74658869,2.32885598 L1.74658869,23.2879203 C1.74658869,23.5358796 1.91310306,23.766356 2.15061527,23.8490802 L9.12524366,26.1732456 C9.17534724,26.1894493 9.24058844,26.1988304 9.31521078,26.1988304 C9.63544711,26.1988304 9.89726485,25.9367995 9.89726485,25.6165631 L9.89726485,4.6574988 C9.89726485,4.40953947 9.73075049,4.17906312 9.49323833,4.09633895 L2.51860988,1.77217346 C2.46850631,1.75596981 2.40326511,1.74658867 2.32885601,1.74658867 Z" id="Shape"></path>
                <path d="M17.756914,9.31521076 C17.2748538,9.31521076 16.8836196,8.92397658 16.8836196,8.44191641 L16.8836196,3.20215033 C16.8836196,2.39985377 16.2305678,1.74658867 15.4282712,1.74658867 L2.32885601,1.74658867 C1.84679584,1.74658867 1.45556166,1.35535455 1.45556166,0.87329432 C1.45556166,0.391234148 1.84679584,1.77635684e-14 2.32885601,1.77635684e-14 L15.4282712,1.77635684e-14 C17.1946881,1.77635684e-14 18.6302083,1.43573343 18.6302083,3.20215033 L18.6302083,8.44191641 C18.6302083,8.92397658 18.2389741,9.31521076 17.756914,9.31521076 Z" id="Path"></path>
                <path d="M15.4282712,24.4522417 L10.7705592,24.4522417 C10.288499,24.4522417 9.89726485,24.0610076 9.89726485,23.5789473 C9.89726485,23.0968872 10.288499,22.705653 10.7705592,22.705653 L15.4282712,22.705653 C16.2305678,22.705653 16.8836196,22.0523879 16.8836196,21.2500914 L16.8836196,16.0103253 C16.8836196,15.5282651 17.2748538,15.137031 17.756914,15.137031 C18.2389741,15.137031 18.6302083,15.5282651 18.6302083,16.0103253 L18.6302083,21.2500914 C18.6302083,23.0165083 17.1946881,24.4522417 15.4282712,24.4522417 L15.4282712,24.4522417 Z" id="Path"></path>
            </g>
        </g>
    </g>
</svg>