<?xml version="1.0" encoding="utf-8"?>
<!-- Generator: Adobe Illustrator 16.0.0, SVG Export Plug-In . SVG Version: 6.00 Build 0)  -->
<!DOCTYPE svg PUBLIC "-//W3C//DTD SVG 1.1//EN" "http://www.w3.org/Graphics/SVG/1.1/DTD/svg11.dtd">
<svg version="1.1" id="Layer_1" xmlns="http://www.w3.org/2000/svg" xmlns:xlink="http://www.w3.org/1999/xlink" x="0px" y="0px"
	 width="28px" height="24px" viewBox="0 0 28 24" enable-background="new 0 0 28 24" xml:space="preserve">
<title>list</title>
<desc>Created with Sketch.</desc>
<g id="Web">
	<g id="_x32_9_x5F_Products_x5F_D" transform="translate(-494.000000, -594.000000)">
		<g id="Group-3" transform="translate(420.000000, 279.000000)">
			<g id="Group-5-Copy">
				<g id="Group-11" transform="translate(74.000000, 315.000000)">
					<g id="list" transform="translate(0.000000, 0.000000)">
						<path id="Shape" d="M2.928,5.875c1.617,0,2.928-1.316,2.928-2.928S4.544,0.014,2.928,0.014S0,1.331,0,2.941
							C0,4.553,1.317,5.875,2.928,5.875z M2.928,1.375c0.867,0,1.567,0.706,1.567,1.566c0,0.861-0.706,1.567-1.567,1.567
							c-0.861,0-1.566-0.706-1.566-1.567C1.361,2.081,2.067,1.375,2.928,1.375z"/>
						<path id="Shape_1_" d="M2.928,14.92c1.617,0,2.928-1.317,2.928-2.928c0-1.611-1.311-2.928-2.928-2.928S0,10.375,0,11.992
							S1.317,14.92,2.928,14.92z M2.928,10.425c0.867,0,1.567,0.706,1.567,1.567c0,0.861-0.706,1.567-1.567,1.567
							c-0.861,0-1.566-0.7-1.566-1.567S2.067,10.425,2.928,10.425z"/>
						<path id="Shape_2_" d="M2.928,23.969c1.617,0,2.928-1.316,2.928-2.928c0-1.616-1.316-2.928-2.928-2.928
							C1.317,18.113,0,19.431,0,21.041C0,22.652,1.317,23.969,2.928,23.969z M2.928,19.469c0.867,0,1.567,0.706,1.567,1.567
							c0,0.866-0.706,1.566-1.567,1.566c-0.861,0-1.566-0.705-1.566-1.566S2.067,19.469,2.928,19.469z"/>
						<path id="Path" d="M9.772,3.625h16.75c0.378,0,0.683-0.306,0.683-0.684c0-0.377-0.305-0.683-0.683-0.683H9.772
							c-0.378,0-0.684,0.306-0.684,0.683C9.089,3.319,9.395,3.625,9.772,3.625z"/>
						<path id="Path_1_" d="M9.772,12.675h16.75c0.378,0,0.683-0.305,0.683-0.683s-0.305-0.683-0.683-0.683H9.772
							c-0.378,0-0.684,0.305-0.684,0.683S9.395,12.675,9.772,12.675z"/>
						<path id="Path_2_" d="M9.772,21.719h16.75c0.378,0,0.683-0.305,0.683-0.683s-0.305-0.684-0.683-0.684H9.772
							c-0.378,0-0.684,0.306-0.684,0.684S9.395,21.719,9.772,21.719z"/>
					</g>
				</g>
			</g>
		</g>
	</g>
</g>
</svg>
