<?xml version="1.0" encoding="UTF-8"?>
<svg width="28px" height="24px" viewBox="0 0 28 24" version="1.1" xmlns="http://www.w3.org/2000/svg" xmlns:xlink="http://www.w3.org/1999/xlink">
    <!-- Generator: Sketch 53 (72520) - https://sketchapp.com -->
    <title>list</title>
    <desc>Created with Sketch.</desc>
    <g id="Web" stroke="none" stroke-width="1" fill="none" fill-rule="evenodd">
        <g id="29_Products_D" transform="translate(-494.000000, -594.000000)" fill="#DE6362" fill-rule="nonzero">
            <g id="Group-3" transform="translate(420.000000, 279.000000)">
                <g id="Group-5-Copy">
                    <g id="Group-11" transform="translate(74.000000, 315.000000)">
                        <g id="list" transform="translate(0.000000, 0.000000)">
                            <path d="M2.92777778,5.875 C4.54444444,5.875 5.85555556,4.55833333 5.85555556,2.94722222 C5.85555556,1.33611111 4.54444444,0.0138888889 2.92777778,0.0138888889 C1.31111111,0.0138888889 0,1.33055556 0,2.94166667 C0,4.55277778 1.31666667,5.875 2.92777778,5.875 Z M2.92777778,1.375 C3.79444444,1.375 4.49444444,2.08055556 4.49444444,2.94166667 C4.49444444,3.80277778 3.78888889,4.50833333 2.92777778,4.50833333 C2.06666667,4.50833333 1.36111111,3.80277778 1.36111111,2.94166667 C1.36111111,2.08055556 2.06666667,1.375 2.92777778,1.375 Z" id="Shape"></path>
                            <path d="M2.92777778,14.9194444 C4.54444444,14.9194444 5.85555556,13.6027778 5.85555556,11.9916667 C5.85555556,10.3805556 4.54444444,9.06388889 2.92777778,9.06388889 C1.31111111,9.06388889 0,10.375 0,11.9916667 C0,13.6083333 1.31666667,14.9194444 2.92777778,14.9194444 Z M2.92777778,10.425 C3.79444444,10.425 4.49444444,11.1305556 4.49444444,11.9916667 C4.49444444,12.8527778 3.78888889,13.5583333 2.92777778,13.5583333 C2.06666667,13.5583333 1.36111111,12.8583333 1.36111111,11.9916667 C1.36111111,11.125 2.06666667,10.425 2.92777778,10.425 Z" id="Shape"></path>
                            <path d="M2.92777778,23.9694444 C4.54444444,23.9694444 5.85555556,22.6527778 5.85555556,21.0416667 C5.85555556,19.425 4.53888889,18.1138889 2.92777778,18.1138889 C1.31666667,18.1138889 0,19.4305556 0,21.0416667 C0,22.6527778 1.31666667,23.9694444 2.92777778,23.9694444 Z M2.92777778,19.4694444 C3.79444444,19.4694444 4.49444444,20.175 4.49444444,21.0361111 C4.49444444,21.9027778 3.78888889,22.6027778 2.92777778,22.6027778 C2.06666667,22.6027778 1.36111111,21.8972222 1.36111111,21.0361111 C1.36111111,20.175 2.06666667,19.4694444 2.92777778,19.4694444 Z" id="Shape"></path>
                            <path d="M9.77222222,3.625 L26.5222222,3.625 C26.9,3.625 27.2055556,3.31944444 27.2055556,2.94166667 C27.2055556,2.56388889 26.9,2.25833333 26.5222222,2.25833333 L9.77222222,2.25833333 C9.39444444,2.25833333 9.08888889,2.56388889 9.08888889,2.94166667 C9.08888889,3.31944444 9.39444444,3.625 9.77222222,3.625 Z" id="Path"></path>
                            <path d="M9.77222222,12.675 L26.5222222,12.675 C26.9,12.675 27.2055556,12.3694444 27.2055556,11.9916667 C27.2055556,11.6138889 26.9,11.3083333 26.5222222,11.3083333 L9.77222222,11.3083333 C9.39444444,11.3083333 9.08888889,11.6138889 9.08888889,11.9916667 C9.08888889,12.3694444 9.39444444,12.675 9.77222222,12.675 Z" id="Path"></path>
                            <path d="M9.77222222,21.7194444 L26.5222222,21.7194444 C26.9,21.7194444 27.2055556,21.4138889 27.2055556,21.0361111 C27.2055556,20.6583333 26.9,20.3527778 26.5222222,20.3527778 L9.77222222,20.3527778 C9.39444444,20.3527778 9.08888889,20.6583333 9.08888889,21.0361111 C9.08888889,21.4138889 9.39444444,21.7194444 9.77222222,21.7194444 Z" id="Path"></path>
                        </g>
                    </g>
                </g>
            </g>
        </g>
    </g>
</svg>