<?xml version="1.0" encoding="UTF-8"?>
<svg width="30px" height="26px" viewBox="0 0 30 26" version="1.1" xmlns="http://www.w3.org/2000/svg" xmlns:xlink="http://www.w3.org/1999/xlink">
    <!-- Generator: Sketch 53 (72520) - https://sketchapp.com -->
    <title>login-square-arrow-button-outline</title>
    <desc>Created with Sketch.</desc>
    <g id="Web" stroke="none" stroke-width="1" fill="none" fill-rule="evenodd">
        <g id="01_Main_D" transform="translate(-1210.000000, -34.000000)" fill="#000000" fill-rule="nonzero">
            <g id="login-square-arrow-button-outline" transform="translate(1210.000000, 34.000000)">
                <path d="M16.2439016,18.7907239 C15.8776749,19.1535112 15.8776749,19.740694 16.2439016,20.1025112 C16.6101772,20.46525 17.2030061,20.46525 17.5683022,20.1025112 L24.030063,13.7013694 C24.22493,13.5083582 24.3082836,13.2514142 24.2951096,12.9990299 C24.3082836,12.7457724 24.2248811,12.48975 24.030063,12.2967873 L17.5683022,5.89656716 C17.2030061,5.53382836 16.6091978,5.53382836 16.2439016,5.89656716 C15.8776749,6.25930597 15.8776749,6.84653731 16.2439016,7.20830597 L21.1546105,12.0722463 L0.936625466,12.0722463 C0.419608209,12.0722948 0,12.4879067 0,13 C0,13.5120933 0.419608209,13.9277052 0.936625466,13.9277052 L21.1546105,13.9277052 L16.2439016,18.7907239 Z M26.2255131,0.0121268657 L7.49300373,0.0121268657 C5.4240042,0.0121268657 3.74650187,1.67365299 3.74650187,3.72294776 L3.74650187,7.43376866 L5.6197528,7.43376866 L5.6197528,3.72294776 C5.6197528,2.69876119 6.45803871,1.86753731 7.49300373,1.86753731 L26.2255131,1.86753731 C27.2604781,1.86753731 28.098764,2.69876119 28.098764,3.72294776 L28.098764,22.2770522 C28.098764,23.3012388 27.2604781,24.1324627 26.2255131,24.1324627 L7.49300373,24.1324627 C6.45803871,24.1324627 5.6197528,23.3021604 5.6197528,22.2770522 L5.6197528,18.5662313 L3.74650187,18.5662313 L3.74650187,22.2770522 C3.74650187,24.326347 5.4240042,25.9878731 7.49300373,25.9878731 L26.2255131,25.9878731 C28.2945126,25.9878731 29.9720149,24.326347 29.9720149,22.2770522 L29.9720149,3.72294776 C29.9720149,1.67365299 28.2945126,0.0121268657 26.2255131,0.0121268657 Z" id="Shape"></path>
            </g>
        </g>
    </g>
</svg>