<svg xmlns="http://www.w3.org/2000/svg" width="96" height="60" viewBox="0 0 96 60">
    <g fill="none" fill-rule="evenodd">
        <path fill="#000" d="M15.894 15.146c0 .665-.196 1.206-.584 1.622-.388.416-.887.624-1.497.624-1.47 0-2.205-.652-2.205-1.954 0-.334.09-.729.27-1.186.18-.46.27-.784.27-.98 0-.525-.2-.974-.602-1.351-.403-.374-.894-.56-1.477-.56-2.526 0-3.787 2.814-3.787 8.446 0 3.217.555 5.52 1.665 6.906.859 1.054 1.913 1.58 3.16 1.58 1.304 0 2.636-.846 3.995-2.536.167-.222.32-.335.458-.335.111 0 .166.083.166.25 0 .526-.499 1.262-1.497 2.205-1.443 1.36-3.176 2.038-5.2 2.038-2.497 0-4.626-.894-6.388-2.683C.88 25.444 0 23.274 0 20.721c0-2.773.928-5.11 2.787-7.012 1.859-1.898 4.146-2.848 6.865-2.848 1.747 0 3.225.415 4.431 1.248 1.207.83 1.81 1.844 1.81 3.037M38.111 29.25c0 .168-.125.25-.374.25h-3.329c-2.386 0-3.855-.041-4.41-.124h-.666l-.998.125c-.361.027-.541-.078-.541-.314 0-.179.068-.27.208-.27h.957c.61.029.957-.137 1.04-.497.055-.223.083-1.609.083-4.162v-6.2c0-2.578-.125-4.104-.372-4.577-.356-.72-1.046-1.081-2.063-1.081-1.074 0-1.9.487-2.478 1.463-.275.473-.413 1.49-.413 3.052V28.329c-.028.417.543.63 1.714.63.245 0 .367.081.367.25 0 .194-.18.292-.54.292h-.334c-.222-.083-.555-.125-.998-.125h-1.831l-2.33.042-2.455.083H17.1c-.416 0-.625-.083-.625-.25 0-.083.027-.14.083-.168.057-.025.18-.042.376-.042 1.053 0 1.677-.04 1.871-.124.194-.081.32-.402.376-.957.026-.332.04-1.995.04-4.993V7.697c0-2.994-.062-4.72-.186-5.178-.126-.459-.715-.687-1.77-.687-.804 0-1.206-.083-1.206-.25 0-.166.469-.277 1.408-.332 2.127-.14 4.126-.5 6.004-1.081.359-.113.62-.169.787-.169.22 0 .332.777.332 2.331v11.484c.804-1.137 1.586-1.915 2.351-2.33.762-.416 1.795-.624 3.1-.624 2.746 0 4.464 1.108 5.157 3.328.25.722.375 1.887.375 3.494v9.695c0 .722.118 1.164.354 1.331.236.166.825.25 1.768.25.277 0 .416.099.416.292"/>
        <path fill="#66C088" d="M58.373 20.555c0 2.967-1.165 5.367-3.495 7.199-1.83 1.442-3.842 2.161-6.032 2.161-2.608 0-4.861-.933-6.76-2.806-1.901-1.873-2.851-4.085-2.851-6.637 0-2.663.95-4.933 2.85-6.803 1.9-1.871 4.194-2.808 6.885-2.808 2.58 0 4.791.95 6.637 2.849 1.844 1.902 2.766 4.182 2.766 6.845"/>
        <path fill="#000" d="M74.516 19.87c0-5.285-1.186-7.927-3.557-7.927-1.046 0-1.928.498-2.645 1.492-.332.471-.496 1.26-.496 2.367v8.177c0 1.769.22 2.975.662 3.61.633.94 1.488 1.412 2.564 1.412 2.315 0 3.472-3.044 3.472-9.132m6.117.166c0 2.824-.802 5.176-2.406 7.057-1.605 1.885-3.608 2.823-6.013 2.823-1.825 0-3.29-.719-4.396-2.161v9.325c0 .775-.75 1.584-.67 1.79.083.207-3.56.909-4.254.909 0 0-.652-1.57-.652-2.456V14.27c.028-.582-.194-.942-.666-1.08-.222-.084-.693-.126-1.414-.126h-.79c-.222 0-.333-.083-.333-.249 0-.22.166-.305.5-.251 2.939-.082 5.519-.636 7.739-1.662.11.165.18.388.208.663l.083 1.042.04.707c.75-.927 1.484-1.56 2.205-1.902.722-.34 1.651-.51 2.788-.51 2.303 0 4.217.864 5.743 2.594 1.524 1.73 2.288 3.908 2.288 6.538M15.894 53.194c0 1.858-.567 3.363-1.7 4.514-1.136 1.15-2.601 1.727-4.397 1.727-.885 0-1.936-.222-3.152-.666-.996-.36-1.646-.541-1.948-.541-.526 0-.872.202-1.037.604-.167.4-.291.603-.374.603-.167 0-.249-.098-.249-.293 0-.169.022-.434.065-.795.068-.533.101-1.453.101-2.766V53.53c0-.308.069-.46.207-.46.167 0 .29.207.374.623.247 1.471.952 2.698 2.113 3.68 1.159.988 2.457 1.48 3.893 1.48.912 0 1.65-.284 2.216-.854.566-.569.85-1.31.85-2.225 0-.722-.264-1.331-.79-1.83-.389-.362-1.43-.819-3.12-1.374-2.082-.692-3.586-1.532-4.515-2.517-.93-.983-1.394-2.24-1.394-3.765 0-1.638.554-3.024 1.663-4.162 1.11-1.137 2.47-1.705 4.08-1.705.608 0 1.663.194 3.16.582.222.056.39.084.5.084.61 0 1.068-.374 1.373-1.125.056-.138.125-.208.208-.208.194 0 .29.169.29.5l-.04.79c-.028.112-.042.307-.042.582 0 1.138.069 2.304.208 3.496v.208c0 .223-.083.334-.249.334-.14 0-.25-.126-.334-.376-.805-2.829-2.44-4.244-4.909-4.244-.915 0-1.671.251-2.267.75a2.382 2.382 0 0 0-.895 1.913c0 .722.249 1.29.75 1.706.498.417 1.469.889 2.911 1.415 2.524.888 4.23 1.774 5.118 2.663.887.888 1.332 2.123 1.332 3.703M31.24 56.272c0 .307-.266.709-.797 1.207-1.37 1.304-3.255 1.957-5.66 1.957-2.206 0-3.66-.543-4.357-1.624-.28-.415-.44-.804-.483-1.166-.04-.358-.063-1.29-.063-2.786v-1.997c.057-.527.083-1.083.083-1.665l-.083-.873v-6.74c0-.5-.069-.79-.208-.874-.138-.085-.555-.125-1.247-.125-.832 0-1.248-.11-1.248-.334 0-.166.152-.275.457-.33 2.608-.086 4.855-1.5 6.741-4.247.248-.386.442-.582.582-.582.165 0 .25.196.25.582-.029 2.388.068 3.69.29 3.912.223.222.902.334 2.04.334 1.165 0 1.982-.056 2.454-.168a.378.378 0 0 1 .167-.04c.11 0 .166.086.166.26 0 .407-.178.61-.536.61-1.128.03-2.38.043-3.756.043h-.577v.87c0 7.397.056 11.729.168 12.998.254 1.602 1.041 2.4 2.365 2.4.591 0 1.35-.415 2.28-1.248.45-.388.732-.582.845-.582.084 0 .127.07.127.208"/>
        <path fill="#000" d="M42.057 58.687c0 .192-.124.291-.373.291H31.196c-.332 0-.497-.09-.497-.267 0-.132.318-.21.956-.232.944-.028 1.499-.133 1.665-.314.166-.183.25-.733.25-1.653V44.51c0-1.061-.092-1.694-.27-1.905-.182-.21-.73-.313-1.645-.313-.582 0-.923-.014-1.018-.042-.098-.027-.146-.125-.146-.291 0-.193.208-.291.623-.291 3.051-.028 5.66-.5 7.823-1.415.055.332.124 1.249.207 2.745v13.108c0 1.138.104 1.803.313 1.995.208.195.921.293 2.143.293.305 0 .457.097.457.292"/>
        <path fill="#EB6968" d="M39.144 35.774c0 .777-.27 1.443-.808 1.997a2.63 2.63 0 0 1-1.957.834c-.795 0-1.463-.265-2.002-.79-.538-.527-.808-1.194-.808-2 0-.776.27-1.414.808-1.913.539-.498 1.235-.75 2.086-.75.766 0 1.405.252 1.915.75.512.499.766 1.123.766 1.872"/>
        <path fill="#000" d="M58.99 44.706c0 .665-.195 1.207-.583 1.622-.388.416-.888.624-1.497.624-1.47 0-2.205-.65-2.205-1.954 0-.335.09-.729.27-1.186.18-.46.27-.783.27-.98 0-.525-.2-.974-.602-1.351-.404-.374-.895-.56-1.478-.56-2.525 0-3.786 2.814-3.786 8.445 0 3.217.554 5.52 1.665 6.907.859 1.054 1.913 1.582 3.16 1.582 1.304 0 2.636-.847 3.995-2.538.166-.222.32-.335.458-.335.11 0 .166.083.166.25 0 .528-.499 1.262-1.497 2.205-1.444 1.36-3.176 2.038-5.2 2.038-2.497 0-4.626-.894-6.388-2.683-1.761-1.788-2.641-3.958-2.641-6.511 0-2.773.928-5.11 2.787-7.01 1.859-1.9 4.146-2.85 6.865-2.85 1.747 0 3.225.415 4.431 1.248 1.207.83 1.81 1.844 1.81 3.037M82.123 58.687c0 .194-.513.291-1.54.291H71.68c-.388 0-.582-.1-.582-.29 0-.196.374-.307 1.124-.335.47-.027.707-.179.707-.457 0-.277-.582-1.36-1.748-3.245a67.18 67.18 0 0 1-1.455-2.332c-.434-.776-1.058-1.788-1.873-3.037v6.13c0 1.464.047 2.32.143 2.568.095.25.402.373.918.373h.737c.27 0 .407.103.407.311 0 .21-.152.314-.457.314h-9.695c-.306 0-.457-.1-.457-.29 0-.196.36-.306 1.08-.335.917-.027 1.437-.11 1.563-.247.124-.139.186-.83.186-2.08V31.974c0-1.08 5.575-.507 5.575-.507V48.7c.442-.363 1.157-1.106 2.149-2.231l1.86-2.147c1.322-1.514 1.982-2.328 1.982-2.441 0-.14-.083-.224-.249-.253-.166-.027-.72-.055-1.664-.084-.639 0-.957-.111-.957-.33 0-.195.166-.293.498-.293H77.88c.499 0 .75.081.75.247 0 .168-.571.279-1.709.335-.75.028-1.36.278-1.832.748-.86.832-1.957 2-3.288 3.498l4.773 7.246c.251.415.656 1.038 1.215 1.867.083.113.291.417.622.917l.683 1.014.354.486c.306.47.556.766.753.891.194.124.564.184 1.107.184s.815.112.815.333M95.854 53.194c0 1.858-.567 3.363-1.7 4.514-1.135 1.15-2.6 1.727-4.396 1.727-.886 0-1.936-.222-3.153-.666-.994-.36-1.645-.541-1.948-.541-.526 0-.872.202-1.037.604-.167.4-.29.603-.374.603-.166 0-.249-.098-.249-.293 0-.169.022-.434.067-.795.066-.533.1-1.453.1-2.766V53.53c0-.308.07-.46.208-.46.165 0 .288.207.372.623.248 1.471.953 2.698 2.113 3.68 1.16.988 2.458 1.48 3.894 1.48.912 0 1.65-.284 2.216-.854.567-.569.85-1.31.85-2.225 0-.722-.264-1.331-.791-1.83-.389-.362-1.429-.819-3.12-1.374-2.08-.692-3.585-1.532-4.514-2.517-.931-.983-1.395-2.24-1.395-3.765 0-1.638.555-3.024 1.665-4.162 1.11-1.137 2.47-1.705 4.078-1.705.609 0 1.663.194 3.16.582.223.056.39.084.5.084.611 0 1.068-.374 1.373-1.125.056-.138.125-.208.208-.208.194 0 .291.169.291.5l-.04.79c-.029.112-.043.307-.043.582 0 1.138.07 2.304.208 3.496v.208c0 .223-.082.334-.248.334-.14 0-.25-.126-.334-.376-.804-2.829-2.44-4.244-4.91-4.244-.915 0-1.67.251-2.267.75a2.382 2.382 0 0 0-.895 1.913c0 .722.25 1.29.75 1.706.499.417 1.47.889 2.912 1.415 2.524.888 4.23 1.774 5.118 2.663.887.888 1.331 2.123 1.331 3.703"/>
    </g>
</svg>
