<?xml version="1.0" encoding="UTF-8"?>
<svg width="96px" height="60px" viewBox="0 0 96 60" version="1.1" xmlns="http://www.w3.org/2000/svg" xmlns:xlink="http://www.w3.org/1999/xlink">
    <!-- Generator: Sketch 53 (72520) - https://sketchapp.com -->
    <title>Group</title>
    <desc>Created with Sketch.</desc>
    <g id="Page-1" stroke="none" stroke-width="1" fill="none" fill-rule="evenodd">
        <g id="01_Main" transform="translate(-130.000000, -28.000000)">
            <g id="Group" transform="translate(130.000000, 28.000000)">
                <path d="M15.893617,15.1456596 C15.893617,15.810766 15.6982979,16.3520426 15.3102128,16.7682128 C14.9221277,17.184383 14.4229787,17.3924681 13.812766,17.3924681 C12.3421277,17.3924681 11.6080851,16.7401277 11.6080851,15.438 C11.6080851,15.1035319 11.6974468,14.7090638 11.8787234,14.2520426 C12.0587234,13.7924681 12.1480851,13.4682128 12.1480851,13.2728936 C12.1480851,12.7469362 11.9476596,12.2975745 11.5455319,11.9209787 C11.1434043,11.5469362 10.6519149,11.3605532 10.0685106,11.3605532 C7.54340426,11.3605532 6.28212766,14.1754468 6.28212766,19.8065106 C6.28212766,23.0235319 6.83744681,25.3265106 7.94680851,26.7128936 C8.80595745,27.7673617 9.86042553,28.2933191 11.1076596,28.2933191 C12.4110638,28.2933191 13.7425532,27.4469362 15.1021277,25.7567234 C15.2693617,25.5345957 15.4212766,25.4222553 15.5604255,25.4222553 C15.6714894,25.4222553 15.726383,25.505234 15.726383,25.6724681 C15.726383,26.1984255 15.227234,26.9337447 14.2289362,27.8771489 C12.786383,29.2367234 11.052766,29.9145957 9.02808511,29.9145957 C6.53234043,29.9145957 4.40297872,29.0209787 2.6412766,27.2324681 C0.879574468,25.4439574 2.22044605e-14,23.2737447 2.22044605e-14,20.7205532 C2.22044605e-14,17.9477872 0.928085106,15.611617 2.78680851,13.7094894 C4.64553191,11.8111915 6.93319149,10.8614043 9.65234043,10.8614043 C11.3987234,10.8614043 12.8770213,11.2762979 14.0834043,12.1086383 C15.2897872,12.9397021 15.893617,13.9533191 15.893617,15.1456596" id="Fill-1" fill="#000000"></path>
                <path d="M38.111234,29.2506383 C38.111234,29.4178723 37.9861277,29.5008511 37.7371915,29.5008511 L36.9048511,29.5008511 L35.4482553,29.5008511 L34.4078298,29.5008511 C32.0218723,29.5008511 30.5525106,29.4587234 29.9984681,29.3757447 L29.3320851,29.3757447 L28.3337872,29.5008511 C27.9725106,29.5276596 27.7925106,29.4229787 27.7925106,29.1868085 C27.7925106,29.0080851 27.8614468,28.9174468 28.0005957,28.9174468 L28.9580426,28.9174468 C29.5682553,28.9455319 29.9154894,28.7795745 29.9984681,28.4195745 C30.0533617,28.1974468 30.0814468,26.8110638 30.0814468,24.2578723 L30.0814468,18.0574468 C30.0814468,15.48 29.9563404,13.9544681 29.7086809,13.4808511 C29.3525106,12.7608511 28.6631489,12.3995745 27.6457021,12.3995745 C26.5720851,12.3995745 25.7461277,12.887234 25.1678298,13.8625532 C24.8933617,14.3361702 24.7554894,15.353617 24.7554894,16.9148936 L24.7554894,23.4791489 L24.7554894,26.8251064 L24.7554894,27.3268085 L24.7554894,28.3289362 C24.7274043,28.746383 25.2980426,28.9582979 26.4686809,28.9582979 C26.7137872,28.9582979 26.8363404,29.04 26.8363404,29.2085106 C26.8363404,29.4025532 26.6550638,29.5008511 26.2950638,29.5008511 L25.9618723,29.5008511 C25.7397447,29.4178723 25.4065532,29.3757447 24.9635745,29.3757447 L23.1329362,29.3757447 L20.8031489,29.4178723 L18.3482553,29.5008511 L17.0997447,29.5008511 C16.6835745,29.5008511 16.4754894,29.4178723 16.4754894,29.2506383 C16.4754894,29.1676596 16.5022979,29.1114894 16.5584681,29.0834043 C16.6146383,29.0578723 16.7384681,29.0412766 16.9337872,29.0412766 C17.9869787,29.0412766 18.611234,29.0017021 18.8052766,28.9174468 C18.9993191,28.8357447 19.1244255,28.5153191 19.1805957,27.96 C19.2074043,27.6280851 19.2214468,25.9646809 19.2214468,22.967234 L19.2214468,7.69787234 C19.2214468,4.70297872 19.1588936,2.97702128 19.0350638,2.5187234 C18.9086809,2.06042553 18.3201702,1.83191489 17.2657021,1.83191489 C16.4614468,1.83191489 16.0593191,1.74893617 16.0593191,1.58170213 C16.0593191,1.41574468 16.5278298,1.30468085 17.4674043,1.24978723 C19.5942128,1.1106383 21.5933617,0.750638298 23.471234,0.168510638 C23.8299574,0.0561702128 24.0916596,-7.81597009e-14 24.257617,-7.81597009e-14 C24.4784681,-7.81597009e-14 24.5895319,0.777446809 24.5895319,2.33106383 L24.5895319,3.16212766 L24.5895319,5.3693617 L24.5895319,7.2 L24.5895319,13.8153191 C25.3937872,12.6778723 26.1763404,11.9004255 26.9410213,11.4842553 C27.7031489,11.0693617 28.7359149,10.8612766 30.0405957,10.8612766 C32.7865532,10.8612766 34.5048511,11.9693617 35.1980426,14.1893617 C35.4482553,14.9106383 35.5733617,16.0761702 35.5733617,17.6834043 L35.5733617,27.3778723 C35.5733617,28.1004255 35.6908085,28.5421277 35.9269787,28.7093617 C36.1631489,28.8753191 36.7516596,28.9582979 37.6950638,28.9582979 C37.9720851,28.9582979 38.111234,29.0578723 38.111234,29.2506383" id="Fill-3" fill="#000000"></path>
                <path d="M58.3734894,20.5549787 C58.3734894,23.5217872 57.2079574,25.9217872 54.8781702,27.7537021 C53.0475319,29.1962553 51.035617,29.9149787 48.8462553,29.9149787 C46.2381702,29.9149787 43.9849787,28.9817872 42.0854043,27.1090213 C40.1845532,25.2362553 39.234766,23.0239149 39.234766,20.472 C39.234766,17.8090213 40.1845532,15.539234 42.0854043,13.6690213 C43.9849787,11.7975319 46.2790213,10.8605106 48.9700851,10.8605106 C51.5500851,10.8605106 53.7611489,11.8102979 55.6071064,13.7098723 C57.4505106,15.612 58.3734894,17.892 58.3734894,20.5549787" id="Fill-6" fill="#66C088"></path>
                <path d="M74.5160426,19.8693191 C74.5160426,14.5854894 73.3300851,11.9429362 70.9594468,11.9429362 C69.9126383,11.9429362 69.0305106,12.4408085 68.3143404,13.4352766 C67.9824255,13.9063404 67.8177447,14.6952766 67.8177447,15.8020851 L67.8177447,23.9786809 C67.8177447,25.7480426 68.0385957,26.9544255 68.4802979,27.5888936 C69.1134894,28.5297447 69.9675319,29.0008085 71.0437021,29.0008085 C73.3594468,29.0008085 74.5160426,25.9574043 74.5160426,19.8693191 M80.6334894,20.0352766 C80.6334894,22.8591064 79.8305106,25.2105957 78.2271064,27.0922979 C76.6224255,28.9765532 74.6194468,29.9148511 72.2143404,29.9148511 C70.3888085,29.9148511 68.9232766,29.1961277 67.8177447,27.7535745 L67.8177447,37.0791064 C67.8177447,37.854 67.0671064,38.6633617 67.1488085,38.8688936 C67.2305106,39.0757021 63.5871064,39.7778298 62.8939149,39.7778298 C62.8939149,39.7778298 62.2415745,38.2088936 62.2415745,37.3216596 L62.2415745,16.3522979 L62.2415745,15.7701702 L62.2415745,15.4369787 L62.2415745,14.2714468 C62.2696596,13.6893191 62.0475319,13.3293191 61.5764681,13.1914468 C61.3543404,13.1071915 60.8832766,13.0650638 60.162,13.0650638 L59.3717872,13.0650638 C59.1496596,13.0650638 59.0385957,12.9820851 59.0385957,12.8161277 C59.0385957,12.5952766 59.2045532,12.5110213 59.5390213,12.5646383 C62.4777447,12.4829362 65.0577447,11.9288936 67.2777447,10.9025106 C67.3875319,11.0684681 67.4577447,11.2905957 67.4858298,11.5663404 L67.5688085,12.6080426 L67.6096596,13.3152766 C68.3590213,12.3884681 69.0930638,11.7552766 69.8143404,11.4131489 C70.535617,11.0722979 71.4649787,10.9025106 72.6024255,10.9025106 C74.9054043,10.9025106 76.8190213,11.766766 78.3445532,13.4965532 C79.8688085,15.2263404 80.6334894,17.4054894 80.6334894,20.0352766" id="Fill-8" fill="#000000"></path>
                <path d="M15.893617,53.1942128 C15.893617,55.0516596 15.3268085,56.556766 14.1931915,57.7082553 C13.0582979,58.8584681 11.592766,59.4354894 9.79659574,59.4354894 C8.91191489,59.4354894 7.8612766,59.2133617 6.64468085,58.7691064 C5.64893617,58.4091064 4.99914894,58.2278298 4.69659574,58.2278298 C4.1706383,58.2278298 3.82468085,58.4295319 3.66,58.8316596 C3.49276596,59.2325106 3.36893617,59.4354894 3.28595745,59.4354894 C3.1187234,59.4354894 3.03702128,59.3371915 3.03702128,59.1418723 C3.03702128,58.9733617 3.0587234,58.7078298 3.10212766,58.3465532 C3.16978723,57.8142128 3.20297872,56.8937872 3.20297872,55.5814468 L3.20297872,55.164 L3.20297872,54.2422979 L3.20297872,53.5299574 C3.20297872,53.2222979 3.27191489,53.0691064 3.40978723,53.0691064 C3.57702128,53.0691064 3.69957447,53.2771915 3.78382979,53.6933617 C4.03148936,55.164 4.73617021,56.3908085 5.89659574,57.3737872 C7.05574468,58.3605957 8.35404255,58.8533617 9.79021277,58.8533617 C10.7017021,58.8533617 11.4395745,58.5686809 12.006383,57.9993191 C12.5719149,57.4299574 12.8565957,56.6882553 12.8565957,55.7742128 C12.8565957,55.0516596 12.5923404,54.4427234 12.0651064,53.9435745 C11.6770213,53.5822979 10.6365957,53.1252766 8.94510638,52.5699574 C6.86425532,51.8780426 5.36042553,51.0380426 4.43106383,50.0525106 C3.50042553,49.0695319 3.03702128,47.8120851 3.03702128,46.2878298 C3.03702128,44.6499574 3.59106383,43.2635745 4.70042553,42.1261277 C5.80978723,40.9886809 7.1693617,40.4205957 8.77914894,40.4205957 C9.38808511,40.4205957 10.4425532,40.6146383 11.94,41.0027234 C12.1621277,41.0588936 12.3293617,41.0869787 12.4391489,41.0869787 C13.0493617,41.0869787 13.5076596,40.7129362 13.812766,39.9622979 C13.8689362,39.8244255 13.9378723,39.7542128 14.0208511,39.7542128 C14.2148936,39.7542128 14.3119149,39.9227234 14.3119149,40.2533617 L14.2710638,41.0435745 C14.2429787,41.1559149 14.2289362,41.351234 14.2289362,41.6257021 C14.2289362,42.7644255 14.2978723,43.9299574 14.4370213,45.1222979 L14.4370213,45.330383 C14.4370213,45.5525106 14.3540426,45.6635745 14.1880851,45.6635745 C14.0476596,45.6635745 13.9378723,45.5384681 13.853617,45.2882553 C13.0493617,42.4593191 11.4140426,41.0435745 8.94510638,41.0435745 C8.02978723,41.0435745 7.27404255,41.2950638 6.67787234,41.7942128 C6.08042553,42.2933617 5.78297872,42.9316596 5.78297872,43.7065532 C5.78297872,44.4291064 6.03191489,44.9971915 6.53234043,45.4133617 C7.03148936,45.8295319 8.00170213,46.3018723 9.44425532,46.8278298 C11.9680851,47.7163404 13.673617,48.6022979 14.5621277,49.4908085 C15.4493617,50.3793191 15.893617,51.6137872 15.893617,53.1942128" id="Fill-10" fill="#000000"></path>
                <path d="M31.2395745,56.2723404 C31.2395745,56.5787234 30.9740426,56.9808511 30.4429787,57.4787234 C29.0731915,58.7834043 27.1876596,59.4357447 24.7838298,59.4357447 C22.5765957,59.4357447 21.1238298,58.8931915 20.4255319,57.8119149 C20.1459574,57.3970213 19.9851064,57.0076596 19.9429787,56.646383 C19.9021277,56.2876596 19.8804255,55.3557447 19.8804255,53.8595745 L19.8804255,51.8629787 C19.9365957,51.3357447 19.9634043,50.7804255 19.9634043,50.1982979 L19.8804255,49.3251064 L19.8804255,45.5795745 L19.8804255,42.5846809 C19.8804255,42.0855319 19.8114894,41.7944681 19.6723404,41.7114894 C19.5344681,41.6259574 19.1170213,41.586383 18.4251064,41.586383 C17.592766,41.586383 17.1765957,41.4753191 17.1765957,41.2519149 C17.1765957,41.0859574 17.3285106,40.9774468 17.633617,40.9212766 C20.2417021,40.8357447 22.4885106,39.4225532 24.3753191,36.6753191 C24.6229787,36.2885106 24.8170213,36.0931915 24.9574468,36.0931915 C25.1221277,36.0931915 25.206383,36.2885106 25.206383,36.6753191 C25.1782979,39.0625532 25.2753191,40.3646809 25.4974468,40.5868085 C25.7195745,40.8089362 26.3987234,40.9212766 27.5361702,40.9212766 C28.7017021,40.9212766 29.5187234,40.8651064 29.9910638,40.752766 C30.0459574,40.7259574 30.1021277,40.7131915 30.1582979,40.7131915 C30.2680851,40.7131915 30.3242553,40.7987234 30.3242553,40.973617 C30.3242553,41.3795745 30.1455319,41.5838298 29.7880851,41.5838298 C28.6595745,41.6131915 27.4085106,41.6259574 26.0323404,41.6259574 L25.4553191,41.6259574 L25.4553191,42.4965957 C25.4553191,49.8931915 25.5114894,54.2246809 25.6225532,55.493617 C25.8765957,57.0957447 26.6642553,57.8948936 27.9880851,57.8948936 C28.5791489,57.8948936 29.3387234,57.4787234 30.2680851,56.646383 C30.7187234,56.2582979 30.9995745,56.0642553 31.1131915,56.0642553 C31.1974468,56.0642553 31.2395745,56.1344681 31.2395745,56.2723404" id="Fill-12" fill="#000000"></path>
                <path d="M42.0569362,58.6871489 C42.0569362,58.8786383 41.9331064,58.9782128 41.6841702,58.9782128 L36.1705532,58.9782128 L32.1914043,58.9782128 L31.5697021,58.9782128 L31.1956596,58.9782128 C30.8637447,58.9782128 30.6990638,58.8875745 30.6990638,58.7114043 C30.6990638,58.5786383 31.0169362,58.500766 31.655234,58.4790638 C32.5986383,58.4509787 33.1539574,58.3462979 33.3199149,58.1650213 C33.4858723,57.9824681 33.5701277,57.4322553 33.5701277,56.5118298 L33.5701277,44.5105532 C33.5701277,43.4497021 33.4782128,42.8165106 33.2994894,42.6058723 C33.1182128,42.3965106 32.5705532,42.2931064 31.655234,42.2931064 C31.0731064,42.2931064 30.7322553,42.2790638 30.6365106,42.2509787 C30.5394894,42.2241702 30.4909787,42.1258723 30.4909787,41.9599149 C30.4909787,41.7671489 30.6990638,41.6688511 31.1139574,41.6688511 C34.1650213,41.640766 36.7731064,41.1684255 38.9369362,40.254383 C38.9918298,40.5862979 39.060766,41.5028936 39.1437447,42.9990638 L39.1437447,48.2854468 L39.1437447,56.1071489 C39.1437447,57.2445957 39.2484255,57.9097021 39.4565106,58.1024681 C39.6645957,58.2965106 40.3782128,58.3948085 41.5999149,58.3948085 C41.9050213,58.3948085 42.0569362,58.4918298 42.0569362,58.6871489" id="Fill-14" fill="#000000"></path>
                <path d="M39.1441277,35.7744255 C39.1441277,36.5505957 38.874766,37.2169787 38.3360426,37.7710213 C37.7960426,38.3263404 37.1437021,38.6046383 36.3790213,38.6046383 C35.5837021,38.6046383 34.9160426,38.340383 34.3773191,37.8144255 C33.8385957,37.2884681 33.569234,36.6208085 33.569234,35.8152766 C33.569234,35.0391064 33.8385957,34.4008085 34.3773191,33.9016596 C34.9160426,33.4037872 35.6117872,33.1522979 36.4632766,33.1522979 C37.229234,33.1522979 37.8675319,33.4037872 38.3781702,33.9016596 C38.8900851,34.4008085 39.1441277,35.0250638 39.1441277,35.7744255" id="Fill-16" fill="#EB6968"></path>
                <path d="M58.9905957,44.705617 C58.9905957,45.3707234 58.7952766,45.9132766 58.4071915,46.3281702 C58.0191064,46.7443404 57.5186809,46.9524255 56.9097447,46.9524255 C55.4391064,46.9524255 54.7050638,46.3013617 54.7050638,44.9979574 C54.7050638,44.6634894 54.7944255,44.2690213 54.9757021,43.812 C55.1544255,43.3524255 55.2450638,43.0294468 55.2450638,42.8328511 C55.2450638,42.3068936 55.0446383,41.8575319 54.6425106,41.4809362 C54.2391064,41.1068936 53.747617,40.9205106 53.1654894,40.9205106 C50.640383,40.9205106 49.3791064,43.7354043 49.3791064,49.3664681 C49.3791064,52.5834894 49.9331489,54.8864681 51.0437872,56.2728511 C51.9029362,57.3273191 52.9574043,57.8545532 54.2046383,57.8545532 C55.5080426,57.8545532 56.8395319,57.0081702 58.1991064,55.3166809 C58.3650638,55.0945532 58.5182553,54.9822128 58.6574043,54.9822128 C58.7671915,54.9822128 58.8233617,55.0651915 58.8233617,55.2324255 C58.8233617,55.7596596 58.3242128,56.4937021 57.3259149,57.4371064 C55.8820851,58.7966809 54.1497447,59.4745532 52.1250638,59.4745532 C49.6293191,59.4745532 47.4999574,58.5809362 45.7382553,56.7924255 C43.9765532,55.0039149 43.0969787,52.8337021 43.0969787,50.2805106 C43.0969787,47.5077447 44.0250638,45.1715745 45.8837872,43.2707234 C47.7425106,41.3711489 50.0301702,40.4213617 52.7493191,40.4213617 C54.4957021,40.4213617 55.974,40.8362553 57.180383,41.6685957 C58.386766,42.4996596 58.9905957,43.5132766 58.9905957,44.705617" id="Fill-18" fill="#000000"></path>
                <path d="M82.1232766,58.6871489 C82.1232766,58.8811915 81.6100851,58.9782128 80.5837021,58.9782128 L79.8764681,58.9782128 L77.7343404,58.9782128 L75.1339149,58.9782128 L72.8028511,58.9782128 L71.6794468,58.9782128 C71.2913617,58.9782128 71.0973191,58.8786383 71.0973191,58.6871489 C71.0973191,58.4918298 71.4713617,58.380766 72.2207234,58.3526809 C72.6917872,58.3258723 72.9279574,58.1739574 72.9279574,57.8956596 C72.9279574,57.6186383 72.3458298,56.5360851 71.1802979,54.6505532 C70.8471064,54.1514043 70.362,53.3739574 69.7249787,52.3194894 C69.2909362,51.5433191 68.6666809,50.5309787 67.8522128,49.2824681 L67.8522128,55.4126809 C67.8522128,56.8756596 67.8994468,57.7322553 67.9951915,57.9799149 C68.0896596,58.2301277 68.3973191,58.3526809 68.9130638,58.3526809 L69.3228511,58.3526809 L69.6496596,58.3526809 C69.9202979,58.3526809 70.0568936,58.4560851 70.0568936,58.6641702 C70.0568936,58.8735319 69.9049787,58.9782128 69.5998723,58.9782128 L69.4339149,58.9782128 L68.3513617,58.9782128 L66.9790213,58.9782128 L64.3990213,58.9782128 L60.3637021,58.9782128 L59.9054043,58.9782128 C59.5990213,58.9782128 59.448383,58.8786383 59.448383,58.6871489 C59.448383,58.4918298 59.808383,58.3820426 60.528383,58.3526809 C61.4449787,58.3258723 61.9645532,58.2428936 62.0909362,58.1062979 C62.214766,57.9671489 62.2773191,57.275234 62.2773191,56.0267234 L62.2773191,31.9731064 C62.2773191,30.8931064 67.8522128,31.4662979 67.8522128,31.4662979 L67.8522128,42.6250213 L67.8522128,48.7003404 C68.2939149,48.3365106 69.0088085,47.5935319 70.0007234,46.4688511 C70.4143404,45.9926809 71.0334894,45.2765106 71.8607234,44.321617 C73.1832766,42.8075745 73.8432766,41.994383 73.8432766,41.880766 C73.8432766,41.7403404 73.7602979,41.6573617 73.5943404,41.628 C73.428383,41.6011915 72.8730638,41.5731064 71.9296596,41.5437447 C71.2913617,41.5437447 70.9734894,41.4326809 70.9734894,41.2131064 C70.9734894,41.0190638 71.1394468,40.920766 71.4713617,40.920766 L74.634766,40.920766 L77.8798723,40.920766 C78.3790213,40.920766 78.629234,41.0024681 78.629234,41.1684255 C78.629234,41.3356596 78.0585957,41.4467234 76.9211489,41.5028936 C76.1717872,41.5309787 75.5615745,41.7811915 75.089234,42.2509787 C74.2288085,43.0833191 73.1322128,44.2501277 71.8007234,45.7488511 L76.5739149,52.9948085 C76.8254043,53.4097021 77.2300851,54.0326809 77.789234,54.8624681 C77.8722128,54.9748085 78.0802979,55.2786383 78.4109362,55.7790638 L79.0939149,56.7926809 L79.4475319,57.2790638 C79.7539149,57.7488511 80.0041277,58.0450213 80.2007234,58.1701277 C80.394766,58.2939574 80.7649787,58.3539574 81.3075319,58.3539574 C81.8513617,58.3539574 82.1232766,58.4662979 82.1232766,58.6871489" id="Fill-20" fill="#000000"></path>
                <path d="M95.8540851,53.1942128 C95.8540851,55.0516596 95.2872766,56.556766 94.1536596,57.7082553 C93.018766,58.8584681 91.5545106,59.4354894 89.7583404,59.4354894 C88.872383,59.4354894 87.8217447,59.2133617 86.6051489,58.7691064 C85.6106809,58.4091064 84.959617,58.2278298 84.6570638,58.2278298 C84.1311064,58.2278298 83.7851489,58.4295319 83.6204681,58.8316596 C83.453234,59.2325106 83.3294043,59.4354894 83.2464255,59.4354894 C83.0804681,59.4354894 82.9974894,59.3371915 82.9974894,59.1418723 C82.9974894,58.9733617 83.0191915,58.7078298 83.0638723,58.3465532 C83.1302553,57.8142128 83.1634468,56.8937872 83.1634468,55.5814468 L83.1634468,55.164 L83.1634468,54.2422979 L83.1634468,53.5299574 C83.1634468,53.2222979 83.2336596,53.0691064 83.3715319,53.0691064 C83.5374894,53.0691064 83.6600426,53.2771915 83.7442979,53.6933617 C83.9919574,55.164 84.6966383,56.3908085 85.8570638,57.3737872 C87.0174894,58.3605957 88.3145106,58.8533617 89.7506809,58.8533617 C90.6634468,58.8533617 91.4013191,58.5686809 91.9668511,57.9993191 C92.5336596,57.4299574 92.8170638,56.6882553 92.8170638,55.7742128 C92.8170638,55.0516596 92.5528085,54.4427234 92.0255745,53.9435745 C91.6374894,53.5822979 90.5970638,53.1252766 88.9055745,52.5699574 C86.826,51.8780426 85.3208936,51.0380426 84.3915319,50.0525106 C83.4608936,49.0695319 82.9974894,47.8120851 82.9974894,46.2878298 C82.9974894,44.6499574 83.5515319,43.2635745 84.6621702,42.1261277 C85.7715319,40.9886809 87.1311064,40.4205957 88.739617,40.4205957 C89.3485532,40.4205957 90.4030213,40.6146383 91.9004681,41.0027234 C92.1225957,41.0588936 92.2898298,41.0869787 92.4008936,41.0869787 C93.0111064,41.0869787 93.4681277,40.7129362 93.773234,39.9622979 C93.8294043,39.8244255 93.8983404,39.7542128 93.9813191,39.7542128 C94.1753617,39.7542128 94.272383,39.9227234 94.272383,40.2533617 L94.2315319,41.0435745 C94.2034468,41.1559149 94.1894043,41.351234 94.1894043,41.6257021 C94.1894043,42.7644255 94.2583404,43.9299574 94.3974894,45.1222979 L94.3974894,45.330383 C94.3974894,45.5525106 94.3145106,45.6635745 94.1485532,45.6635745 C94.0094043,45.6635745 93.8983404,45.5384681 93.8153617,45.2882553 C93.0111064,42.4593191 91.3745106,41.0435745 88.9055745,41.0435745 C87.9902553,41.0435745 87.2345106,41.2950638 86.6383404,41.7942128 C86.0408936,42.2933617 85.7434468,42.9316596 85.7434468,43.7065532 C85.7434468,44.4291064 85.9936596,44.9971915 86.4928085,45.4133617 C86.9919574,45.8295319 87.9621702,46.3018723 89.4047234,46.8278298 C91.9285532,47.7163404 93.6353617,48.6022979 94.5225957,49.4908085 C95.4098298,50.3793191 95.8540851,51.6137872 95.8540851,53.1942128" id="Fill-22" fill="#000000"></path>
            </g>
        </g>
    </g>
</svg>