<?xml version="1.0" encoding="UTF-8"?>
<svg width="436px" height="289px" viewBox="0 0 436 289" version="1.1" xmlns="http://www.w3.org/2000/svg" xmlns:xlink="http://www.w3.org/1999/xlink">
    <!-- Generator: Sketch 53 (72520) - https://sketchapp.com -->
    <title>Group 391</title>
    <desc>Created with Sketch.</desc>
    <defs>
        <polygon id="path-1" points="0.410028887 0.975787849 253.726221 0.975787849 253.726221 219.99137 0.410028887 219.99137"></polygon>
        <polygon id="path-3" points="0.419499216 0.915 4.69450078 0.915 4.69450078 5.19090078 0.419499216 5.19090078"></polygon>
    </defs>
    <g id="Page-2" stroke="none" stroke-width="1" fill="none" fill-rule="evenodd">
        <g id="02" transform="translate(-270.000000, -77.000000)">
            <g id="Group-391" transform="translate(270.000000, 77.000000)">
                <path d="M61.3400805,40.3448805 C59.5151846,39.6533198 57.5297559,39.3941142 55.5888621,39.5911105 C53.8778928,41.2147746 50.6796644,41.6751238 48.3286351,41.831684 C45.9092498,39.4749863 42.9906593,37.2821066 39.9809275,35.7517565 C37.9706421,34.7294495 35.6216842,33.651154 35.0013024,31.4800476 C34.0111773,28.0129129 28.082855,26.6152761 24.5687394,27.4115558 C20.1121407,26.2046944 15.0258389,27.7588914 11.4475102,30.6796205 C9.86703852,31.9694278 11.6453281,35.1680254 13.0083037,36.6848968 C14.3733506,38.2017682 16.0677488,39.8948995 15.7487546,41.9104825 C14.099927,42.7544561 11.8617885,42.8000763 10.0120359,42.7160937 C8.92351971,42.6663262 7.80600403,42.4548144 6.76512982,42.778303 C5.72529131,43.1007548 4.82009324,44.2298546 5.22090749,45.2428302 C4.50627744,46.489091 3.64561429,47.1412523 4.47624226,48.3138987 C5.1225164,49.2263025 6.22035387,49.9790357 6.2120683,51.0988041 C6.20585413,51.9883978 5.45704612,52.705879 4.6616318,53.1050557 C3.86725317,53.5052692 2.97448346,53.705376 2.22360405,54.1833512 C-0.124318159,55.6763757 -0.145032073,59.0398281 0.104570597,61.8143652 C1.62186484,63.679609 1.86007485,66.8947958 1.12990937,69.1872105 C0.851307216,70.0622887 0.402850966,70.9902449 0.715631076,71.8528813 C1.07501749,72.8399364 2.2360324,73.2287448 3.25204991,73.4920978 C5.42286816,74.0540556 7.97689382,74.5392885 9.70443429,73.1084734 C14.2583884,69.3354761 21.3270117,71.2898866 27.0937656,72.5890253 C29.0854084,73.0369326 31.1806209,73.7720398 32.3447429,75.4506556 C33.8962151,77.6891555 33.2344055,80.7965127 31.956357,83.201941 C30.6793442,85.6063326 28.8461627,87.7452975 28.0383201,90.3456485 C27.2791551,92.7832183 27.4914727,95.4043058 27.7100045,97.9476315 C27.9803211,101.080909 28.3086366,104.379042 30.1221399,106.946215 C32.0236772,109.636769 33.2230129,113.65342 33.0707656,116.945331 C32.9485535,119.588192 32.017463,122.186469 32.2598158,124.819999 C32.6989508,129.597677 36.8220555,133.180936 41.0280159,135.480608 C45.4297227,137.88811 49.2245119,141.983559 50.7418061,146.769532 C51.5030425,149.17185 51.7308955,151.714139 52.4009907,154.144451 C53.5630413,158.352914 56.0870317,162.171531 59.5017206,164.89008 C61.988426,166.869374 66.0711386,167.571303 69.1968683,168.140519 C70.8187678,168.436013 72.5670222,168.671372 73.7901788,169.777662 C74.3535973,170.288815 74.7606257,170.950308 75.3012589,171.486345 C77.9132835,174.073218 82.7230545,173.010475 85.36615,175.566242 C86.046602,176.225661 86.5157722,177.072745 87.1144043,177.807853 C88.7269826,179.78611 91.3493642,180.891363 93.8899258,180.664299 C93.2964721,182.606267 95.621609,184.890387 94.9038719,186.78881 C94.324918,188.31916 92.5766636,188.992057 91.3742209,190.101458 C89.2893654,192.027874 88.9651926,195.321859 89.8641765,198.015524 C90.7631604,200.709189 92.6615907,202.935247 94.5610566,205.044144 C98.0876006,208.959186 102.327739,210.858645 106.152563,214.483377 C109.695678,217.839572 110.503521,223.273559 109.724678,228.094784 C108.945835,232.916008 106.835087,237.40234 105.328149,242.047305 C102.511057,250.724473 101.829569,260.259093 104.522378,268.97566 C107.214151,277.692228 113.515324,285.462176 121.962458,288.888874 C122.89562,289.268352 124.043171,288.61308 124.72673,287.872788 C125.411325,287.133534 125.55943,285.947409 125.078867,285.061962 C123.553287,282.254247 120.842871,279.856076 118.864693,277.346966 C118.243275,276.558981 117.58768,275.664203 117.667428,274.663669 C117.757534,273.539753 118.724874,272.726884 119.437432,271.85388 C120.518699,270.527784 121.103867,268.808732 121.056225,267.099012 C121.012725,265.491937 120.077492,263.919077 120.132384,262.312002 C120.18624,260.704927 121.053118,259.011796 122.574555,258.494421 C123.267435,258.258026 124.035921,258.279799 124.704981,257.984304 C126.904798,257.012802 126.554733,253.653497 128.145562,251.849425 C128.884013,251.011673 129.972529,250.59487 130.977154,250.110674 C135.231792,248.061912 138.730372,244.003789 139.119794,239.294541 C139.429467,235.526728 138.060277,230.952267 140.920869,228.484629 C143.547393,226.218135 147.588678,227.721527 151.010617,227.166827 C152.402592,226.939763 153.331611,225.642698 153.983063,224.390217 C154.635552,223.138772 154.710122,221.650931 154.476054,220.259515 C154.187095,218.545648 153.452787,216.871179 153.615391,215.141759 C153.843244,212.708337 155.744782,210.832725 157.216505,208.882462 C158.954403,206.578642 160.20138,203.90364 160.84869,201.088666 C161.587141,197.872443 159.532321,194.075599 156.651015,192.471634 C153.770746,190.86767 150.315665,190.822049 147.020081,190.727698 C143.725533,190.633348 140.234203,190.383473 137.542429,188.479867 C135.076438,186.734895 133.682391,183.880522 131.733212,181.572555 C128.443842,177.679287 123.662035,175.429382 119.035582,173.295601 C117.289399,172.491026 115.329863,171.668826 113.503931,172.270183 C112.783087,172.506579 112.134742,172.955523 111.391112,173.098604 C109.347685,173.490523 107.696786,171.557886 105.865675,170.568757 C102.067779,168.515849 96.6127699,171.489456 96.2740974,175.796417 C94.3104183,176.474499 90.6709835,175.889731 89.5565749,174.135427 C88.7539107,172.87154 88.432845,171.104795 87.0522626,170.529358 C86.3138115,170.222459 85.3910067,170.337546 84.7913388,169.809803 C83.7981066,168.932651 84.5707356,167.34735 84.7478396,166.032659 C85.0316202,163.936203 83.4677197,161.942394 81.5599682,161.02999 C79.6532523,160.117586 77.4679343,160.042935 75.3551151,159.974504 C73.2422958,159.907111 71.0549064,159.810686 69.1647617,158.861994 C65.4849348,157.01645 63.9769618,152.017928 65.5916114,148.227305 C67.2062611,144.436682 71.4308639,142.098647 75.5446474,142.216844 C79.5766108,142.332969 83.8333203,145.282729 83.8788909,149.321153 C83.8902835,150.344497 85.5287542,150.459584 86.4173811,149.952578 C87.3060081,149.445571 87.7699997,148.421191 87.9874958,147.420657 C88.2049919,146.420123 88.2360628,145.379153 88.5415931,144.403503 C89.2489732,142.141156 91.5378608,140.478093 93.9044255,140.504014 C96.3745598,140.532008 98.1083145,138.065407 99.8607117,136.324582 C101.614145,134.581683 102.663304,131.954375 101.970424,129.581088 C101.596538,128.301649 100.74416,127.008731 101.170867,125.745881 C101.505396,124.756752 102.520378,124.182353 103.48254,123.777992 C106.147385,122.660297 109.059761,122.137739 111.946245,122.259047 C114.462986,122.364803 115.755534,120.783648 117.038761,118.614616 C117.966744,117.047977 118.378951,115.067646 119.856889,114.004903 C122.068099,112.414417 125.125473,113.818274 127.842103,113.635794 C131.806746,113.368293 134.904512,108.913067 133.777675,105.09756 C133.242221,103.28312 131.974529,101.79528 130.944012,100.208942 C129.524073,98.0233196 128.520484,95.5681237 128.003672,93.0133929 C127.529323,90.6660267 127.393647,88.081228 125.848389,86.252273 C123.431075,86.3663235 120.502128,86.2958196 118.350987,87.4072934 C117.927388,84.9438029 117.457182,82.3735198 115.937816,80.3890414 C114.418451,78.4045631 111.497789,77.2547268 109.346649,78.5258713 C107.245222,79.7679847 106.789516,82.6544987 107.178938,85.066148 C107.567324,87.4788341 108.565734,89.8127217 108.500485,92.2554757 C108.435237,94.6982296 106.739803,97.3970787 104.300739,97.3307221 C103.028905,97.296507 101.891711,96.5199269 100.99687,95.6147808 C99.71675,94.3197894 98.7028038,92.6629469 97.0570833,91.88533 C95.7956059,91.289157 94.3435605,91.3005621 92.9816206,90.9957362 C88.3417038,89.9537296 85.1590108,84.622388 86.4401664,80.0375586 C87.7223577,75.4527292 93.2063666,72.549626 97.7126787,74.0696079 C103.170795,72.0654299 105.394434,65.1736703 103.216366,59.7780457 C101.038298,54.3813843 95.1845455,51.0314106 89.3763638,50.7763522 C87.6757514,50.7006642 85.9440682,50.8510035 84.2942049,50.433164 C79.6325384,49.2522231 77.1924393,44.122025 73.1356191,41.5372264 C70.4676669,39.8368374 64.2990632,41.4646488 61.3400805,40.3448805" id="Fill-1" fill="#66C088"></path>
                <path d="M135.68068,23.4786294 C133.896622,26.2432627 135.895055,30.0110302 138.493329,32.0026541 C141.091602,33.995324 144.342278,35.1888339 146.397397,37.7526312 C149.699606,41.8739538 148.760682,47.9670258 146.951888,52.9513156 C145.143094,57.9356054 142.593261,62.9763804 143.213714,68.251464 C143.506419,70.7378558 144.506151,73.0976791 145.809926,75.2242397 C147.072474,77.2838549 148.793663,79.2671106 151.117783,79.8351 C154.071631,80.5579005 157.063613,78.7932631 159.303219,76.7095894 C161.542826,74.6259157 163.488696,72.1029131 166.215801,70.746224 C170.145676,68.7912108 175.199993,69.5192414 178.622787,66.75147 C182.858766,63.3257514 182.23213,56.7912585 183.396766,51.422033 C185.352944,42.4063784 193.038514,35.7474091 196.044925,27.0351006 C196.633427,25.3300865 197.037443,23.5392986 196.997248,21.7328204 C196.866355,15.8991616 192.025383,11.0498085 186.603124,9.10839359 C179.910071,6.7119596 173.148995,8.2150917 166.279701,7.89814735 C162.54565,7.72659992 158.419951,6.1230498 154.805455,7.66174662 C149.229628,10.0351682 150.866304,15.6156899 147.213674,18.9273922 C144.054726,21.7924436 138.221237,19.5445446 135.68068,23.4786294" id="Fill-3" fill="#66C088"></path>
                <g id="Group-7" transform="translate(182.000000, 23.000000)">
                    <mask id="mask-2" fill="white">
                        <use xlink:href="#path-1"></use>
                    </mask>
                    <g id="Clip-6"></g>
                    <path d="M104.411593,36.1972061 C101.186625,33.0679291 95.9182074,36.0955254 92.5683221,39.0919948 C89.2392566,42.0697883 85.910191,45.0486192 82.5800844,48.0264127 C80.0786008,50.2644268 77.3866172,52.5978962 74.0710844,53.150915 C70.7565926,53.7049714 66.7696254,51.6091028 66.6332566,48.2609009 C68.9015598,46.1328681 73.4204697,49.2953469 75.4909861,46.9764033 C77.3272811,44.9189244 74.6113549,41.976408 72.2191746,40.5995676 C67.8449615,38.0803751 63.3270926,35.5124174 58.3220434,34.833854 C53.3159533,34.1542531 47.6425926,35.8216099 45.0442975,40.1388915 C42.8197156,43.833638 43.2277811,48.6541357 41.0240189,52.3623704 C39.6457566,54.6823516 37.3732893,56.341408 35.80765,58.5410324 C34.2430516,60.7416944 33.5716172,64.0629197 35.489109,65.9658023 C37.0370516,67.5024268 39.6696992,67.5045019 41.2009861,69.0577272 C42.3793795,70.2529948 42.7822402,72.2492577 44.3281008,72.90707 C46.095691,73.6603376 48.0933385,71.9628915 48.5170189,70.0932108 C48.9396582,68.2245676 48.3452566,66.2988587 48.0381664,64.4073892 C47.1189779,58.7537319 49.965027,51.8031263 55.6550434,50.9948681 C56.950027,51.0436333 57.3789123,52.8894502 56.7990844,54.0442531 C56.2171746,55.1990559 55.0866664,55.9990136 54.474568,57.1382531 C53.3211582,59.284962 54.6598631,62.343685 57.0249779,62.9599948 C59.4879451,63.6032812 63.6050352,63.086577 63.2792074,65.6036944 C62.9346418,68.2774831 57.972273,66.526084 56.3660352,68.6956192 C55.4187402,69.9749291 56.255691,71.7574549 56.2338303,73.3480324 C56.190109,76.4565582 52.7475762,78.4818728 49.6371172,78.7018352 C46.5256172,78.9217977 43.4089123,78.0035582 40.3036582,78.2847366 C37.1973631,78.5669526 33.8141664,80.7603516 33.9567811,83.8657648 C29.6554369,85.8734408 25.1792074,87.5065582 20.5926336,88.7381404 C20.7883385,92.1039808 27.1570762,92.4173235 27.1320926,95.7883516 C27.1175189,97.8105535 24.6035434,98.8636756 22.5798713,98.7153047 C20.5561992,98.5658962 18.5137893,97.7638634 16.5515352,98.2805676 C13.1620926,99.1728681 11.9743303,103.923849 13.8501828,106.875704 C15.7281172,109.827558 19.5860025,110.998962 23.0816254,110.722971 C24.4817484,110.614028 25.9828467,110.241544 26.8583139,109.147957 C27.6963057,108.102098 27.7639697,106.664042 28.1158221,105.374356 C28.9028057,102.484755 31.3761828,100.117046 34.3044697,99.4509338 C35.9565107,99.0753376 37.9801828,99.0452484 38.8671008,97.6061545 C42.6448303,99.6439197 45.3035025,103.617769 45.7365516,107.879023 C46.9524205,109.441586 49.6600189,107.426647 49.394568,105.466699 C49.1301582,103.505713 47.3937975,102.144436 46.0124123,100.722981 C44.632068,99.3025629 43.4807402,97.0936005 44.5623221,95.4345441 C51.0205844,97.3260136 56.2411172,102.92053 57.6662238,109.475826 C59.9168303,109.029676 61.1597648,105.993779 59.8647811,104.104385 C60.5643221,102.538708 63.1293057,103.434122 63.8663221,104.982159 C64.6033385,106.529159 64.5367156,108.438267 65.591232,109.792281 C68.639232,113.708028 76.8026254,108.931108 79.2989041,113.216225 C81.0487975,116.222032 77.1055516,119.724831 73.6203385,119.617962 C70.1361664,119.511093 66.9559615,117.525206 63.4874041,117.180737 C59.6576254,116.799953 55.938191,118.44137 52.1167402,118.884408 C48.2942484,119.327446 43.5827566,117.840624 42.7780762,114.089849 C42.5605107,113.080305 42.6479533,111.969079 42.1118467,111.085079 C41.3488057,109.828596 39.6322238,109.538079 38.1686008,109.703051 C31.8113139,110.422079 25.3592975,116.959737 20.1075352,113.317906 C16.7514041,119.832737 8.54116639,122.281375 3.96083852,128.007662 C-1.02235,134.238201 -0.60387459,143.862596 4.23461721,150.205192 C9.07415,156.548826 17.6247893,159.545295 25.5570844,158.545089 C27.3725598,158.315788 29.2869287,157.91114 30.978527,158.607342 C32.6545107,159.297319 33.7277648,160.913835 35.1258057,162.064488 C36.5238467,163.214103 38.8441992,163.787873 40.001773,162.397544 C38.6755598,165.675192 39.043027,169.585751 40.9605189,172.559394 C43.0299943,175.770638 46.8868385,178.308507 46.8066828,182.124647 C46.7660844,184.099122 45.6147566,185.862971 45.0744861,187.764816 C42.605273,196.474084 52.9307893,203.580323 54.5620107,212.482577 C55.0013057,214.879338 55.0002648,217.765826 57.0312238,219.11984 C57.966027,219.742375 59.1381746,219.86792 60.2603549,219.941586 C66.0180352,220.31822 73.2684861,218.611436 74.4656172,212.984755 C74.8049779,211.39314 74.5624287,209.74446 74.6113549,208.118605 C74.7581336,203.257643 77.7405516,198.582403 82.096027,196.390042 C83.2775434,195.794483 84.576691,195.351446 85.5208631,194.425943 C87.5997074,192.388178 87.1385516,188.93207 86.0715434,186.228192 C85.0034943,183.523277 83.4503467,180.795535 83.8251008,177.913197 C84.4247074,173.285685 89.4089369,170.842234 93.1845844,168.084403 C98.8693959,163.931056 102.772043,157.433863 103.758896,150.47807 C98.5175434,152.11845 92.0988385,153.518117 88.1035434,149.759042 C86.7179943,148.455868 85.8664697,146.702394 85.0440926,144.989385 C82.5748795,139.848281 80.1067074,134.707178 77.6385352,129.566075 C77.3127074,128.887511 76.9806336,128.113492 77.2471254,127.410028 C77.970609,125.50092 80.8458057,127.093572 81.9554943,128.808657 C85.9133139,134.928178 89.468273,141.308126 92.5860189,147.892474 C98.9620434,146.737671 105.062207,144.093971 110.256716,140.234253 C111.915002,139.001633 113.561839,137.527262 114.121888,135.54345 C114.681937,133.559638 113.653445,131.015544 111.615199,130.661737 C110.827175,130.524779 110.024576,130.722953 109.229265,130.806995 C104.420961,131.308136 100.244535,127.656967 97.1018057,123.997497 C99.2545598,121.592436 103.17074,122.98484 106.110478,124.330554 C111.375773,126.74184 116.957527,128.469375 122.667322,129.456093 C124.091388,129.701995 125.552929,129.911582 126.83542,130.572507 C127.733789,131.035258 128.508281,131.702408 129.251543,132.386159 C135.839929,138.436164 140.713814,146.320572 143.171576,154.90637 C145.686593,155.468727 147.456265,152.379915 147.655093,149.818183 C147.85392,147.25645 147.552035,144.301483 149.402904,142.513769 C150.856117,141.107877 153.246216,140.914892 154.522461,139.34714 C156.12974,137.372666 155.288625,134.044178 157.167601,132.322868 C159.520224,130.165784 163.327101,132.803258 164.582527,135.735399 C165.837953,138.665464 166.294945,142.269943 168.939043,144.061807 C170.365191,143.857408 171.791339,143.651971 173.216445,143.447572 C173.238306,150.642004 175.743953,157.804272 180.212896,163.450666 C182.655043,162.178619 181.548478,158.478685 180.025519,156.190868 C178.501519,153.903051 177.002502,150.488446 179.16983,148.794112 C182.176191,148.823164 183.578396,152.95576 186.499396,153.662338 C189.404781,154.364765 192.000994,150.92007 191.476339,147.986892 C190.952724,145.052676 188.421052,142.894554 185.807142,141.447159 C183.462847,138.890615 186.847084,134.804708 190.274002,134.226788 C193.69988,133.648868 197.44638,134.621061 200.550593,133.06576 C204.27315,131.202305 205.516084,126.310215 204.669765,122.246098 C203.821363,118.181981 201.40524,114.653244 199.428412,111 C197.740978,107.880061 196.90715,103.011835 200.187289,101.639145 C201.06588,101.272887 202.048568,101.289488 202.998986,101.249023 C215.403347,100.726093 225.666404,87.6362531 223.178453,75.5123798 C222.70897,73.2276756 221.823093,70.9574972 220.186666,69.2922155 C217.23756,66.2926333 212.232511,65.588131 210.029789,62.007516 C207.335724,57.6279808 210.667912,51.8186897 214.981748,49.0058681 C219.295584,46.194084 224.566084,44.9728775 228.594691,41.7678587 C229.667945,41.7408822 230.243609,40.6919103 230.440355,39.6387883 C230.564232,38.9789009 230.399757,38.3003376 230.394552,37.6279995 C230.379978,35.7842577 231.700986,34.0079573 233.476904,33.4860653 C235.251781,32.9652108 237.329584,33.7444174 238.31956,35.3028305 C239.541675,37.2254268 239.049289,39.7622577 238.162371,41.8591638 C237.276494,43.95607 236.02315,45.9647836 235.793093,48.2276991 C235.563035,50.4916521 236.850732,53.1519526 239.117994,53.4061545 C241.891175,53.7174221 243.684789,50.4366615 243.86488,47.661192 C244.046011,44.8857225 243.503658,41.8560512 245.000593,39.5080559 C247.275142,35.9378164 253.560601,35.1015441 253.724035,30.8755676 C253.855199,27.4568117 249.539281,25.4501732 248.764789,22.1164972 C248.452494,20.7718211 248.761666,19.373192 248.888666,17.9984268 C249.364396,12.8697742 247.099216,7.5678493 243.059158,4.35556761 C239.021183,1.14328592 233.331166,0.120253052 228.418765,1.7212061 C226.819814,2.24309812 225.307265,3.02126714 223.678125,3.44770376 C221.275535,4.07750188 218.742822,3.91356761 216.263199,3.74444554 C211.826527,3.44251596 207.389855,3.13954883 202.953183,2.83761925 C198.982871,2.56681643 194.776257,2.34270376 191.253568,4.1874831 C186.106945,6.88409812 183.186986,13.6054033 177.414732,14.3026427 C173.344486,14.7944455 169.716658,11.9899244 165.903535,10.4854643 C159.736748,8.05342676 152.292675,9.19889155 147.150216,13.3698775 C145.216068,12.3873094 145.812552,9.51742207 145.131748,7.46409343 C144.420757,5.32049718 142.108732,4.0266615 139.85292,3.82952535 C137.596068,3.63342676 135.36524,4.31821549 133.212486,5.01960516 C128.574904,6.52925305 123.179486,9.10447371 122.750601,13.9488352 C122.629847,15.3121873 122.937978,16.7637319 122.361273,18.0056897 C121.539937,19.7747272 119.32056,20.3640606 117.940216,21.7429761 C116.292339,23.3885441 116.032093,25.9295254 115.964429,28.2536568 C115.895724,30.5767507 115.874904,33.0710418 114.525789,34.9676991 C113.176675,36.8643563 106.082371,37.8189103 104.411593,36.1972061" id="Fill-5" fill="#66C088" mask="url(#mask-2)"></path>
                </g>
                <path d="M373.876108,192.745655 C374.94117,194.316092 376.701423,195.23586 378.430594,195.981135 C380.521348,196.881982 383.063821,197.582056 384.9484,196.294381 C386.235177,195.413507 390.52547,189.390342 390.824889,188.082695 C391.400934,185.565159 390.572092,185.709168 388.095927,185.199354 C384.081224,184.374191 369.278108,185.96355 373.876108,192.745655" id="Fill-8" fill="#E36BBC"></path>
                <path d="M358.666229,191.939007 C364.530987,202.342803 376.54481,209.160895 388.722453,208.997113 C389.565862,208.155539 388.32083,206.87103 387.208967,206.413675 C384.135492,205.147708 380.82844,204.51627 377.677811,203.440868 C374.529295,202.365465 371.415657,200.738971 369.547052,198.043254 C368.767057,196.917378 368.235434,195.648321 367.592837,194.443129 C365.744312,190.972793 358.520377,182.223303 354,184.320544 C355.177391,186.732988 357.229897,189.390592 358.666229,191.939007" id="Fill-10" fill="#66C088"></path>
                <path d="M390.293593,215.866302 C388.783009,217.593691 387.370474,219.705177 385.165368,220.242703 C383.861097,220.561043 382.472054,220.260446 381.164719,220.56835 C377.326466,221.476403 376.434822,226.750421 377.308081,230.67697 C378.18134,234.604563 379.979947,238.724205 378.545964,242.475406 C378.25692,243.228986 377.837143,243.968997 377.850421,244.777896 C377.866763,245.749618 378.518387,246.601309 379.279297,247.18476 C382.783567,249.870303 387.760632,247.942515 391.613185,245.810154 C395.465737,243.677794 400.135374,241.372173 403.980777,243.517058 C408.09786,245.813286 408.485975,251.629004 411.022001,255.659928 C413.25162,259.204468 418.169446,261.327435 421.648182,259.066694 C422.82989,258.297458 423.706213,257.137863 424.557002,256.001231 C426.300456,253.673691 428.042888,251.346151 429.78532,249.019655 C432.090519,245.940622 434.47947,242.65806 434.922738,238.807704 C435.780676,231.373145 429.333881,225.401909 423.51522,220.851203 C423.20677,218.48087 422.872787,216.038519 421.690058,213.975045 C419.31847,209.840791 414.474182,209.401377 415.794794,215.257801 C412.000459,215.3914 408.930265,209.633087 404.709003,209.079905 C399.570564,208.404605 393.563973,212.125538 390.293593,215.866302" id="Fill-12" fill="#66C088"></path>
                <path d="M123,193 C123,193 122.797657,197.266485 122.521399,197.71918 C122.24514,198.17415 121.324895,198.060408 121.047713,197.492832 C120.771455,196.926394 121.785018,193.1854 121.785018,193.1854 L123,193 Z" id="Fill-14" fill="#27234C"></path>
                <path d="M129.700166,158 L131,165.796681 L130.000552,181.387942 L129.093871,193.073513 C129.027609,193.581673 129.274986,193.880899 128.747101,193.978541 C127.955273,194.12238 127.229707,193.523928 127.271673,192.757488 L127.651574,180.420969 L128.092214,169.120716 L125.214246,169.3286 L123.900055,182.719236 L122.239094,193.288746 L121,193.557525 L121.300387,182.053589 L122.600221,166.651313 L123.327996,161.600164 L126.07344,161.040558 L129.700166,158 Z" id="Fill-16" fill="#EAC1CE"></path>
                <path d="M128.908752,193.292502 L132,194.631404 L131.780028,194.928623 C130.918762,195.059777 130.567272,195.019205 129.764199,194.731421 L127.052374,193.762391 L127,193 L128.908752,193.292502 Z" id="Fill-18" fill="#27234C"></path>
                <path d="M125.777683,158.589736 L122.025134,163.972208 L120,177.965405 C120,177.965405 126.433098,179.942325 129.277228,178.430683 C132.122448,176.920065 131.999217,176.222148 131.999217,176.222148 L131.407053,164.157704 L128.246667,155.990736 C128.184506,154.945397 127.759195,153.412233 126.666474,153.206239 L126.271698,152 L123.407939,152.743011 L123.704566,152.743011 C122.862669,153.292326 123.441746,152.918259 123.210551,153.855989 L125.777683,158.589736 Z" id="Fill-20" fill="#27234C"></path>
                <polygon id="Fill-22" fill="#EAC1CE" points="124 150.455171 129 150 127.503692 155"></polygon>
                <path d="M122,145.002594 C122.002075,147.21185 123.794373,149.001037 126.00363,149 C128.212886,148.997925 130.002073,147.205627 129.999998,144.99637 C129.998961,142.787114 128.206663,140.997927 125.997406,141.000002 C123.78815,141.001039 121.998963,142.793337 122,145.002594" id="Fill-24" fill="#27234C"></path>
                <path d="M121.000001,141.501709 C121.00114,142.882433 122.120729,144.001138 123.502278,143.999999 C124.882687,143.99886 126.001138,142.879015 125.999999,141.498291 C125.99886,140.116428 124.879271,138.998862 123.497722,139.000001 C122.117313,139.00114 120.998862,140.120985 121.000001,141.501709" id="Fill-26" fill="#27234C"></path>
                <path d="M129.211478,150 C129.211478,150 136.48197,157.204913 136.579575,156.894 C136.678265,156.58194 140.017442,150.348773 140.017442,150.348773 L141,150.972893 L137.743244,159.22183 C137.482964,159.880368 136.758518,160.182102 136.14469,159.886104 L129,156.760916 L129.211478,150 Z" id="Fill-28" fill="#FDFEFE"></path>
                <path d="M126.496261,140.000002 C128.421181,139.997682 129.996795,141.707658 129.997863,143.796984 L129.999999,146.197215 C130.001068,148.287701 128.428658,149.998838 126.503739,149.999998 C124.578819,150.002318 123.003205,148.292342 123.002137,146.203016 L123.000001,143.802785 C122.998932,141.713459 124.57241,140.001162 126.496261,140.000002" id="Fill-30" fill="#EAC1CE"></path>
                <path d="M126.519986,141.000002 C124.58308,141.001008 122.998925,142.485319 123.000001,144.296461 L123.001076,146 C124.107726,145.550483 124.883134,144.520717 124.882058,143.320999 C124.882058,143.052495 124.830436,142.798071 124.75838,142.551691 C125.265998,142.886566 125.883313,143.086687 126.553325,143.086687 C127.550278,143.085681 128.427855,142.640186 129,141.958369 C128.361176,141.366052 127.484675,140.998996 126.519986,141.000002" id="Fill-32" fill="#27234C"></path>
                <path d="M130.506128,158.150709 L131.581488,156.658049 C132.081859,155.963404 132.137822,155.06512 131.726332,154.319824 L131.101965,153.188958 C130.164866,152.007441 130.130849,150.20674 129.031349,150 L121.812172,150.618151 L121.586127,150.76597 C121.025404,151.133967 120.665488,153.42981 121.464326,155.717384 C121.872524,156.888563 123.65016,158.899106 123.65016,158.899106 L121.723291,164.055191 C122.062358,164.468671 122.706477,164.932801 123.94753,164.983452 C125.885372,165.063047 130.163769,164.870779 131.549666,164.071731 L130.506128,158.150709 Z" id="Fill-34" fill="#FDFEFE"></path>
                <polygon id="Fill-36" fill="#FDFEFE" points="121.955691 151 117 159.653805 118.795583 168.8054 120.140289 169 119.871744 159.84733 124 153.90933"></polygon>
                <polygon id="Fill-38" fill="#E48F9B" points="116.348058 167 123 169.680178 121.831617 177 115 174.010133"></polygon>
                <path d="M120,169 C120,169.552356 119.552356,170 119,170 C118.447644,170 118,169.552356 118,169 C118,168.447644 118.447644,168 119,168 C119.552356,168 120,168.447644 120,169" id="Fill-40" fill="#EAC1CE"></path>
                <polygon id="Fill-42" fill="#27234C" points="141.802331 151 137 147.226252 137.197669 147 142 150.773748"></polygon>
                <path d="M142,150 C142,150.552356 141.552356,151 141,151 C140.447644,151 140,150.552356 140,150 C140,149.447644 140.447644,149 141,149 C141.552356,149 142,149.447644 142,150" id="Fill-44" fill="#EAC1CE"></path>
                <path d="M391,53 C391,53 391.202916,57.266187 391.478844,57.7204839 C391.754772,58.173613 392.675481,58.0603308 392.952357,57.4927515 C393.228285,56.9263402 392.215601,53.1856895 392.215601,53.1856895 L391,53 Z" id="Fill-46" fill="#27234C"></path>
                <path d="M383.531671,19 L382,24.9659283 L382.48113,40.7400056 L384.122048,52.1251552 C384.188259,52.6046692 383.945487,52.8876945 384.459722,52.9793213 C385.229971,53.1167617 385.936217,52.5507111 385.896491,51.8268587 L385.899801,41.0362659 L385.953873,29.5503268 L387.39616,29.6480621 L388.519532,42.3668919 L390.793864,52.3287705 L392,52.5822715 L391.70757,41.7173591 L391.564114,25.014796 L389.733392,22.3993574 L387.060693,21.8709757 L383.531671,19 Z" id="Fill-48" fill="#27234C"></path>
                <path d="M384.0908,53.2916465 L381,54.6316703 L381.221027,54.9281615 C382.081243,55.0599353 382.432497,55.0192404 383.235364,54.7324385 L385.947431,53.7615753 L386,53 L384.0908,53.2916465 Z" id="Fill-50" fill="#27234C"></path>
                <polygon id="Fill-52" fill="#EAC1CE" points="390 12.4556157 385 12 386.496921 17"></polygon>
                <path d="M392,7.00266276 C391.99787,9.21216563 390.205777,11.0010643 387.996274,10.9999995 C385.787836,10.9978699 383.997872,9.20577671 384.000002,6.99733866 C384.001067,4.78783579 385.794225,2.99787226 388.002663,3.0000019 C390.211101,3.00213154 392.001064,4.79422471 392,7.00266276" id="Fill-54" fill="#27234C"></path>
                <g id="Group-58" transform="translate(387.000000, 0.000000)">
                    <mask id="mask-4" fill="white">
                        <use xlink:href="#path-3"></use>
                    </mask>
                    <g id="Clip-57"></g>
                    <path d="M4.6945,3.0549 C4.6945,4.2359 3.7365,5.1919 2.5555,5.1909 C1.3745,5.1909 0.4185,4.2329 0.4195,3.0519 C0.4205,1.8709 1.3785,0.9149 2.5585,0.9149 C3.7395,0.9159 4.6955,1.8739 4.6945,3.0549" id="Fill-56" fill="#27234C" mask="url(#mask-4)"></path>
                </g>
                <path d="M384.806068,12 C384.806068,12 378.140948,17.7641616 378.051127,17.5153895 C377.961306,17.2656752 374.900251,12.2789262 374.900251,12.2789262 L374,12.7774127 L376.984504,19.3774107 C377.223346,19.905109 377.887817,20.1454002 378.450218,19.9088782 L385,17.4079652 L384.806068,12 Z" id="Fill-59" fill="#FDFEFE"></path>
                <path d="M387.503291,4.0000005 C385.578347,3.99904766 384.003293,5.36636526 384.001099,7.03763709 L384.000002,8.95759874 C383.997809,10.6298234 385.570669,11.9990467 387.495614,11.9999995 C389.420558,12.0009523 390.997806,10.6345876 390.998903,8.96236291 L390.999999,7.04240126 C391.001096,5.3701766 389.428236,4.00095333 387.503291,4.0000005" id="Fill-61" fill="#EAC1CE"></path>
                <path d="M387.479941,2.00000217 C389.41774,2.00103459 391.001104,3.4846185 390.999999,5.29651117 L390.998895,7 C389.892528,6.5508984 389.116304,5.52054576 389.117409,4.32087665 C389.117409,4.05348053 389.169304,3.79847341 389.242178,3.55172563 C388.733161,3.88726131 388.115936,4.0875503 387.44792,4.08651789 C386.448656,4.08651789 385.57085,3.63948112 385,2.95808559 C385.638204,2.36651037 386.514906,1.99896975 387.479941,2.00000217" id="Fill-63" fill="#27234C"></path>
                <path d="M382.493513,19.6069253 L381.418658,18.2141219 C380.918411,17.5652697 380.862077,16.7272103 381.273316,16.0317992 L381.897498,14.9767952 C382.836024,13.8732512 382.869825,12.1931697 383.969467,12 L391.189249,12.5765374 L391.415712,12.7152233 C391.974547,13.0579758 392.333958,15.200674 391.536267,17.3354473 C391.127281,18.4300758 389.350503,20.3062988 389.350503,20.3062988 L391.278257,25.1187019 C390.937999,25.5050414 390.294663,25.9379397 389.051932,25.9844986 C387.116291,26.0587946 382.837151,25.8804841 381.450205,25.1335611 L382.493513,19.6069253 Z" id="Fill-65" fill="#FDFEFE"></path>
                <polygon id="Fill-67" fill="#FDFEFE" points="392.045058 13 397 21.1726358 395.205233 29.8165093 393.859157 30 394.128779 21.3571691 390 15.7471483"></polygon>
                <polygon id="Fill-69" fill="#E48F9B" points="396.652567 29 390 31.1442431 391.168047 37 398 34.6088837"></polygon>
                <path d="M393,30.0004478 C393,30.552172 393.448029,31 394,31 C394.551971,31 395,30.552172 395,30.0004478 C395,29.447828 394.551971,29 394,29 C393.448029,29 393,29.447828 393,30.0004478" id="Fill-71" fill="#EAC1CE"></path>
                <polygon id="Fill-73" fill="#27234C" points="372.198217 12 377 8.22561823 376.801783 8 372 11.7732704"></polygon>
                <path d="M373,12 C373,12.5528674 373.447133,13 374,13 C374.551971,13 375,12.5528674 375,12 C375,11.4471326 374.551971,11 374,11 C373.447133,11 373,11.4471326 373,12" id="Fill-75" fill="#EAC1CE"></path>
                <path d="M304.558996,61 L303,74 L306.484508,73.8555556 C306.484508,73.8555556 308.662718,71.1296825 308.662718,70.6994444 C308.662718,70.2692063 310.863899,68.9970635 309.618164,67.4814286 C308.372429,65.9647619 304.558996,61 304.558996,61" id="Fill-77" fill="#27234C"></path>
                <path d="M307,57 L303.801069,57.6832396 C303.125177,58.0059389 302.670546,58.6376728 302.597893,59.3555999 L300,76.854943 L301.837239,77 L304.480264,62.9115993 L307,57 Z" id="Fill-79" fill="#27234C"></path>
                <path d="M304.781872,64 L304,70.8695666 L304.600707,83.7035043 L305.950443,94.2351865 C306.004475,94.6609177 306.333963,95.0039827 306.765159,95.0856157 C307.413541,95.2075484 308.006832,94.7043175 307.973989,94.0615873 L307.662511,83.7076376 L307.302299,74.2237503 L309.656392,74.3983828 L310.723256,84.6737996 L312.089943,98.8190309 C312.205423,99.4545278 312.742563,99.9350254 313.40154,99.9939252 C314.329616,100.076591 315.098775,99.3036618 314.989652,98.4015662 L313.78506,84.2356684 L313.039209,71.6207963 L311.198948,67.912181 L308.952918,67.4420166 L304.781872,64 Z" id="Fill-81" fill="#27234C"></path>
                <path d="M305.683842,59.6363125 C305.871898,58.4640529 306.993589,57.7371716 308.066841,58.0890505 C308.519886,58.2368397 311.900154,58.379602 311.900154,58.379602 L312.981004,60.4124568 L312.504215,62.1145455 L313,71.2362529 C313,71.2362529 308.973881,72.4125339 307.720171,71.8455061 C306.464561,71.277473 305,69.6990446 305,69.6990446 L305.596462,60.1842382 L305.683842,59.6363125 Z" id="Fill-83" fill="#FDFEFE"></path>
                <path d="M307.369869,94.2875285 L304,95.8613115 L304.454757,95.9408175 C305.191698,96.0693341 305.951959,95.9876498 306.637593,95.7044778 L308.954524,94.7504059 L309,94 L307.369869,94.2875285 Z" id="Fill-85" fill="#27234C"></path>
                <path d="M312,98.5651955 C312,98.5651955 312.266449,101.391173 312.532898,101.76797 C312.800391,102.143659 313.687509,102.050568 313.953958,101.579572 C314.220406,101.108576 313.243428,98 313.243428,98 L312,98.5651955 Z" id="Fill-87" fill="#27234C"></path>
                <path d="M306,57.3625678 C306.011218,57.2408595 306.198193,56.0563989 306.198193,56.0563989 C306.198193,56.0563989 309.450296,55.8957941 309.522593,56.1166258 C309.597382,56.3387121 310,60 310,60 C310,60 307.321284,59.9008767 307.20162,59.8607255 C307.081957,59.8193196 306.086008,59.306137 306.086008,59.306137 L306,57.3625678 Z" id="Fill-89" fill="#FDFEFE"></path>
                <polygon id="Fill-91" fill="#E48F9B" points="307 57 308 57.0861925 307.470024 58"></polygon>
                <polygon id="Fill-93" fill="#E48F9B" points="306 66.7236611 306.319736 68 307 66.8740123 306.976605 58 306.764847 58.06036"></polygon>
                <path d="M308.316113,50.0089527 C306.712305,49.8892083 305.292667,50.9848693 305.161117,52.4437549 L305.009835,54.120176 C304.878286,55.5790616 306.081964,56.8703051 307.684675,56.9910473 C309.288483,57.1107917 310.708122,56.0151307 310.839671,54.5562451 L310.989857,52.879824 C311.123599,51.4219363 309.918825,50.1296949 308.316113,50.0089527" id="Fill-95" fill="#EAC1CE"></path>
                <path d="M310.996973,52 C311.070319,50.9805464 309.802148,50.0904104 308.11283,50.006354 C307.328504,49.9668403 306.591498,50.1141186 306,50.3785013 C306.383291,50.6694658 307.47283,51.0150311 307.747284,51.1141746 C308.208653,51.2801321 308.683034,51.4310027 309.171611,51.5660677 C309.766658,51.7305884 310.380633,51.8685271 310.996973,52" id="Fill-97" fill="#27234C"></path>
                <path d="M311.762096,52.3083942 C311.805096,51.8385036 311.690096,51.3914234 311.467096,51 C311.369096,51.1560219 311.294096,51.3385036 311.262096,51.5018248 C311.198096,51.8211679 311.231096,52.1532847 311.325096,52.4671533 C311.377096,52.6395985 311.450096,52.8138686 311.589096,52.9406934 C311.620096,52.9680657 311.663096,52.9790146 311.700096,53 L311.762096,52.3083942 Z" id="Fill-99" fill="#27234C"></path>
                <path d="M311.813897,58 C311.082224,58.505991 295,69.6199344 295,69.6199344 L295.434627,71 L312.476781,61.6857971 L313,60.0070976 L311.813897,58 Z" id="Fill-101" fill="#27234C"></path>
                <path d="M310,58 L310.789175,76 L316,74.6930349 L313.667676,60.4500377 L313.372445,59.1618628 C313.030659,58.6044192 312.428842,58.2202633 311.739591,58.1221365 L310,58 Z" id="Fill-103" fill="#27234C"></path>
                <path d="M302,78 C302,78.5523581 301.552537,79 301.0004,79 C300.448262,79 300,78.5523581 300,78 C300,77.4476419 300.448262,77 301.0004,77 C301.552537,77 302,77.4476419 302,78" id="Fill-105" fill="#EAC1CE"></path>
                <path d="M296,71 C296,71.5524316 295.552432,72 295.00076,72 C294.447568,72 294,71.5524316 294,71 C294,70.4475684 294.447568,70 295.00076,70 C295.552432,70 296,70.4475684 296,71" id="Fill-107" fill="#EAC1CE"></path>
                <path d="M280.412893,64.5077303 L294.554608,73 L295,71.5599299 C295,71.5599299 281.839638,61.1872808 281.091636,60.6589098 L279.981353,60 L277.578583,60.0435129 L277,62.1632133 C277,62.1632133 277.533831,64.109898 277.711774,64.2394007 C277.889718,64.3689034 280.412893,64.5077303 280.412893,64.5077303" id="Fill-109" fill="#FDFEFE"></path>
                <path d="M279,59 L275.85388,59.2519476 C275.187247,59.5824941 274.527138,60.0842359 273.902916,60.9402115 L268,68.8076509 L274.855561,76 L275.536332,72.8528089 L270.997133,68.8076509 L276.217103,63.2335803 L279,59 Z" id="Fill-111" fill="#FDFEFE"></path>
                <path d="M282.687285,71.8102177 L284,72.8431023 L283.947581,84.9838117 L282.526681,95.3339848 C282.469801,95.7524198 282.122941,96.0896053 281.669011,96.1698392 C280.987559,96.2896822 280.361873,95.7950758 280.396447,95.1633608 L280.724347,84.9878741 L281.103551,75.6655074 L278.625342,75.837147 L277.502229,85.9364623 L276.0646,99.8392706 C275.941917,100.463876 275.376457,100.937155 274.683852,100.994029 C273.705729,101.075279 272.896017,100.315596 273.010893,99.4279449 L274.278996,85.5048242 L275.065286,73.1071632 L277.001457,69.461091 L279.365905,69 L282.687285,71.8102177 Z" id="Fill-113" fill="#27234C"></path>
                <path d="M282.211338,62.2198538 C282.014421,61.0449196 281.289408,59.7047289 280.166584,60.0574106 C279.692193,60.205537 276.151666,60.348625 276.151666,60.348625 L275.020885,62.386118 L275.519145,64.0910825 L275,73.2336019 C275,73.2336019 279.215813,74.4135743 280.530582,73.8452528 C281.843362,73.2759237 283,72.5272307 283,72.5272307 L282.585281,64.6180899 L282.211338,62.2198538 Z" id="Fill-115" fill="#FDFEFE"></path>
                <path d="M281.630916,95.2874547 L285,96.8608336 L284.544183,96.9403192 C283.807414,97.0698916 283.04733,96.9871395 282.361856,96.705129 L280.045465,95.7502132 L280,95 L281.630916,95.2874547 Z" id="Fill-117" fill="#27234C"></path>
                <path d="M275,100.565238 C275,100.565238 274.733551,103.390319 274.467102,103.767144 C274.200654,104.143969 273.312491,104.050871 273.046042,103.578732 C272.779594,103.1077 273.756572,100 273.756572,100 L275,100.565238 Z" id="Fill-119" fill="#27234C"></path>
                <path d="M281,58.3625678 C280.990028,58.2396047 280.801807,57.0563989 280.801807,57.0563989 C280.801807,57.0563989 277.549704,56.8957941 277.477407,57.1166258 C277.403864,57.3387121 277,61 277,61 C277,61 279.679963,60.9008767 279.79838,60.8594708 C279.918043,60.8193196 280.915238,60.306137 280.915238,60.306137 L281,58.3625678 Z" id="Fill-121" fill="#FDFEFE"></path>
                <polygon id="Fill-123" fill="#E48F9B" points="281 58 280 58.0861925 280.5304 59"></polygon>
                <polygon id="Fill-125" fill="#E48F9B" points="282 67.7236611 281.679856 69 281 67.8740123 281.023981 59 281.235612 59.06036"></polygon>
                <path d="M278.683804,52.0089527 C280.287652,51.8892083 281.707326,52.9848693 281.838879,54.4437549 L281.990164,56.1191782 C282.121717,57.5790616 280.918009,58.8703051 279.315257,58.9910473 C277.711409,59.1107917 276.291735,58.0151307 276.160182,56.5562451 L276.009993,54.879824 C275.877344,53.4209384 277.081052,52.1286971 278.683804,52.0089527" id="Fill-127" fill="#EAC1CE"></path>
                <path d="M276.003024,55 C275.929678,53.980535 277.199033,53.0903891 278.887169,53.0063317 C279.672678,52.9668176 280.408502,53.114816 281,53.3784831 C280.617892,53.6694509 279.52717,54.0150201 279.253898,54.1141647 C278.792529,54.2801241 278.316965,54.4309963 277.82957,54.5660628 C277.23334,54.7305854 276.619365,54.8685257 276.003024,55" id="Fill-129" fill="#27234C"></path>
                <path d="M276.237522,55.3087095 C276.194522,54.8390333 276.310522,54.3921569 276.532522,54 C276.630522,54.1559508 276.705522,54.3383493 276.738522,54.501596 C276.802522,54.8217054 276.768522,55.1536708 276.674522,55.4664843 C276.622522,55.6397629 276.549522,55.8139535 276.410522,55.9398085 C276.380522,55.9680803 276.336522,55.9781122 276.299522,56 L276.237522,55.3087095 Z" id="Fill-131" fill="#27234C"></path>
                <path d="M276,75 C276,75.5523581 275.552537,76 275.0004,76 C274.448262,76 274,75.5523581 274,75 C274,74.4476419 274.448262,74 275.0004,74 C275.552537,74 276,74.4476419 276,75" id="Fill-133" fill="#EAC1CE"></path>
                <path d="M294,71 C294,71.5524316 294.448158,72 294.99962,72 C295.552602,72 296,71.5524316 296,71 C296,70.4475684 295.552602,70 294.99962,70 C294.448158,70 294,70.4475684 294,71" id="Fill-135" fill="#EAC1CE"></path>
                <path d="M62.5598079,14 L61,27 L64.4850326,26.8555556 C64.4850326,26.8555556 66.662917,24.1296825 66.662917,23.6994444 C66.662917,23.2692063 68.8637704,21.9970635 67.618221,20.4814286 C66.3716276,18.9647619 62.5598079,14 62.5598079,14" id="Fill-137" fill="#27234C"></path>
                <path d="M65,11 L61.8010694,11.6832396 C61.1251769,12.0059389 60.6705457,12.6376728 60.5978928,13.3555999 L58,30.854943 L59.8372386,31 L62.4791634,16.9115993 L65,11 Z" id="Fill-139" fill="#27234C"></path>
                <path d="M62.7818598,16 L62,22.8695667 L62.6017566,35.7035044 L63.9504118,46.2351866 C64.0044427,46.6609178 64.3339257,47.0039828 64.7661734,47.0856158 C65.4134855,47.2075485 66.0067666,46.7043176 65.9739243,46.0615874 L65.6624517,35.7076377 L65.3022453,26.2237504 L67.6563001,26.3973495 L68.7242062,36.6737997 L70.0898123,50.819031 C70.2052902,51.4545279 70.7424215,51.9350256 71.4013874,51.9939253 C72.3294486,52.0765916 73.0996547,51.303662 72.9894739,50.400533 L71.7849013,36.2356684 L71.0390621,23.6207963 L69.1988311,19.912181 L66.9538976,19.4420166 L62.7818598,16 Z" id="Fill-141" fill="#27234C"></path>
                <path d="M63.6838419,13.6363125 C63.8718984,12.4640529 64.9926392,11.7371716 66.065891,12.0890505 C66.5189362,12.2368397 69.8992046,12.379602 69.8992046,12.379602 L70.9800546,14.4124568 L70.5032649,16.1145455 L71,25.2362529 C71,25.2362529 66.973881,26.4125339 65.7192212,25.8455061 C64.4645613,25.277473 63,23.6990446 63,23.6990446 L63.5964621,14.1842382 L63.6838419,13.6363125 Z" id="Fill-143" fill="#FDFEFE"></path>
                <path d="M65.3690837,47.2875285 L62,48.8613115 L62.4546514,48.9408175 C63.1914199,49.0693341 63.9526696,48.9876498 64.6381441,48.7044778 L66.9545349,47.7504059 L67,47 L65.3690837,47.2875285 Z" id="Fill-145" fill="#27234C"></path>
                <path d="M70,51.5651955 C70,51.5651955 70.2664543,54.3911733 70.5329086,54.7679703 C70.7993629,55.1436591 71.6875439,55.0505681 71.9539982,54.5795718 C72.2204525,54.1085755 71.2424085,51 71.2424085,51 L70,51.5651955 Z" id="Fill-147" fill="#27234C"></path>
                <path d="M64,10.3625678 C64.009972,10.2408595 64.1981926,9.05639895 64.1981926,9.05639895 C64.1981926,9.05639895 67.4490495,8.89579413 67.5225927,9.11662575 C67.5961359,9.3387121 68,13 68,13 C68,13 65.3200374,12.9008767 65.2003739,12.8607255 C65.081957,12.8193196 64.0847616,12.306137 64.0847616,12.306137 L64,10.3625678 Z" id="Fill-149" fill="#FDFEFE"></path>
                <polygon id="Fill-151" fill="#E48F9B" points="66 11 67 11.0861925 66.4696 12"></polygon>
                <polygon id="Fill-153" fill="#E48F9B" points="64 20.7236611 64.3203359 22 65 20.8740123 64.9760048 12 64.764847 12.06036"></polygon>
                <path d="M66.3156773,4.00895271 C64.7131764,3.88920834 63.2937244,4.98486932 63.1610961,6.44375488 L63.009834,8.12017604 C62.8783018,9.57906161 64.0818217,10.8703051 65.6843227,10.9910473 C67.2879197,11.1107917 68.7062756,10.0151307 68.8389039,8.55624512 L68.990166,6.87982396 C69.1216982,5.42193626 67.9181783,4.12969495 66.3156773,4.00895271" id="Fill-155" fill="#EAC1CE"></path>
                <path d="M68.9970678,6 C69.0692319,4.98054642 67.8010367,4.09041043 66.1128701,4.006354 C65.3273461,3.9668403 64.591509,4.11411865 64,4.37850125 C64.3821148,4.66946581 65.4716743,5.01503111 65.7461345,5.11417459 C66.2075115,5.28013215 66.6830847,5.43100266 67.1704881,5.56606768 C67.7655461,5.73058838 68.3795325,5.86852713 68.9970678,6" id="Fill-157" fill="#27234C"></path>
                <path d="M68.7626319,6.30839416 C68.8046319,5.83850365 68.6896319,5.39142336 68.4676319,5 C68.3696319,5.1560219 68.2946319,5.33850365 68.2616319,5.50182482 C68.1976319,5.82116788 68.2316319,6.15328467 68.3256319,6.46715328 C68.3776319,6.63959854 68.4506319,6.81386861 68.5896319,6.94069343 C68.6196319,6.96806569 68.6636319,6.9790146 68.7006319,7 L68.7626319,6.30839416 Z" id="Fill-159" fill="#27234C"></path>
                <path d="M70.8138282,12 C70.0821125,12.505991 54,23.6199344 54,23.6199344 L54.4346517,25 L71.4767502,15.6857971 L72,14.0070976 L70.8138282,12 Z" id="Fill-161" fill="#27234C"></path>
                <path d="M68,12 L68.7891749,30 L74,28.6930349 L71.6688115,14.4500377 L71.3724451,13.1618628 C71.0306586,12.6044192 70.4299773,12.2202633 69.7407267,12.1221365 L68,12 Z" id="Fill-163" fill="#27234C"></path>
                <path d="M61,32 C61,32.5523581 60.5517379,33 59.9996005,33 C59.447463,33 59,32.5523581 59,32 C59,31.4476419 59.447463,31 59.9996005,31 C60.5517379,31 61,31.4476419 61,32" id="Fill-165" fill="#EAC1CE"></path>
                <path d="M55,25 C55,25.5524316 54.5526016,26 54.0003798,26 C53.448158,26 53,25.5524316 53,25 C53,24.4475684 53.448158,24 54.0003798,24 C54.5526016,24 55,24.4475684 55,25" id="Fill-167" fill="#EAC1CE"></path>
                <path d="M39.4128929,17.5077303 L53.5556739,26 L54,24.5599299 C54,24.5599299 40.8385722,14.1872808 40.0905701,13.6589098 L38.9813532,13 L36.5785828,13.0435129 L36,15.1632133 C36,15.1632133 36.5338306,17.109898 36.7117741,17.2394007 C36.8897176,17.3689034 39.4128929,17.5077303 39.4128929,17.5077303" id="Fill-169" fill="#27234C"></path>
                <path d="M37,12 L33.8549679,12.2519476 C33.1883342,12.5824941 32.5271379,13.0842359 31.9029165,13.9402115 L26,21.8076509 L32.855561,29 L33.5374197,25.8528089 L28.997133,21.8076509 L34.2181908,16.2335803 L37,12 Z" id="Fill-171" fill="#27234C"></path>
                <path d="M40.6873077,25.8102177 L42,26.8431023 L41.9475815,38.9838117 L40.5267064,49.3339848 C40.4698268,49.7524198 40.1229726,50.0896053 39.6679357,50.1698392 C38.9864956,50.2896822 38.3619351,49.7950758 38.396509,49.1633608 L38.7244032,38.9878741 L39.1036007,29.6655074 L36.6254338,29.837147 L35.5023402,39.9364623 L34.0636205,53.8392706 C33.9420543,54.4638763 33.376604,54.9371547 32.6828957,54.9940294 C31.7059046,55.0752789 30.8950913,54.3155959 31.0110811,53.4279449 L32.2791619,39.5048242 L33.0643237,27.1071632 L35.0015765,23.4621066 L37.3659842,23 L40.6873077,25.8102177 Z" id="Fill-173" fill="#27234C"></path>
                <path d="M41.2112396,15.2198538 C41.0152928,14.0449196 40.2901902,12.7047289 39.1662315,13.0574106 C38.6917817,13.205537 35.151809,13.348625 35.151809,13.348625 L34.0198931,15.386118 L34.5192093,17.0910825 L34,26.2336019 C34,26.2336019 38.2163372,27.4135743 39.5302748,26.8452528 C40.8432177,26.2759237 42,25.5272307 42,25.5272307 L41.5852294,17.6180899 L41.2112396,15.2198538 Z" id="Fill-175" fill="#27234C"></path>
                <path d="M39.6301306,49.2874547 L43,50.8608336 L42.5452425,50.9403192 C41.8083022,51.0698916 41.046875,50.9871395 40.3612407,50.705129 L38.0454757,49.7502132 L38,49 L39.6301306,49.2874547 Z" id="Fill-177" fill="#27234C"></path>
                <path d="M33,53.5652379 C33,53.5652379 32.7335512,56.390319 32.4671025,56.7671442 C32.2006537,57.1439695 31.3124911,57.0508715 31.0460423,56.5787316 C30.7795936,56.1077 31.7565724,53 31.7565724,53 L33,53.5652379 Z" id="Fill-179" fill="#27234C"></path>
                <path d="M40,11.4117775 C39.9901991,11.2843735 39.8052067,10.0584358 39.8052067,10.0584358 C39.8052067,10.0584358 36.6101072,9.8920307 36.5378254,10.1208377 C36.4655436,10.3509448 36,12.8626221 36,12.8626221 C36,12.8626221 38.7026034,14.0417584 38.8189893,13.9988571 C38.9366003,13.9572558 39.9154671,13.4255394 39.9154671,13.4255394 L40,11.4117775 Z" id="Fill-181" fill="#FDFEFE"></path>
                <polygon id="Fill-183" fill="#E48F9B" points="39 12 38 12.0861925 38.5304 13"></polygon>
                <path d="M37.6844051,5.00895271 C39.2868662,4.88920834 40.7062829,5.98486932 40.8378118,7.44375488 L40.9901662,9.11917817 C41.1216952,10.5790616 39.9182052,11.8703051 38.3157441,11.9910473 C36.7121869,12.1107917 35.2927703,11.0151307 35.1612413,9.55624512 L35.009983,7.87982396 C34.877358,6.42093839 36.081944,5.12869708 37.6844051,5.00895271" id="Fill-185" fill="#EAC1CE"></path>
                <path d="M34.0030266,7 C33.9296809,5.98053504 35.1978522,5.0903891 36.8871699,5.00633174 C37.671496,4.96681759 38.4085022,5.11481603 39,5.37848315 C38.6178924,5.66945095 37.5283535,6.01502011 37.2538985,6.1141647 C36.7925302,6.28012411 36.316966,6.4309963 35.8283888,6.56606284 C35.234525,6.73058537 34.6205503,6.86852566 34.0030266,7" id="Fill-187" fill="#27234C"></path>
                <path d="M35.2375044,7.30870953 C35.1955044,6.83903329 35.3105044,6.39215686 35.5325044,6 C35.6305044,6.15595075 35.7055044,6.33834929 35.7375044,6.50159599 C35.8025044,6.82170543 35.7685044,7.15367077 35.6745044,7.46648427 C35.6225044,7.63976288 35.5485044,7.81395349 35.4095044,7.93980848 C35.3795044,7.96808026 35.3365044,7.97811218 35.2995044,8 L35.2375044,7.30870953 Z" id="Fill-189" fill="#27234C"></path>
                <path d="M34,27 C34,27.5523581 33.5517379,28 32.9996005,28 C32.447463,28 32,27.5523581 32,27 C32,26.4476419 32.447463,26 32.9996005,26 C33.5517379,26 34,26.4476419 34,27" id="Fill-191" fill="#EAC1CE"></path>
                <path d="M53,24 C53,24.5524316 53.4475684,25 54,25 C54.5524316,25 55,24.5524316 55,24 C55,23.4475684 54.5524316,23 54,23 C53.4475684,23 53,23.4475684 53,24" id="Fill-193" fill="#EAC1CE"></path>
                <polygon id="Fill-195" fill="#FDFEFE" points="36 13.3233391 39.7023636 21 40 17.0353982 39.6229939 13"></polygon>
                <polygon id="Fill-197" fill="#E48F9B" points="40 21.7236611 39.6796641 23 39 21.8740123 39.0239952 13 39.235153 13.06036"></polygon>
                <path d="M61,124 C61,124 60.797657,128.267193 60.5213986,128.719963 C60.2451403,129.173872 59.3239713,129.06011 59.047713,128.493578 C58.7714547,127.927046 59.7850178,124.185431 59.7850178,124.185431 L61,124 Z" id="Fill-199" fill="#27234C"></path>
                <path d="M67.7001657,89 L69,96.7958021 L67.9994478,112.388456 L67.0938708,124.073235 C67.0265047,124.581405 67.2749862,124.881688 66.747101,124.978283 C65.9552733,125.123174 65.2297073,124.523659 65.2705687,123.758253 L65.6515737,111.421462 L66.0911099,100.119911 L63.2142463,100.328849 L61.9000552,113.71978 L60.2390944,124.289522 L59,124.558307 L59.3003865,113.054118 L60.6002209,97.6515029 L61.3279956,92.5991932 L64.0734401,92.0406253 L67.7001657,89 Z" id="Fill-201" fill="#27234C"></path>
                <path d="M65.9083081,124.291595 L69,125.631611 L68.7789155,125.927924 C67.9178497,126.060038 67.5664417,126.01946 66.7647196,125.73164 L64.0535257,124.761544 L64,124 L65.9083081,124.291595 Z" id="Fill-203" fill="#27234C"></path>
                <path d="M58,74.4994301 C58,75.8796444 59.1192159,77 60.4994301,77 C61.8807841,77 63,75.8796444 63,74.4994301 C63,73.1192159 61.8807841,72 60.4994301,72 C59.1192159,72 58,73.1192159 58,74.4994301" id="Fill-205" fill="#27234C"></path>
                <path d="M64.7139191,81.052596 C64.7139191,81.052596 65.1844817,84.5690612 64.9185947,84.9226438 C64.6536641,85.2772454 63.3653555,84.3102429 63.3357062,84.0891264 C63.2046756,83.1363895 63,80 63,80 L64.7139191,81.052596 Z" id="Fill-207" fill="#EAC1CE"></path>
                <path d="M61.1098899,79.1880162 C61.552589,81.0832448 63.2054614,82.3112904 64.8022714,81.9308792 C66.3981148,81.5504679 67.3328093,79.7069362 66.8901101,77.8117077 C66.4464444,75.9164791 64.793572,74.6894088 63.1977286,75.0688447 C61.6018852,75.449256 60.6671907,77.2937631 61.1098899,79.1880162" id="Fill-209" fill="#EAC1CE"></path>
                <path d="M64.980414,82.688604 C64.980414,82.688604 64.9036279,85.155937 64.5931449,84.950737 C64.2848876,84.7445504 62.970621,82.9628617 62.970621,82.9628617 L60.1818384,86.1641795 L61.3670154,91.8624265 L59,95.3162982 C63.9621634,98.9605718 69,95.554054 69,95.554054 L67.9116403,90.852211 C67.801469,90.3806455 67.8693523,89.8893493 68.1030492,89.4532992 L68.5448475,88.630526 C68.767416,88.2161798 68.837525,87.7485605 68.7429335,87.2957393 L68.315602,85.2496582 L68.4302248,82 L64.980414,82.688604 Z" id="Fill-211" fill="#FDFEFE"></path>
                <path d="M62.944437,75.6967805 C63.8813658,75.5919715 64.8194099,75.4871624 65.7563386,75.3823533 C66.1545333,75.323902 66.6018053,75.2674664 67,75.2090152 C66.3865348,74.5902384 65.5923761,74.0359596 64.674409,74.001695 C63.7274418,73.9664227 62.873052,74.4874449 62.1324321,75.0225759 C61.8747767,75.2080074 61.6115443,75.4075478 61.4721204,75.6776327 C61.3471966,75.9184921 61.0192715,76.3619152 61.0081176,76.6259535 C60.957925,77.7768379 61.1185414,79.1393561 62.1145858,80 C62.1837401,79.6634016 62.5161267,79.0889671 62.3978952,78.7634543 C62.2941639,78.476237 61.6806986,78.2132065 61.6293906,77.9159115 C61.5780826,77.6176087 61.6985449,77.2608547 62.0108544,77.1550378 C62.3120101,77.0532521 62.7124356,77.7415656 62.9555909,77.932036 C63.0582069,77.3102359 62.9466678,76.687428 62.944437,75.6967805" id="Fill-213" fill="#27234C"></path>
                <path d="M67.012438,77.1143361 C67.0733973,77.6631491 67.3404871,78.0564651 67.6100906,77.9933516 C67.8790657,77.9302381 68.0481178,77.434477 67.987787,76.8856639 C67.9268277,76.3368509 67.6591095,75.9435349 67.3895059,76.0066484 C67.1205308,76.0697619 66.9514787,76.565523 67.012438,77.1143361 Z" id="Stroke-215" stroke="#0F1E51" stroke-width="0.25"></path>
                <path d="M64.012436,77.1143361 C64.0733936,77.6631491 64.3404756,78.0564651 64.6100714,77.9933516 C64.8796671,77.9302381 65.0480859,77.434477 64.9877568,76.8856639 C64.9267993,76.3368509 64.6590888,75.9435349 64.3901215,76.0066484 C64.1205257,76.0697619 63.9514785,76.565523 64.012436,77.1143361 Z" id="Stroke-217" stroke="#0F1E51" stroke-width="0.25"></path>
                <path d="M74.7405482,68 L72.3433913,75.7828206 L68.2189397,81.3265915 L68,85 L74.1647834,77.2751751 C74.1647834,77.2751751 76.1790287,69.5990253 75.9871071,69.2790131 C75.7951855,68.9590009 74.7405482,68 74.7405482,68" id="Fill-219" fill="#FDFEFE"></path>
                <path d="M62.8656143,85.9063835 L62.3529579,85 L61.1235779,86.4099299 L57.3319113,93.2542496 L56,99.3936043 C56,99.3936043 57.4344425,100.29901 57.5369738,99.8971507 C57.6395051,99.4943136 58.7663538,95.6693167 59.6891354,93.9582367 C60.6109215,92.2471568 63,88.9540613 63,88.9540613 L62.8656143,85.9063835 Z" id="Fill-221" fill="#FDFEFE"></path>
                <path d="M75,67.9995585 C75,68.5514349 75.4476821,69 76.0004415,69 C76.5523179,69 77,68.5514349 77,67.9995585 C77,67.4476821 76.5523179,67 76.0004415,67 C75.4476821,67 75,67.4476821 75,67.9995585" id="Fill-223" fill="#EAC1CE"></path>
                <path d="M55,101.000442 C55,101.552318 55.4476821,102 56.0004415,102 C56.5523179,102 57,101.552318 57,101.000442 C57,100.448565 56.5523179,100 56.0004415,100 C55.4476821,100 55,100.448565 55,101.000442" id="Fill-225" fill="#EAC1CE"></path>
                <path d="M320,120 C320,123.313201 317.313433,126 314.000518,126 C310.686567,126 308,123.313201 308,120 C308,116.685764 310.686567,114 314.000518,114 C317.313433,114 320,116.685764 320,120" id="Fill-227" fill="#1848D3"></path>
                <path d="M411,228.000518 C411,231.313433 408.313433,234 405.000518,234 C401.686567,234 399,231.313433 399,228.000518 C399,224.686567 401.686567,222 405.000518,222 C408.313433,222 411,224.686567 411,228.000518" id="Fill-229" fill="#1848D3"></path>
                <path d="M380,98 C380,101.314236 377.313433,104 373.999482,104 C370.686567,104 368,101.314236 368,98 C368,94.6857636 370.686567,92 373.999482,92 C377.313433,92 380,94.6857636 380,98" id="Fill-231" fill="#1848D3"></path>
                <path d="M181,40 C181,43.3142364 178.313433,46 174.999482,46 C171.685532,46 169,43.3142364 169,40 C169,36.6857636 171.685532,34 174.999482,34 C178.313433,34 181,36.6857636 181,40" id="Fill-233" fill="#1848D3"></path>
                <path d="M52,54.9994824 C52,58.3134328 49.3134328,61 46.0005176,61 C42.6865672,61 40,58.3134328 40,54.9994824 C40,51.6855319 42.6865672,49 46.0005176,49 C49.3134328,49 52,51.6855319 52,54.9994824" id="Fill-235" fill="#1848D3"></path>
                <path d="M138,212.000518 C138,215.313433 135.313433,218 132.000518,218 C128.686567,218 126,215.313433 126,212.000518 C126,208.686567 128.686567,206 132.000518,206 C135.313433,206 138,208.686567 138,212.000518" id="Fill-237" fill="#1848D3"></path>
                <path d="M91,118 C91,121.314236 88.3134328,124 85.0005176,124 C81.6865672,124 79,121.314236 79,118 C79,114.685764 81.6865672,112 85.0005176,112 C88.3134328,112 91,114.685764 91,118" id="Fill-239" fill="#1848D3"></path>
                <path d="M228,163.999482 C228,167.313433 225.313433,170 221.999482,170 C218.686567,170 216,167.313433 216,163.999482 C216,160.686567 218.686567,158 221.999482,158 C225.313433,158 228,160.686567 228,163.999482" id="Fill-241" fill="#1848D3"></path>
                <path d="M45.021,53 C45.338,52.6640693 45.657,52.3307359 45.979,52" id="Stroke-243" stroke="#FFFFFF"></path>
                <path d="M48,50 C80.7168843,13.7859731 135.99785,8.56015155 175,38.2380384" id="Stroke-245" stroke="#FFFFFF" stroke-dasharray="2.979,2.979"></path>
                <path d="M176,39.1690265 C176.364821,39.4433628 176.72778,39.720354 177.088879,40 C177.088879,40 177.411819,39.6106195 178,39" id="Stroke-247" stroke="#FFFFFF"></path>
                <path d="M181,37.4244178 C191.741402,27.7385029 224.941328,9.27171478 221.790052,155" id="Stroke-249" stroke="#FFFFFF" stroke-dasharray="3.019,3.019"></path>
                <path d="M220.5175,157 C220.5065,157.332 220.4955,157.665333 220.4825,158" id="Stroke-251" stroke="#FFFFFF"></path>
                <path d="M314,119.764 C313.667379,119.583 313.333333,119.407 313,119.236" id="Stroke-253" stroke="#FFFFFF"></path>
                <path d="M310,118.335289 C274.867079,107.324089 236.834363,124.351451 222,158" id="Stroke-255" stroke="#FFFFFF" stroke-dasharray="3.033,3.033"></path>
                <path d="M220.779,161 C220.589,161.33094 220.403,161.664034 220.221,162" id="Stroke-257" stroke="#FFFFFF"></path>
                <path d="M369,96.7585 C368.667614,96.5765 368.334517,96.4045 368,96.2415" id="Stroke-259" stroke="#FFFFFF"></path>
                <path d="M366,95.4421734 C346.432165,90.1916269 325.720911,99.6318677 317,118" id="Stroke-261" stroke="#FFFFFF" stroke-dasharray="2.895,2.895"></path>
                <path d="M315.784,119 C315.587,119.329734 315.397,119.662347 315.216,120" id="Stroke-263" stroke="#FFFFFF"></path>
                <path d="M219.853,162 C219.621,161.664399 219.385,161.331066 219.147,161" id="Stroke-265" stroke="#FFFFFF"></path>
                <path d="M218,157 C191.339886,111.559889 133.789954,94.0809425 86,117.162631" id="Stroke-267" stroke="#FFFFFF" stroke-dasharray="2.953,2.953"></path>
                <path d="M84,118.1565 C83.6664168,118.3815 83.3328336,118.6105 83,118.8435" id="Stroke-269" stroke="#FFFFFF"></path>
                <path d="M199,165.706411 C199,165.706411 199.266493,169.238466 199.532986,169.7098 C199.79948,170.179954 200.688088,170.063006 200.953689,169.473543 C201.221074,168.884079 200.243338,165 200.243338,165 L199,165.706411 Z" id="Fill-271" fill="#27234C"></path>
                <path d="M188.924618,130 L188,138.021846 L188.711081,153.005834 L190.30514,165.302499 C190.370269,165.799428 190.758907,166.200674 191.269263,166.295327 C192.034795,166.437307 192.736267,165.85087 192.696762,165.099818 L192.32841,153.010978 L191.90347,141.937601 L194.684798,142.141311 L195.946806,154.139613 L197.561152,165.62041 C197.697816,166.363231 198.33309,166.924976 199.111435,166.992879 C200.207952,167.08959 201.11869,166.187299 200.987364,165.132741 L199.564135,153.626223 L199.791553,134.686355 L196.508411,134.567009 L193.854137,134.019668 L188.924618,130 Z" id="Fill-273" fill="#27234C"></path>
                <path d="M191.368463,166.28789 L188,167.861072 L188.454365,167.940009 C189.191092,168.070024 189.95168,167.987372 190.637701,167.705054 L192.954265,166.750372 L193,166 L191.368463,166.28789 Z" id="Fill-275" fill="#27234C"></path>
                <path d="M190.822026,122 L189.491164,122.686019 C188.164721,123.369949 187.225939,124.571787 186.922215,125.970972 L186,130.234311 L191.288104,132 L193,127.587345 L190.822026,122 Z" id="Fill-277" fill="#27234C"></path>
                <path d="M207,144.258234 L200.931125,125.306336 C200.416605,123.700582 199.062283,122.536305 197.436893,122.30345 L195.330738,122 L191.153208,122.148564 L189.48281,124.340144 L189,136.426497 C189,136.426497 189.964596,139.738101 193.983577,139.572679 C198.002557,139.407256 200.413536,134.936644 200.413536,134.936644 L200.384895,133.872463 C202.433767,138.35888 205.559755,145 205.559755,145 L207,144.258234 Z" id="Fill-279" fill="#27234C"></path>
                <polygon id="Fill-281" fill="#FDFEFE" points="194 124.084085 192.876742 131 192 123.859859 192.355841 123.150134 193.31547 123"></polygon>
                <path d="M209,146 C209,147.104575 208.103561,148 206.999347,148 C205.895132,148 205,147.104575 205,146 C205,144.894118 205.895132,144 206.999347,144 C208.103561,144 209,144.894118 209,146" id="Fill-283" fill="#EAC1CE"></path>
                <path d="M190.079518,122.929518 L190,121.329777 L191.728916,121 L194.457831,121.081474 L195,122.747171 L192.727711,125 C192.727711,125 192.190361,123.927902 192.074699,123.927902 C191.960241,123.927902 190.614458,124.959909 190.614458,124.959909 L190.079518,122.929518 Z" id="Fill-285" fill="#FDFEFE"></path>
                <polygon id="Fill-287" fill="#27234C" points="192.052676 122.743972 192.746656 122 193.279264 122.642233 192.852843 124.062351 194 132.817275 192.879599 134 192 132.985781 192.505853 123.926698"></polygon>
                <polygon id="Fill-289" fill="#E48F9B" points="186 127 193.018313 127.604626 194 137 187.403264 136.242604"></polygon>
                <path d="M187,133 C187,133.553019 186.552721,134 186,134 C185.448129,134 185,133.553019 185,133 C185,132.447717 185.448129,132 186,132 C186.552721,132 187,132.447717 187,133" id="Fill-291" fill="#EAC1CE"></path>
                <path d="M195.994848,117.838882 C196.098758,120.046061 194.618285,121.907572 192.688524,121.996682 C190.757774,122.085792 189.109065,120.369206 189.005155,118.162027 C188.901245,115.954848 190.380728,114.093336 192.311479,114.003247 C194.242229,113.915117 195.890938,115.631703 195.994848,117.838882" id="Fill-293" fill="#EAC1CE"></path>
                <path d="M189,115.406522 C190.238773,116.095695 192.134721,116.214945 193.815991,115.603982 C194.269441,115.439045 194.656079,115.227647 195,114.994568 C194.24644,114.356502 193.189485,113.963906 192.028478,114.002624 C190.745893,114.044439 189.651698,114.5981 189,115.406522" id="Fill-295" fill="#27234C"></path>
                <path d="M194.358282,115 C193.7229,116.30167 193.921881,117.990605 195.041149,119.349687 C195.243522,119.596033 195.474159,119.805846 195.71384,120 C195.918474,119.448852 196.027009,118.847599 195.994222,118.213987 C195.927519,116.888309 195.288744,115.743215 194.358282,115" id="Fill-297" fill="#27234C"></path>
                <path d="M131.2915,212 C131.4255,211.665278 131.5645,211.33125 131.7085,211" id="Stroke-299" stroke="#FFFFFF"></path>
                <path d="M133,208 C145.16427,173.57902 181.805924,153.574052 218,161.870206" id="Stroke-301" stroke="#FFFFFF" stroke-dasharray="3.026,3.026"></path>
                <path d="M219,162.645872 C219.390461,162.758716 219.78173,162.877064 220.171382,163 C220.171382,163 220.4519,162.63578 221,162" id="Stroke-303" stroke="#FFFFFF"></path>
                <path d="M224,159.763159 C239.901992,145.142904 312.011862,91.8928111 404,226" id="Stroke-305" stroke="#FFFFFF" stroke-dasharray="2.977,2.977"></path>
                <path d="M405.0815,227 C405.3595,227.331727 405.6395,227.66506 405.9185,228" id="Stroke-307" stroke="#FFFFFF"></path>
                <polygon id="Fill-309" fill="#23A2F8" points="115 189.001063 105.034904 195 95 188.998937 104.965096 183"></polygon>
                <polygon id="Fill-311" fill="#058DD8" points="116 189 115.966119 201.115786 106 207 106.033881 194.885257"></polygon>
                <polygon id="Fill-313" fill="#2161EC" points="106 194.886661 105.962989 207 95 201.114382 95.0370106 189"></polygon>
                <polygon id="Fill-315" fill="#FCD67A" points="369 58.001595 359.034904 64 349 57.9994683 358.965096 52"></polygon>
                <polygon id="Fill-317" fill="#ECB329" points="368 58 367.966119 70.1157858 358 76 358.033881 63.8842142"></polygon>
                <polygon id="Fill-319" fill="#C35C3A" points="359 63.8863202 358.962989 76 348 70.1136798 348.037011 58"></polygon>
                <polygon id="Fill-321" fill="#FCD67A" points="245 172.001063 235.034392 178 225 171.998937 234.964581 166"></polygon>
                <polygon id="Fill-323" fill="#ECB329" points="244 172 243.966119 184.115786 234 190 234.033881 177.885257"></polygon>
                <polygon id="Fill-325" fill="#C35C3A" points="235 177.886661 234.962989 190 224 184.114382 224.038132 172"></polygon>
                <polygon id="Fill-327" fill="#FCD67A" points="429 233.001063 419.035419 239 409 232.998937 418.965608 227"></polygon>
                <polygon id="Fill-329" fill="#ECB329" points="429 233 428.967142 245.115786 419 251 419.033884 238.885257"></polygon>
                <polygon id="Fill-331" fill="#C35C3A" points="419 238.886661 418.962993 251 408 245.114382 408.038128 233"></polygon>
                <polygon id="Fill-333" fill="#FCD67A" points="113 176.001595 103.034904 182 93 175.998405 102.965096 170"></polygon>
                <polygon id="Fill-335" fill="#ECB329" points="113 176 112.966119 188.114743 103 194 103.033881 181.884214"></polygon>
                <polygon id="Fill-337" fill="#C35C3A" points="104 181.88632 103.962989 194 93 188.114723 93.0370106 176"></polygon>
                <polygon id="Fill-339" fill="#23A2F8" points="355 67.001595 345.034904 73 335 66.9994683 344.965096 61"></polygon>
                <polygon id="Fill-341" fill="#058DD8" points="355 67 354.966119 79.1157858 345 85 345.033881 72.8842142"></polygon>
                <polygon id="Fill-343" fill="#2161EC" points="346 72.8863202 345.962989 85 335 79.1136798 335.037011 67"></polygon>
                <polygon id="Fill-345" fill="#23A2F8" points="101 88.0010635 91.0343925 94 81 87.9989365 90.9645809 82"></polygon>
                <polygon id="Fill-347" fill="#058DD8" points="101 88 100.966119 100.115786 91 106 91.0338809 93.8842142"></polygon>
                <polygon id="Fill-349" fill="#2161EC" points="92 93.8863202 91.9629894 106 81 100.11368 81.0370106 88"></polygon>
                <path d="M414,222.706354 C414,222.706354 413.733171,226.238123 413.467223,226.709803 C413.201275,227.180317 412.312726,227.062397 412.045898,226.473963 C411.779949,225.88553 412.75656,222 412.75656,222 L414,222.706354 Z" id="Fill-351" fill="#27234C"></path>
                <path d="M424.075778,187 L425,195.238854 L424.288898,210.627446 L422.69472,223.256179 C422.630362,223.7668 422.242104,224.178221 421.730406,224.275333 C420.965496,224.422567 420.264944,223.819011 420.303981,223.047336 L420.671137,210.632668 L421.097377,199.259081 L418.315215,199.467924 L417.054432,211.790702 L415.439153,223.583018 C415.304107,224.345295 414.668968,224.921702 413.890343,224.992708 C412.793093,225.091909 411.882586,224.164646 412.012357,223.081795 L413.436672,211.264417 L413.208781,191.811741 L416.493146,191.690613 L419.146593,191.126737 L424.075778,187 Z" id="Fill-353" fill="#27234C"></path>
                <path d="M421.630969,223.287356 L425,224.86093 L424.545097,224.940802 C423.808214,225.069332 423.046768,224.987624 422.361957,224.704858 L420.045196,223.750064 L420,223 L421.630969,223.287356 Z" id="Fill-355" fill="#27234C"></path>
                <path d="M423.177608,179 L424.508186,179.686275 C425.834399,180.369453 426.774209,181.571723 427.076563,182.972136 L428,187.235294 L422.710432,189 L421,184.588235 L423.177608,179 Z" id="Fill-357" fill="#27234C"></path>
                <path d="M406,201.258636 L412.406245,182.305944 C412.949346,180.700349 414.379121,179.53624 416.093783,179.303001 L418.317403,179 L422.727298,179.148898 L424.489976,181.339671 L425,193.427453 C425,193.427453 423.982086,196.737562 419.739709,196.572004 C415.497333,196.406447 412.953614,191.936394 412.953614,191.936394 L412.982423,190.871203 C410.820688,195.358957 407.521536,202 407.521536,202 L406,201.258636 Z" id="Fill-359" fill="#27234C"></path>
                <polygon id="Fill-361" fill="#FDFEFE" points="421 180.083815 422.123588 187 423 179.860308 422.644068 179.149326 421.685028 179"></polygon>
                <path d="M405,203 C405,204.103938 405.894771,205 407,205 C408.103938,205 409,204.103938 409,203 C409,201.896062 408.103938,201 407,201 C405.894771,201 405,201.896062 405,203" id="Fill-363" fill="#EAC1CE"></path>
                <path d="M422.92141,178.929712 L423,177.329712 L421.271017,177 L418.542986,177.083067 L418,178.746965 L420.27197,181 C420.27197,181 420.810193,179.927796 420.925697,179.927796 C421.0412,179.927796 422.385568,180.959105 422.385568,180.959105 L422.92141,178.929712 Z" id="Fill-365" fill="#FDFEFE"></path>
                <polygon id="Fill-367" fill="#27234C" points="422.947086 180.74365 422.253411 180 421.720132 180.642053 422.146755 182.06232 421 190.816444 422.120298 192 423 190.986122 422.493179 181.927206"></polygon>
                <polygon id="Fill-369" fill="#E48F9B" points="429 184 421.982888 184.605996 421 194 427.596578 193.241973"></polygon>
                <path d="M427,190 C427,190.552 427.447899,191 427.99916,191 C428.552101,191 429,190.552 429,190 C429,189.448 428.552101,189 427.99916,189 C427.447899,189 427,189.448 427,190" id="Fill-371" fill="#EAC1CE"></path>
                <path d="M418.00513,174.838357 C417.901478,177.04571 419.380961,178.907589 421.311231,178.996619 C423.241502,179.086616 424.890152,177.368926 424.994782,175.161573 C425.099411,172.95422 423.617973,171.093308 421.68868,171.00331 C419.75841,170.914281 418.108782,172.631971 418.00513,174.838357" id="Fill-373" fill="#EAC1CE"></path>
                <path d="M425,172.406182 C423.759517,173.09537 421.865235,173.215462 420.183114,172.60353 C419.730651,172.439073 419.343135,172.227192 419,171.994658 C419.7523,171.356719 420.80985,170.964318 421.970233,171.002564 C423.254014,171.045399 424.347285,171.597667 425,172.406182" id="Fill-375" fill="#27234C"></path>
                <path d="M419.641559,171 C420.277069,172.302105 420.078263,173.991127 418.95914,175.351011 C418.755866,175.597606 418.525787,175.806026 418.286773,176 C418.082382,175.44903 417.974044,174.847503 418.005317,174.213991 C418.073447,172.888155 418.711191,171.742881 419.641559,171" id="Fill-377" fill="#27234C"></path>
                <polygon id="Fill-379" fill="#FCD67A" points="111 16.0004971 104.024689 20 97 15.9995029 103.975311 12"></polygon>
                <polygon id="Fill-381" fill="#ECB329" points="111 16 110.976821 24.7501219 104 29 104.024187 20.2498781"></polygon>
                <polygon id="Fill-383" fill="#C35C3A" points="104 20.2505891 103.97698 29 97 24.7483546 97.0230197 16"></polygon>
                <polygon id="Fill-385" fill="#FCD67A" points="317 139.000994 310.024183 143 303 138.999006 309.974809 135"></polygon>
                <polygon id="Fill-387" fill="#ECB329" points="317 139 316.975813 147.750122 310 152 310.023179 143.248822"></polygon>
                <polygon id="Fill-389" fill="#C35C3A" points="310 143.250589 309.97698 152 303 147.749411 303.02302 139"></polygon>
            </g>
        </g>
    </g>
</svg>