<?xml version="1.0" encoding="UTF-8"?>
<svg width="4px" height="16px" viewBox="0 0 4 16" version="1.1" xmlns="http://www.w3.org/2000/svg" xmlns:xlink="http://www.w3.org/1999/xlink">
    <!-- Generator: Sketch 53 (72520) - https://sketchapp.com -->
    <title>options</title>
    <desc>Created with Sketch.</desc>
    <g id="Mobile" stroke="none" stroke-width="1" fill="none" fill-rule="evenodd">
        <g id="33_Ready" transform="translate(-270.000000, -384.000000)" fill="#000000" fill-rule="nonzero">
            <g id="options" transform="translate(270.000000, 384.000000)">
                <path d="M1.95185185,3.90740741 C3.02962963,3.90740741 3.9037037,3.02962963 3.9037037,1.95555556 C3.9037037,0.881481481 3.02962963,-1.24344979e-14 1.95185185,-1.24344979e-14 C0.874074074,-1.24344979e-14 -7.67830244e-13,0.877777778 -7.67830244e-13,1.95185185 C-7.67830244e-13,3.02592593 0.877777778,3.90740741 1.95185185,3.90740741 Z M1.95185185,0.907407407 C2.52962963,0.907407407 2.9962963,1.37777778 2.9962963,1.95185185 C2.9962963,2.52592593 2.52592593,2.9962963 1.95185185,2.9962963 C1.37777778,2.9962963 0.907407407,2.52592593 0.907407407,1.95185185 C0.907407407,1.37777778 1.37777778,0.907407407 1.95185185,0.907407407 Z" id="Shape"></path>
                <path d="M1.95185185,9.93703704 C3.02962963,9.93703704 3.9037037,9.05925926 3.9037037,7.98518519 C3.9037037,6.91111111 3.02962963,6.03333333 1.95185185,6.03333333 C0.874074074,6.03333333 -7.67830244e-13,6.90740741 -7.67830244e-13,7.98518519 C-7.67830244e-13,9.06296296 0.877777778,9.93703704 1.95185185,9.93703704 Z M1.95185185,6.94074074 C2.52962963,6.94074074 2.9962963,7.41111111 2.9962963,7.98518519 C2.9962963,8.55925926 2.52592593,9.02962963 1.95185185,9.02962963 C1.37777778,9.02962963 0.907407407,8.56296296 0.907407407,7.98518519 C0.907407407,7.40740741 1.37777778,6.94074074 1.95185185,6.94074074 Z" id="Shape"></path>
                <path d="M1.95185185,15.9703704 C3.02962963,15.9703704 3.9037037,15.0925926 3.9037037,14.0185185 C3.9037037,12.9407407 3.02592593,12.0666667 1.95185185,12.0666667 C0.877777778,12.0666667 -7.67830244e-13,12.9444444 -7.67830244e-13,14.0185185 C-7.67830244e-13,15.0925926 0.877777778,15.9703704 1.95185185,15.9703704 Z M1.95185185,12.9703704 C2.52962963,12.9703704 2.9962963,13.4407407 2.9962963,14.0148148 C2.9962963,14.5925926 2.52592593,15.0592593 1.95185185,15.0592593 C1.37777778,15.0592593 0.907407407,14.5888889 0.907407407,14.0148148 C0.907407407,13.4407407 1.37777778,12.9703704 1.95185185,12.9703704 Z" id="Shape"></path>
            </g>
        </g>
    </g>
</svg>