<?xml version="1.0" encoding="UTF-8"?>
<svg width="20px" height="20px" viewBox="0 0 20 20" version="1.1" xmlns="http://www.w3.org/2000/svg" xmlns:xlink="http://www.w3.org/1999/xlink">
    <!-- Generator: Sketch 53 (72520) - https://sketchapp.com -->
    <title>plus</title>
    <desc>Created with Sketch.</desc>
    <g id="Web" stroke="none" stroke-width="1" fill="none" fill-rule="evenodd">
        <g id="27_Checkout_D" transform="translate(-551.000000, -574.000000)" fill="#EFF5F2" fill-rule="nonzero">
            <g id="plus" transform="translate(511.000000, 564.000000)">
                <path d="M58.9146098,18.6046029 L51.3953157,18.6046029 L51.3953157,11.0852682 C51.3953157,10.7427317 50.9301834,10 49.9999593,10 C49.0697353,10 48.6046029,10.7427723 48.6046029,11.0852682 L48.6046029,18.6046436 L41.0852682,18.6046436 C40.7427723,18.6046029 40,19.0697353 40,19.9999187 C40,20.9301021 40.7427723,21.3952751 41.0852682,21.3952751 L48.6046436,21.3952751 L48.6046436,28.9146505 C48.6046436,29.2571057 49.0697353,29.9999187 50,29.9999187 C50.9302647,29.9999187 51.3953564,29.2571057 51.3953564,28.9146505 L51.3953564,21.3952751 L58.9147318,21.3952751 C59.257187,21.3952751 60,20.9301834 60,19.9999187 C60,19.069654 59.2571057,18.6046029 58.9146098,18.6046029 Z"></path>
            </g>
        </g>
    </g>
</svg>