<?xml version="1.0" encoding="utf-8"?>
<!-- Generator: Adobe Illustrator 16.0.0, SVG Export Plug-In . SVG Version: 6.00 Build 0)  -->
<!DOCTYPE svg PUBLIC "-//W3C//DTD SVG 1.1//EN" "http://www.w3.org/Graphics/SVG/1.1/DTD/svg11.dtd">
<svg version="1.1" id="Layer_1" xmlns="http://www.w3.org/2000/svg" xmlns:xlink="http://www.w3.org/1999/xlink" x="0px" y="0px"
	 width="20px" height="20px" viewBox="0 0 20 20" enable-background="new 0 0 20 20" xml:space="preserve">
<title>plus</title>
<desc>Created with Sketch.</desc>
<g id="Web">
	<g id="_x32_7_x5F_Checkout_x5F_D" transform="translate(-551.000000, -574.000000)">
		<g id="plus" transform="translate(511.000000, 564.000000)">
			<path fill="#66C088" d="M58.914,18.604h-7.519v-7.519C51.396,10.743,50.93,10,50,10c-0.93,0-1.396,0.743-1.396,1.085v7.519
				h-7.519C40.743,18.604,40,19.07,40,20c0,0.93,0.743,1.396,1.085,1.396h7.519v7.519C48.604,29.257,49.07,30,50,30
				c0.93,0,1.396-0.743,1.396-1.086v-7.519h7.519C59.258,21.396,60,20.93,60,20C60,19.07,59.258,18.604,58.914,18.604z"/>
		</g>
	</g>
</g>
</svg>
