<?xml version="1.0" encoding="UTF-8"?>
<svg width="24px" height="28px" viewBox="0 0 24 28" version="1.1" xmlns="http://www.w3.org/2000/svg" xmlns:xlink="http://www.w3.org/1999/xlink">
    <!-- Generator: Sketch 53 (72520) - https://sketchapp.com -->
    <title>avatar</title>
    <desc>Created with Sketch.</desc>
    <g id="Web" stroke="none" stroke-width="1" fill="none" fill-rule="evenodd">
        <g id="11_Main_Option_D" transform="translate(-1213.000000, -33.000000)" fill="#000000" fill-rule="nonzero">
            <g id="avatar" transform="translate(1213.000000, 33.000000)">
                <path d="M12.7490327,15.084058 C12.7825999,15.084058 12.8161671,15.084058 12.8564478,15.084058 C12.8698747,15.084058 12.8833016,15.084058 12.8967285,15.084058 C12.9168688,15.084058 12.9437226,15.084058 12.9638629,15.084058 C14.9309024,15.0550725 16.5219889,14.457971 17.6968418,13.315942 C20.2815182,10.8 19.8518577,6.48695652 19.8048636,6.07536232 C19.6370274,2.98550725 17.9452392,1.50724638 16.5488426,0.817391304 C15.5082586,0.301449275 14.2931251,0.0231884058 12.9370091,0 L12.890015,0 C12.8833016,0 12.8698747,0 12.8631612,0 L12.8228806,0 C12.0776882,0 10.6141571,0.104347826 9.21104706,0.794202899 C7.80122357,1.48405797 6.08258161,2.96231884 5.91474548,6.07536232 C5.86775136,6.48695652 5.43809087,10.8 8.02276727,13.315942 C9.19090673,14.457971 10.7819932,15.0550725 12.7490327,15.084058 Z M7.70723534,6.22028986 C7.70723534,6.20289855 7.71394879,6.18550725 7.71394879,6.17391304 C7.93549248,2.0173913 11.3526361,1.57101449 12.8161671,1.57101449 L12.8430209,1.57101449 C12.8564478,1.57101449 12.8765881,1.57101449 12.8967285,1.57101449 C14.7093587,1.6057971 17.79083,2.24347826 17.9989468,6.17391304 C17.9989468,6.19130435 17.9989468,6.20869565 18.0056603,6.22028986 C18.0123737,6.26086957 18.4823149,10.2028986 16.3474393,12.2782609 C15.5015452,13.1014493 14.3736864,13.5072464 12.890015,13.5188406 C12.8765881,13.5188406 12.8698747,13.5188406 12.8564478,13.5188406 L12.8564478,13.5188406 C12.8430209,13.5188406 12.8363075,13.5188406 12.8228806,13.5188406 C11.3459226,13.5072464 10.2113504,13.1014493 9.37216975,12.2782609 C7.24400762,10.2144928 7.7005219,6.25507246 7.70723534,6.22028986 Z" id="Shape"></path>
                <path d="M23.8144928,22.2376812 C23.8144928,22.2318841 23.8144928,22.226087 23.8144928,22.2202899 C23.8144928,22.173913 23.8086957,22.1275362 23.8086957,22.0753623 C23.773913,20.9275362 23.6985507,18.2434783 21.1826087,17.3855072 C21.1652174,17.3797101 21.142029,17.373913 21.1246377,17.3681159 C18.5101449,16.7014493 16.3362319,15.1942029 16.3130435,15.1768116 C15.9594203,14.9275362 15.4724638,15.0144928 15.2231884,15.3681159 C14.973913,15.7217391 15.0608696,16.2086957 15.4144928,16.457971 C15.5130435,16.5275362 17.8202899,18.1333333 20.7072464,18.8753623 C22.057971,19.3565217 22.2086957,20.8 22.2492754,22.1217391 C22.2492754,22.173913 22.2492754,22.2202899 22.2550725,22.2666667 C22.2608696,22.7884058 22.226087,23.5942029 22.1333333,24.057971 C21.1942029,24.5913043 17.5130435,26.4347826 11.9130435,26.4347826 C6.33623188,26.4347826 2.63188406,24.5855072 1.68695652,24.0521739 C1.5942029,23.5884058 1.55362319,22.7826087 1.56521739,22.2608696 C1.56521739,22.2144928 1.57101449,22.1681159 1.57101449,22.115942 C1.6115942,20.7942029 1.76231884,19.3507246 3.11304348,18.8695652 C6,18.1275362 8.30724638,16.515942 8.4057971,16.4521739 C8.75942029,16.2028986 8.84637681,15.715942 8.59710145,15.3623188 C8.34782609,15.0086957 7.86086957,14.9217391 7.50724638,15.1710145 C7.48405797,15.1884058 5.32173913,16.6956522 2.69565217,17.3623188 C2.67246377,17.3681159 2.65507246,17.373913 2.63768116,17.3797101 C0.12173913,18.2434783 0.0463768116,20.9275362 0.0115942029,22.0695652 C0.0115942029,22.1217391 0.0115942029,22.1681159 0.00579710145,22.2144928 C0.00579710145,22.2202899 0.00579710145,22.226087 0.00579710145,22.2318841 C0,22.5333333 -0.00579710145,24.0811594 0.301449275,24.857971 C0.35942029,25.0086957 0.463768116,25.1362319 0.602898551,25.2231884 C0.776811594,25.3391304 4.94492754,27.9942029 11.9188406,27.9942029 C18.8927536,27.9942029 23.0608696,25.3333333 23.2347826,25.2231884 C23.3681159,25.1362319 23.4782609,25.0086957 23.5362319,24.857971 C23.826087,24.0869565 23.8202899,22.5391304 23.8144928,22.2376812 Z" id="Path"></path>
            </g>
        </g>
    </g>
</svg>