<?xml version="1.0" encoding="UTF-8"?>
<svg width="10px" height="10px" viewBox="0 0 10 10" version="1.1" xmlns="http://www.w3.org/2000/svg" xmlns:xlink="http://www.w3.org/1999/xlink">
    <!-- Generator: Sketch 53 (72520) - https://sketchapp.com -->
    <title>Path</title>
    <desc>Created with Sketch.</desc>
    <g id="Web" stroke="none" stroke-width="1" fill="none" fill-rule="evenodd">
        <g id="16_Account_Confirm_D" transform="translate(-365.000000, -531.000000)" fill="#DE6362" fill-rule="nonzero">
            <g id="Group-14" transform="translate(354.000000, 520.000000)">
                <path d="M16.8843885,15.9998958 L20.8167643,12.06752 C21.0610786,11.8234141 21.0610786,11.4273415 20.8167643,11.1832357 C20.57245,10.9389214 20.1767943,10.9389214 19.93248,11.1832357 L16.0001042,15.1156115 L12.06752,11.1832357 C11.8232057,10.9389214 11.42755,10.9389214 11.1832357,11.1832357 C10.9389214,11.4273415 10.9389214,11.8234141 11.1832357,12.06752 L15.11582,15.9998958 L11.1832357,19.9322716 C10.9389214,20.1763774 10.9389214,20.57245 11.1832357,20.8165558 C11.3053928,20.9385045 11.4654896,20.9995831 11.6253778,20.9995831 C11.7852661,20.9995831 11.9453628,20.9385045 12.06752,20.8163474 L16.0001042,16.8839716 L19.93248,20.8163474 C20.0546372,20.9385045 20.2147339,20.9995831 20.3746222,20.9995831 C20.5345104,20.9995831 20.6946072,20.9385045 20.8167643,20.8163474 C21.0610786,20.5722416 21.0610786,20.1761689 20.8167643,19.9320631 L16.8843885,15.9998958 Z" id="Path"></path>
            </g>
        </g>
    </g>
</svg>