<?xml version="1.0" encoding="utf-8"?>
<!-- Generator: Adobe Illustrator 16.0.0, SVG Export Plug-In . SVG Version: 6.00 Build 0)  -->
<!DOCTYPE svg PUBLIC "-//W3C//DTD SVG 1.1//EN" "http://www.w3.org/Graphics/SVG/1.1/DTD/svg11.dtd">
<svg version="1.1" id="Layer_1" xmlns="http://www.w3.org/2000/svg" xmlns:xlink="http://www.w3.org/1999/xlink" x="0px" y="0px"
	 width="10px" height="10px" viewBox="0 0 10 10" enable-background="new 0 0 10 10" xml:space="preserve">
<title>Path</title>
<desc>Created with Sketch.</desc>
<g id="Web">
	<g id="_x31_6_x5F_Account_x5F_Confirm_x5F_D" transform="translate(-365.000000, -531.000000)">
		<g id="Group-14" transform="translate(354.000000, 520.000000)">
			<path id="Path" fill="#82817E" d="M16.885,16l3.932-3.933c0.244-0.244,0.244-0.64,0-0.884s-0.64-0.244-0.884,0L16,15.116
				l-3.933-3.933c-0.244-0.244-0.64-0.244-0.884,0c-0.244,0.244-0.244,0.64,0,0.884L15.116,16l-3.933,3.932
				c-0.244,0.244-0.244,0.641,0,0.885C11.305,20.938,11.465,21,11.625,21c0.16,0,0.32-0.062,0.442-0.184L16,16.884l3.933,3.933
				C20.055,20.938,20.215,21,20.375,21s0.32-0.062,0.441-0.184c0.244-0.244,0.244-0.641,0-0.885L16.885,16z"/>
		</g>
	</g>
</g>
</svg>
