<?xml version="1.0" encoding="UTF-8"?>
<svg width="26px" height="26px" viewBox="0 0 26 26" version="1.1" xmlns="http://www.w3.org/2000/svg" xmlns:xlink="http://www.w3.org/1999/xlink">
    <!-- Generator: Sketch 53 (72520) - https://sketchapp.com -->
    <title>Shape</title>
    <desc>Created with Sketch.</desc>
    <g id="Mobile" stroke="none" stroke-width="1" fill="none" fill-rule="evenodd">
        <g id="16_Account_Confirm" transform="translate(-35.000000, -1277.000000)" fill="#FFFFFF" fill-rule="nonzero">
            <g id="Group-12" transform="translate(0.000000, 1259.000000)">
                <g id="Group-5" transform="translate(35.000000, 18.000000)">
                    <path d="M25.645836,13.6534417 L24.126836,11.2574417 L25.027836,8.56844166 C25.149836,8.20144166 24.997836,7.79844166 24.662836,7.60644166 L22.204836,6.18944166 L21.752836,3.38944166 C21.689836,3.00744166 21.367836,2.72244166 20.981836,2.70644166 L18.146836,2.59544166 L16.445836,0.325441657 C16.213836,0.0154416571 15.793836,-0.0875583429 15.446836,0.0794416571 L12.885836,1.29744166 L10.323836,0.0784416571 C9.97583603,-0.0865583429 9.55783603,0.0164416571 9.32483603,0.325441657 L7.62383603,2.59544166 L4.78883603,2.70644166 C4.40383603,2.72144166 4.08083603,3.00644166 4.01883603,3.38844166 L3.56683603,6.18844166 L1.10883603,7.60544166 C0.77383603,7.79744166 0.62083603,8.20044166 0.74283603,8.56744166 L1.64383603,11.2564417 L0.12583603,13.6534417 C-0.0811639702,13.9804417 -0.0281639702,14.4074417 0.25083603,14.6754417 L2.29783603,16.6384417 L2.06783603,19.4644417 C2.03683603,19.8514417 2.28083603,20.2044417 2.65183603,20.3124417 L5.37683603,21.0974417 L6.48583603,23.7084417 C6.63783603,24.0634417 7.01883603,24.2694417 7.39683603,24.1874417 L10.176836,23.6174417 L12.370836,25.4144417 C12.519836,25.5354417 12.702836,25.5984417 12.885836,25.5984417 C13.068836,25.5984417 13.250836,25.5354417 13.400836,25.4144417 L15.594836,23.6174417 L18.374836,24.1874417 C18.751836,24.2674417 19.134836,24.0644417 19.285836,23.7084417 L20.394836,21.0974417 L23.119836,20.3124417 C23.490836,20.2054417 23.734836,19.8514417 23.703836,19.4644417 L23.473836,16.6384417 L25.520836,14.6754417 C25.799836,14.4074417 25.852836,13.9804417 25.645836,13.6534417 Z M18.762836,9.74244166 L13.071836,18.2684417 C12.856836,18.5864417 12.523836,18.7994417 12.192836,18.7994417 C11.862836,18.7994417 11.493836,18.6144417 11.258836,18.3784417 L7.08083603,14.1334417 C6.79583603,13.8434417 6.79583603,13.3734417 7.08083603,13.0834417 L8.11183603,12.0334417 C8.39683603,11.7474417 8.85983603,11.7474417 9.14283603,12.0334417 L11.861836,14.7954417 L16.345836,8.07744166 C16.570836,7.73844166 17.027836,7.65244166 17.359836,7.88144166 L18.568836,8.71244166 C18.901836,8.94244166 18.987836,9.40544166 18.762836,9.74244166 Z" id="Shape"></path>
                </g>
            </g>
        </g>
    </g>
</svg>