<?xml version="1.0" encoding="UTF-8"?>
<svg width="24px" height="22px" viewBox="0 0 24 22" version="1.1" xmlns="http://www.w3.org/2000/svg" xmlns:xlink="http://www.w3.org/1999/xlink">
    <!-- Generator: Sketch 53 (72520) - https://sketchapp.com -->
    <title>Send</title>
    <desc>Created with Sketch.</desc>
    <defs>
        <path d="M36.4933761,15.4728281 C36.3894492,15.3832912 36.2415505,15.3625181 36.1161961,15.419627 L13.4672481,25.7562721 C13.3453137,25.8119413 13.2667927,25.9314381 13.265327,26.063481 C13.2638612,26.1955239 13.3397998,26.3166661 13.4605476,26.374872 L19.870165,29.4646494 C19.9877022,29.521347 20.1278535,29.5085266 20.2328274,29.4314673 L26.464743,24.8563096 L21.5724306,29.7993502 C21.5026342,29.8698965 21.467038,29.9664949 21.4747156,30.064533 L21.961825,36.2957121 C21.9726435,36.4337881 22.0668687,36.5518452 22.2008081,36.5951054 C22.2366137,36.6066231 22.2733964,36.6122449 22.3097603,36.6122449 C22.4094995,36.6122449 22.5065165,36.5702188 22.5740097,36.4934337 L25.9760282,32.6211339 L30.1816133,34.5949222 C30.2729071,34.637771 30.3785789,34.6395535 30.4713384,34.5999269 C30.5640979,34.5602318 30.6347319,34.4830353 30.6650235,34.388288 L36.5961863,15.8332381 C36.6376454,15.7036633 36.5972332,15.562365 36.4933761,15.4728281 Z" id="path-1"></path>
    </defs>
    <g id="Web" stroke="none" stroke-width="1" fill="none" fill-rule="evenodd">
        <g id="17_Account_Chat_D" transform="translate(-1286.000000, -931.000000)">
            <g id="Send-Button" transform="translate(1273.000000, 916.000000)">
                <mask id="mask-2" fill="white">
                    <use xlink:href="#path-1"></use>
                </mask>
                <use id="Send" fill="#FFFFFF" fill-rule="nonzero" xlink:href="#path-1"></use>
            </g>
        </g>
    </g>
</svg>