<?xml version="1.0" encoding="UTF-8"?>
<svg width="16px" height="16px" viewBox="0 0 16 16" version="1.1" xmlns="http://www.w3.org/2000/svg" xmlns:xlink="http://www.w3.org/1999/xlink">
    <!-- Generator: Sketch 53 (72520) - https://sketchapp.com -->
    <title>Star</title>
    <desc>Created with Sketch.</desc>
    <g id="Web" stroke="none" stroke-width="1" fill="none" fill-rule="evenodd">
        <g id="01_Main_D" transform="translate(-955.000000, -703.000000)" fill="#66C088" fill-rule="nonzero">
            <g id="Group-15" transform="translate(739.000000, 685.000000)">
                <g id="Group-9" transform="translate(206.000000, 10.000000)">
                    <path d="M18.8204339,9.33536336 L20.4977572,12.7340601 C20.6143974,12.9704427 20.8399224,13.1342353 21.1008118,13.1720813 L24.8516007,13.7171261 C25.5086324,13.8126718 25.7707627,14.6198467 25.2955159,15.0829952 L22.5814598,17.7284941 C22.3928502,17.9124506 22.3066109,18.1776829 22.3512816,18.4373315 L22.991872,22.1729199 C23.1041692,22.8271597 22.417357,23.3259827 21.829813,23.0173204 L18.4751665,21.2537579 C18.2418862,21.1312236 17.9630044,21.1312236 17.729724,21.2537579 L14.3750775,23.0173204 C13.7875335,23.3262929 13.1007213,22.8271597 13.2130185,22.1729199 L13.853609,18.4373315 C13.8982797,18.1776829 13.8120404,17.9124506 13.6234307,17.7284941 L10.9093747,15.0829952 C10.4341279,14.6195365 10.6962581,13.8123615 11.3532899,13.7171261 L15.1040787,13.1720813 C15.3649681,13.1342353 15.5904932,12.9704427 15.7071334,12.7340601 L17.3844566,9.33536336 C17.6779184,8.74006406 18.526662,8.74006406 18.8204339,9.33536336 Z" id="Star"></path>
                </g>
            </g>
        </g>
    </g>
</svg>