<?xml version="1.0" encoding="UTF-8"?>
<svg width="44px" height="42px" viewBox="0 0 44 42" version="1.1" xmlns="http://www.w3.org/2000/svg" xmlns:xlink="http://www.w3.org/1999/xlink">
    <!-- Generator: Sketch 53 (72520) - https://sketchapp.com -->
    <title>Path Copy 3</title>
    <desc>Created with Sketch.</desc>
    <g id="Web" stroke="none" stroke-width="1" fill="none" fill-rule="evenodd">
        <g id="15_OrderHistory_OrderDetail_Review_D" transform="translate(-750.000000, -614.000000)" fill="#FFFFFF" fill-rule="nonzero" stroke="#EFF5F2">
            <g id="Group-32" transform="translate(400.000000, 280.000000)">
                <g id="Group-30-Copy" transform="translate(40.000000, 301.000000)">
                    <g id="Group-34" transform="translate(156.000000, 34.000000)">
                        <path d="M178.027731,1.26092565 L182.764799,10.8594675 C183.094213,11.5270551 183.731137,11.9896354 184.467936,12.0965195 L195.06085,13.6358256 C196.916428,13.9056642 197.656732,16.1852741 196.314548,17.49329 L188.649557,24.9646633 C188.116889,25.48419 187.873333,26.2332548 187.999492,26.9665497 L189.808636,37.5165353 C190.125784,39.3642283 188.186101,40.7729957 186.526769,39.9012771 L177.052633,34.9206536 C176.393807,34.5745944 175.606193,34.5745944 174.947367,34.9206536 L165.473231,39.9012771 C163.813899,40.7738718 161.874216,39.3642283 162.191364,37.5165353 L164.000508,26.9665497 C164.126667,26.2332548 163.883111,25.48419 163.350443,24.9646633 L155.685452,17.49329 C154.343268,16.184398 155.083572,13.9047881 156.93915,13.6358256 L167.532064,12.0965195 C168.268863,11.9896354 168.905787,11.5270551 169.235201,10.8594675 L173.972269,1.26092565 C174.801058,-0.42030855 177.198066,-0.42030855 178.027731,1.26092565 Z" id="Path-Copy-3"></path>
                    </g>
                </g>
            </g>
        </g>
    </g>
</svg>