<?xml version="1.0" encoding="utf-8"?>
<!-- Generator: Adobe Illustrator 16.0.0, SVG Export Plug-In . SVG Version: 6.00 Build 0)  -->
<!DOCTYPE svg PUBLIC "-//W3C//DTD SVG 1.1//EN" "http://www.w3.org/Graphics/SVG/1.1/DTD/svg11.dtd">
<svg version="1.1" id="Layer_1" xmlns="http://www.w3.org/2000/svg" xmlns:xlink="http://www.w3.org/1999/xlink" x="0px" y="0px"
	 width="44px" height="42px" viewBox="0 0 44 42" enable-background="new 0 0 44 42" xml:space="preserve">
<title>Path Copy 3</title>
<desc>Created with Sketch.</desc>
<g id="Web">
	<g id="_x31_5_x5F_OrderHistory_x5F_OrderDetail_x5F_Review_x5F_D" transform="translate(-750.000000, -614.000000)">
		<g id="Group-32" transform="translate(400.000000, 280.000000)">
			<g id="Group-30-Copy" transform="translate(40.000000, 301.000000)">
				<g id="Group-34" transform="translate(156.000000, 34.000000)">
					<path id="Path-Copy-3" fill="#7A8680" stroke="#EFF5F2" d="M178.027,1.261l4.737,9.599c0.329,0.667,0.966,1.13,1.703,1.237
						l10.593,1.539c1.855,0.27,2.596,2.55,1.254,3.857l-7.665,7.472c-0.532,0.52-0.776,1.269-0.649,2.002l1.809,10.55
						c0.317,1.848-1.623,3.257-3.281,2.385l-9.475-4.98c-0.659-0.347-1.447-0.347-2.105,0l-9.474,4.98
						c-1.659,0.872-3.599-0.537-3.282-2.385L164,26.967c0.126-0.733-0.117-1.482-0.65-2.002l-7.665-7.472
						c-1.342-1.309-0.602-3.588,1.253-3.857l10.593-1.539c0.737-0.107,1.374-0.57,1.703-1.237l4.737-9.599
						C174.801-0.42,177.198-0.42,178.027,1.261z"/>
				</g>
			</g>
		</g>
	</g>
</g>
</svg>
