<?xml version="1.0" standalone="no"?>
<!DOCTYPE svg PUBLIC "-//W3C//DTD SVG 20010904//EN"
 "http://www.w3.org/TR/2001/REC-SVG-20010904/DTD/svg10.dtd">
<svg version="1.0" xmlns="http://www.w3.org/2000/svg"
 width="110.000000pt" height="100.000000pt" viewBox="0 0 110.000000 100.000000"
 preserveAspectRatio="xMidYMid meet">

<g transform="translate(0.000000,100.000000) scale(0.100000,-0.100000)"
fill="#000000" stroke="none">
<path d="M10 980 c-8 -14 -8 -26 0 -40 9 -17 23 -20 111 -22 l101 -3 100 -325
c55 -179 105 -331 110 -337 8 -10 79 -13 294 -13 244 0 285 2 298 16 9 8 16
21 16 28 0 33 -22 36 -287 36 l-263 0 -9 23 c-4 12 -11 34 -15 49 l-6 28 261
2 262 3 58 153 c33 85 59 162 59 171 0 10 -8 25 -18 34 -17 15 -58 17 -380 17
l-361 0 -26 88 c-15 48 -32 93 -37 100 -7 8 -47 12 -134 12 -113 0 -124 -2
-134 -20z"/>
<path d="M525 188 c-62 -34 -74 -110 -26 -159 47 -47 121 -36 155 23 48 80
-48 181 -129 136z"/>
<path d="M814 166 c-37 -37 -43 -70 -20 -115 23 -44 91 -65 137 -41 23 13 49
61 49 90 0 31 -29 76 -57 89 -42 19 -73 13 -109 -23z"/>
</g>
</svg>
