<?xml version="1.0" encoding="UTF-8"?>
<svg viewBox="0 0 31 28" version="1.1" xmlns="http://www.w3.org/2000/svg" xmlns:xlink="http://www.w3.org/1999/xlink">
    <!-- Generator: Sketch 53 (72520) - https://sketchapp.com -->
    <title>Group 2</title>
    <desc>Created with Sketch.</desc>
    <g id="Web" stroke="none" stroke-width="1" fill="none" fill-rule="evenodd">
        <g id="01_Main_D" transform="translate(-1134.000000, -33.000000)" fill="#000000" fill-rule="nonzero">
            <g id="Group-2" transform="translate(1134.000000, 33.000000)">
                <path d="M12.9166667,22.8148148 C11.4922161,22.8148148 10.3333333,23.9778513 10.3333333,25.4074074 C10.3333333,26.8369635 11.4922161,28 12.9166667,28 C14.3411172,28 15.5,26.8369635 15.5,25.4074074 C15.4999426,23.9778513 14.3410598,22.8148148 12.9166667,22.8148148 Z M12.9166667,26.5523074 C12.2875425,26.5523074 11.7757408,26.0386138 11.7757408,25.4072923 C11.7757408,24.7759131 12.2875998,24.2622771 12.9166667,24.2622771 C13.5457335,24.2622771 14.0575925,24.7759707 14.0575925,25.4072923 C14.0575925,26.038729 13.5457335,26.5523074 12.9166667,26.5523074 Z" id="Shape"></path>
                <path d="M22.2166667,22.8148148 C20.7922161,22.8148148 19.6333333,23.9778513 19.6333333,25.4074074 C19.6333333,26.8369635 20.7922161,28 22.2166667,28 C23.6411172,28 24.8,26.8369635 24.8,25.4074074 C24.7999426,23.9778513 23.6410598,22.8148148 22.2166667,22.8148148 Z M22.2166667,26.5523074 C21.5875425,26.5523074 21.0757408,26.0386138 21.0757408,25.4072923 C21.0757408,24.7759131 21.5875998,24.2622771 22.2166667,24.2622771 C22.8457909,24.2622771 23.3575925,24.7759707 23.3575925,25.4072923 C23.3575925,26.038729 22.8457335,26.5523074 22.2166667,26.5523074 Z" id="Shape"></path>
                <path d="M23.0073523,9.33333333 L12.125981,9.33333333 C11.7066095,9.33333333 11.3666667,9.56547256 11.3666667,9.85185185 C11.3666667,10.1382311 11.7066699,10.3703704 12.125981,10.3703704 L23.0073523,10.3703704 C23.4267239,10.3703704 23.7666667,10.1382311 23.7666667,9.85185185 C23.7666667,9.56543131 23.4267239,9.33333333 23.0073523,9.33333333 Z" id="Path"></path>
                <path d="M22.997172,12.4444444 L13.1695559,12.4444444 C12.7445279,12.4444444 12.4,12.6765837 12.4,12.962963 C12.4,13.2493423 12.7445279,13.4814815 13.1695559,13.4814815 L22.9971108,13.4814815 C23.4221387,13.4814815 23.7666667,13.2493423 23.7666667,12.962963 C23.7666667,12.6766249 23.4221387,12.4444444 22.997172,12.4444444 Z" id="Path"></path>
                <path d="M30.6574139,5.43148548 C30.367152,5.07885552 29.9370267,4.87665065 29.477415,4.87665065 L5.76881643,4.87665065 L5.29001141,2.57598589 C5.19004845,2.09606395 4.85934118,1.69309253 4.40517876,1.49789951 L1.0643815,0.0625685306 C0.678697639,-0.103258643 0.230468811,0.0719176593 0.0631776782,0.453553887 C-0.104295095,0.835309976 0.0726835443,1.27903401 0.458185767,1.44462146 L3.79904357,2.88001237 L7.48187036,20.5750963 C7.62694077,21.2719659 8.25396465,21.7777778 8.9728382,21.7777778 L27.2075111,21.7777778 C27.6278883,21.7777778 27.9686464,21.44049 27.9686464,21.0243938 C27.9686464,20.6082977 27.6278883,20.2710099 27.2075111,20.2710099 L8.97289874,20.2710099 L8.5249121,18.1185528 L27.3484643,18.1185528 C28.0672773,18.1185528 28.6943617,17.6127409 28.8393716,16.9158713 L30.9683829,6.68726524 C31.0610802,6.24186316 30.9477364,5.7840555 30.6574139,5.43148548 Z M27.3484643,16.6119047 L8.21133962,16.6119047 L6.08244946,6.38335863 L29.4773545,6.38335863 L27.3484643,16.6119047 Z" id="Shape"></path>
            </g>
        </g>
    </g>
</svg>