<?xml version="1.0" standalone="no"?>
<!DOCTYPE svg PUBLIC "-//W3C//DTD SVG 20010904//EN"
 "http://www.w3.org/TR/2001/REC-SVG-20010904/DTD/svg10.dtd">
<svg version="1.0" xmlns="http://www.w3.org/2000/svg"
 width="110.000000pt" height="100.000000pt" viewBox="0 0 110.000000 100.000000"
 preserveAspectRatio="xMidYMid meet">

<g transform="translate(0.000000,100.000000) scale(0.100000,-0.100000)"
fill="#000000" stroke="none">
<path d="M432 980 c-98 -26 -164 -63 -233 -133 -71 -71 -114 -155 -136 -265
-15 -76 -15 -88 1 -169 21 -108 63 -190 136 -263 90 -91 228 -149 355 -150 64
0 176 31 240 66 124 69 221 212 247 361 43 257 -151 522 -412 563 -88 13 -113
12 -198 -10z m253 -70 c250 -86 368 -358 257 -593 -16 -34 -42 -77 -57 -96
l-29 -33 -24 47 c-71 141 -231 207 -389 160 -62 -19 -140 -85 -174 -149 -13
-25 -27 -46 -31 -46 -4 0 -23 24 -43 53 -160 242 -55 562 215 654 86 29 195
31 275 3z"/>
<path d="M485 825 c-114 -40 -157 -184 -85 -283 35 -49 84 -72 150 -72 212 0
250 302 45 359 -50 14 -61 13 -110 -4z"/>
</g>
</svg>
