<svg xmlns="http://www.w3.org/2000/svg" width="48" height="30" viewBox="0 0 48 30">
    <g fill="none" fill-rule="evenodd">
        <path fill="#000" d="M7.947 7.573c0 .332-.098.603-.292.811a.978.978 0 0 1-.749.312c-.735 0-1.102-.326-1.102-.977 0-.167.045-.364.135-.593.09-.23.135-.392.135-.49 0-.263-.1-.487-.301-.676a1.043 1.043 0 0 0-.739-.28c-1.262 0-1.893 1.408-1.893 4.223 0 1.609.278 2.76.832 3.453.43.528.957.79 1.58.79.653 0 1.318-.423 1.998-1.268.084-.11.16-.167.23-.167.055 0 .082.042.082.125 0 .263-.25.63-.749 1.103-.72.68-1.588 1.018-2.6 1.018-1.248 0-2.313-.447-3.193-1.34C.44 12.721 0 11.636 0 10.36c0-1.386.464-2.554 1.393-3.505.93-.95 2.074-1.424 3.433-1.424.873 0 1.613.207 2.216.623.603.416.905.923.905 1.519M19.056 14.625c0 .084-.063.125-.187.125h-1.665c-1.193 0-1.928-.02-2.205-.062h-.333l-.5.062c-.18.014-.27-.039-.27-.157 0-.089.035-.134.104-.134h.479c.305.014.479-.07.52-.25.028-.11.042-.803.042-2.08v-3.1c0-1.289-.063-2.052-.187-2.289-.178-.36-.522-.54-1.031-.54-.537 0-.95.244-1.24.731-.136.237-.205.746-.205 1.526v5.707c-.014.21.271.315.856.315.123 0 .184.041.184.125 0 .097-.09.146-.27.146h-.167c-.111-.041-.278-.062-.5-.062h-.915l-1.164.02-1.228.042H8.55c-.208 0-.312-.041-.312-.125 0-.041.013-.07.041-.083a.544.544 0 0 1 .188-.021c.526 0 .839-.02.936-.062.097-.041.16-.201.187-.479.014-.166.02-.998.02-2.496V3.849c0-1.498-.03-2.36-.092-2.59-.064-.229-.358-.343-.885-.343-.402 0-.603-.042-.603-.125 0-.083.234-.139.704-.166a12.96 12.96 0 0 0 3.002-.54c.179-.057.31-.085.393-.085.11 0 .166.389.166 1.166v5.742c.402-.57.793-.958 1.176-1.166.38-.207.897-.311 1.55-.311 1.372 0 2.231.554 2.578 1.664.125.36.188.943.188 1.747v4.847c0 .361.058.582.176.666.119.083.413.124.885.124.138 0 .208.05.208.146"/>
        <path fill="#66C088" d="M29.187 10.277c0 1.484-.583 2.684-1.748 3.6-.915.721-1.921 1.08-3.016 1.08-1.304 0-2.43-.466-3.38-1.402-.95-.937-1.426-2.043-1.426-3.319 0-1.331.475-2.466 1.426-3.401.95-.936 2.097-1.405 3.442-1.405 1.29 0 2.396.475 3.319 1.425.921.951 1.383 2.091 1.383 3.422"/>
        <path fill="#000" d="M37.258 9.935c0-2.642-.593-3.964-1.778-3.964-.524 0-.965.25-1.323.747-.166.235-.248.63-.248 1.183v4.088c0 .885.11 1.488.331 1.805.317.47.744.706 1.282.706 1.158 0 1.736-1.521 1.736-4.565m3.059.083c0 1.412-.402 2.587-1.203 3.528-.803.942-1.804 1.411-3.007 1.411-.913 0-1.645-.359-2.198-1.08v4.663c0 .387-.375.792-.335.894.041.104-1.78.455-2.127.455 0 0-.326-.785-.326-1.228V7.136c.014-.291-.097-.471-.333-.54-.11-.042-.346-.063-.707-.063h-.395c-.111 0-.167-.042-.167-.125 0-.11.083-.152.25-.126 1.47-.04 2.76-.318 3.87-.83.055.082.09.193.104.331l.041.521.02.354c.376-.464.743-.78 1.103-.951.36-.17.825-.256 1.394-.256 1.152 0 2.109.432 2.871 1.297s1.145 1.955 1.145 3.27M7.947 26.597c0 .929-.284 1.681-.85 2.257-.568.575-1.3.864-2.199.864-.442 0-.967-.111-1.576-.333-.498-.18-.822-.271-.974-.271-.263 0-.436.1-.518.302-.084.2-.146.302-.187.302-.084 0-.124-.05-.124-.147 0-.084.01-.217.032-.398.034-.266.05-.726.05-1.382v-1.026c0-.154.035-.23.104-.23.084 0 .145.104.187.312a2.999 2.999 0 0 0 1.056 1.84c.58.493 1.229.74 1.947.74.456 0 .825-.143 1.108-.427.283-.285.425-.656.425-1.113 0-.361-.132-.666-.395-.915-.194-.18-.715-.41-1.56-.687-1.04-.346-1.793-.766-2.257-1.259-.466-.491-.697-1.12-.697-1.882 0-.819.277-1.512.831-2.08.555-.57 1.235-.854 2.04-.854.304 0 .831.097 1.58.291.111.028.195.042.25.042.305 0 .534-.187.686-.562.028-.069.063-.104.104-.104.097 0 .146.084.146.25l-.02.395a1.373 1.373 0 0 0-.022.29c0 .57.035 1.153.105 1.75v.103c0 .111-.042.167-.125.167-.07 0-.125-.063-.167-.188-.402-1.414-1.22-2.122-2.454-2.122-.458 0-.836.126-1.134.375a1.19 1.19 0 0 0-.448.956c0 .362.125.646.375.854.25.208.735.444 1.456.707 1.262.444 2.115.887 2.56 1.331.443.445.665 1.062.665 1.852M15.62 28.136c0 .153-.133.354-.399.603-.684.653-1.627.979-2.83.979-1.103 0-1.83-.271-2.178-.812a1.343 1.343 0 0 1-.242-.583c-.02-.18-.03-.645-.03-1.393v-.999c.027-.263.04-.54.04-.832l-.04-.436v-3.371c0-.25-.035-.395-.105-.436-.069-.043-.277-.063-.623-.063-.417 0-.625-.055-.625-.167 0-.083.076-.137.229-.165 1.304-.043 2.427-.75 3.37-2.123.124-.194.222-.291.292-.291.082 0 .124.097.124.29-.014 1.194.035 1.845.146 1.956.11.111.45.168 1.02.168.582 0 .99-.028 1.227-.085a.189.189 0 0 1 .083-.02c.055 0 .083.043.083.13 0 .204-.09.306-.268.306-.564.015-1.19.021-1.878.021h-.288v.435c0 3.699.028 5.864.083 6.499.127.8.521 1.2 1.183 1.2.296 0 .675-.208 1.14-.624.225-.194.366-.29.423-.29.042 0 .063.034.063.103"/>
        <path fill="#000" d="M21.028 29.344c0 .095-.061.145-.186.145h-5.244c-.166 0-.248-.045-.248-.133 0-.067.158-.106.478-.116.471-.015.749-.067.832-.157.083-.092.125-.367.125-.827v-6c0-.531-.046-.848-.135-.953-.09-.105-.365-.156-.822-.156-.291 0-.462-.007-.51-.022-.048-.013-.073-.062-.073-.145 0-.096.105-.146.312-.146 1.526-.014 2.83-.25 3.911-.707.028.166.062.624.104 1.373v6.553c0 .57.052.902.156.998.104.097.461.146 1.072.146.153 0 .228.049.228.147"/>
        <path fill="#EB6968" d="M19.572 17.887c0 .388-.135.721-.404.999-.27.277-.596.416-.978.416-.398 0-.732-.132-1.001-.395-.27-.263-.404-.597-.404-1 0-.387.134-.707.404-.956.269-.25.617-.375 1.043-.375.383 0 .702.126.957.375.256.25.383.562.383.936"/>
        <path fill="#000" d="M29.495 22.353c0 .332-.097.604-.291.811a.979.979 0 0 1-.75.312c-.734 0-1.101-.325-1.101-.977 0-.167.044-.364.135-.593.09-.23.135-.391.135-.49 0-.263-.1-.487-.302-.676a1.045 1.045 0 0 0-.738-.28c-1.263 0-1.893 1.408-1.893 4.223 0 1.609.277 2.76.832 3.453.43.528.957.791 1.58.791.652 0 1.318-.423 1.998-1.269.083-.11.16-.167.229-.167.055 0 .083.042.083.125 0 .264-.25.63-.749 1.103-.722.68-1.588 1.018-2.6 1.018-1.248 0-2.313-.447-3.194-1.34-.88-.895-1.32-1.98-1.32-3.257 0-1.386.464-2.554 1.393-3.505.93-.95 2.073-1.424 3.433-1.424.873 0 1.612.207 2.215.623.603.416.905.923.905 1.519M41.062 29.344c0 .097-.257.145-.77.145H35.84c-.194 0-.291-.05-.291-.145 0-.098.187-.154.561-.168.236-.013.354-.089.354-.228s-.291-.68-.874-1.623a33.59 33.59 0 0 1-.728-1.165c-.217-.388-.529-.895-.936-1.519v3.065c0 .732.024 1.16.072 1.284.047.125.2.186.459.186h.368c.135 0 .203.052.203.156 0 .105-.076.157-.228.157H29.952c-.152 0-.228-.05-.228-.145 0-.098.18-.153.54-.168.458-.013.718-.055.781-.123.062-.07.094-.415.094-1.04V15.987c0-.54 2.787-.254 2.787-.254v8.617c.221-.182.578-.553 1.074-1.116l.93-1.073c.662-.757.992-1.164.992-1.22 0-.07-.042-.112-.125-.127-.083-.013-.36-.027-.832-.042-.32 0-.478-.056-.478-.165 0-.097.083-.147.249-.147H38.94c.25 0 .375.041.375.124 0 .084-.286.14-.854.167-.375.014-.68.14-.916.374-.43.417-.979 1-1.645 1.75l2.387 3.622c.126.208.328.52.608.934.041.056.145.208.31.459l.342.506.177.244c.153.234.278.383.376.445.097.062.282.092.554.092.272 0 .408.056.408.167M47.927 26.597c0 .929-.283 1.681-.85 2.257-.568.575-1.3.864-2.198.864-.443 0-.968-.111-1.576-.333-.498-.18-.823-.271-.974-.271-.263 0-.436.1-.519.302-.083.2-.145.302-.187.302-.083 0-.124-.05-.124-.147 0-.084.01-.217.033-.398.033-.266.05-.726.05-1.382v-1.026c0-.154.035-.23.104-.23.083 0 .144.104.186.312a2.999 2.999 0 0 0 1.057 1.84c.58.493 1.228.74 1.946.74.457 0 .826-.143 1.108-.427.284-.285.426-.656.426-1.113 0-.361-.133-.666-.396-.915-.194-.18-.714-.41-1.56-.687-1.04-.346-1.793-.766-2.257-1.259-.466-.491-.697-1.12-.697-1.882 0-.819.277-1.512.832-2.08.555-.57 1.235-.854 2.039-.854.304 0 .832.097 1.58.291.111.028.195.042.25.042.306 0 .534-.187.687-.562.028-.069.062-.104.104-.104.097 0 .145.084.145.25l-.02.395a1.373 1.373 0 0 0-.021.29c0 .57.034 1.153.104 1.75v.103c0 .111-.042.167-.125.167-.07 0-.125-.063-.166-.188-.402-1.414-1.22-2.122-2.455-2.122-.458 0-.836.126-1.134.375a1.19 1.19 0 0 0-.447.956c0 .362.125.646.374.854.25.208.735.444 1.456.707 1.262.444 2.116.887 2.56 1.331.443.445.665 1.062.665 1.852"/>
    </g>
</svg>
