<?xml version="1.0" encoding="UTF-8"?>
<svg width="20px" height="20px" viewBox="0 0 20 20" version="1.1" xmlns="http://www.w3.org/2000/svg" xmlns:xlink="http://www.w3.org/1999/xlink">
    <!-- Generator: Sketch 53 (72520) - https://sketchapp.com -->
    <title>Shape</title>
    <desc>Created with Sketch.</desc>
    <g id="Web" stroke="none" stroke-width="1" fill="none" fill-rule="evenodd">
        <g id="01_Main_D" transform="translate(-335.000000, -48.000000)" fill="#82817E" fill-rule="nonzero">
            <g id="Group-5" transform="translate(122.000000, 28.000000)">
                <path d="M232.755102,38.5795918 L227.946939,33.7714286 C229.138776,32.3183673 229.857143,30.4571429 229.857143,28.4285714 C229.857143,23.7755102 226.081633,20 221.428571,20 C216.771429,20 213,23.7755102 213,28.4285714 C213,33.0816327 216.771429,36.8571429 221.428571,36.8571429 C223.457143,36.8571429 225.314286,36.1428571 226.767347,34.9510204 L231.57551,39.755102 C231.902041,40.0816327 232.428571,40.0816327 232.755102,39.755102 C233.081633,39.4326531 233.081633,38.9020408 232.755102,38.5795918 Z M221.428571,35.1795918 C217.702041,35.1795918 214.673469,32.1510204 214.673469,28.4285714 C214.673469,24.7061224 217.702041,21.6734694 221.428571,21.6734694 C225.15102,21.6734694 228.183673,24.7061224 228.183673,28.4285714 C228.183673,32.1510204 225.15102,35.1795918 221.428571,35.1795918 Z" id="Shape"></path>
            </g>
        </g>
    </g>
</svg>