<?xml version="1.0" standalone="no"?>
<!DOCTYPE svg PUBLIC "-//W3C//DTD SVG 20010904//EN"
 "http://www.w3.org/TR/2001/REC-SVG-20010904/DTD/svg10.dtd">
<svg version="1.0" xmlns="http://www.w3.org/2000/svg"
 width="300.000000pt" height="100.000000pt" viewBox="0 0 300.000000 100.000000"
 preserveAspectRatio="xMidYMid meet">

<g transform="translate(0.000000,100.000000) scale(0.100000,-0.100000)"
fill="#000000" stroke="none">
<path d="M0 500 l0 -500 1500 0 1500 0 0 500 0 500 -1500 0 -1500 0 0 -500z
m2160 129 l0 -80 26 20 c28 22 60 27 82 13 19 -12 32 -69 32 -139 0 -49 4 -64
18 -72 13 -8 1 -10 -48 -10 -49 0 -59 3 -42 9 20 9 22 16 22 88 0 95 -14 116
-58 91 -25 -13 -27 -21 -30 -84 -3 -62 0 -72 19 -87 21 -18 20 -18 -42 -17
-49 0 -59 2 -41 9 21 9 22 13 22 150 0 137 -1 141 -22 149 -22 9 -22 10 12 25
19 8 38 15 43 16 4 0 7 -36 7 -81z m-1770 49 c61 -42 75 -71 75 -153 0 -59 -4
-79 -21 -102 -74 -100 -201 -98 -271 6 -32 48 -32 144 0 192 53 78 148 103
217 57z m200 -108 l0 -21 22 21 c33 30 71 26 103 -12 24 -29 27 -38 23 -90 -3
-47 -10 -64 -33 -88 -31 -32 -80 -41 -103 -18 -9 9 -12 0 -12 -40 0 -45 3 -54
23 -62 16 -6 6 -9 -43 -9 -49 0 -61 2 -47 10 15 9 17 27 17 149 0 124 -2 139
-17 142 -14 3 -12 7 12 21 40 22 55 21 55 -3z m378 -2 c11 -13 24 -35 27 -50
l7 -28 -76 0 c-75 0 -76 0 -76 -25 0 -33 42 -75 75 -75 15 0 36 11 52 28 l26
27 -8 -25 c-16 -56 -85 -87 -136 -60 -43 23 -64 121 -38 173 30 58 107 76 147
35z m152 1 l0 -20 26 20 c27 21 60 27 81 13 21 -13 33 -62 33 -132 0 -55 4
-71 18 -79 13 -8 1 -10 -48 -10 -49 0 -59 3 -42 9 20 9 22 16 22 88 0 95 -14
116 -58 91 -24 -13 -27 -22 -30 -74 -4 -73 3 -102 26 -108 9 -3 -12 -5 -48 -5
-48 -1 -59 2 -42 8 20 9 22 16 22 90 0 74 -2 81 -22 89 -22 9 -22 10 12 25 46
20 50 20 50 -5z m498 13 c19 -13 32 -70 32 -141 0 -55 2 -62 15 -51 20 17 19
1 -2 -22 -20 -23 -49 -23 -62 -1 -9 17 -10 17 -28 0 -23 -20 -64 -22 -81 -5
-7 7 -12 27 -12 45 0 37 23 62 80 88 42 19 51 43 25 65 -21 18 -48 8 -55 -20
-7 -29 -35 -38 -44 -15 -10 27 37 65 81 65 21 0 44 -4 51 -8z m402 -37 l-1
-40 -15 27 c-16 30 -59 47 -76 30 -19 -19 -3 -47 41 -70 75 -39 89 -75 46
-118 -21 -21 -33 -24 -80 -22 l-55 2 0 38 c0 43 10 49 25 16 14 -32 61 -47 82
-26 21 22 11 45 -29 66 -41 22 -78 57 -78 75 0 8 9 26 21 41 19 24 27 27 70
24 l49 -3 0 -40z m527 10 c34 -34 35 -38 31 -92 -4 -48 -10 -61 -37 -85 -75
-67 -171 -14 -171 95 0 42 5 54 34 83 48 48 95 47 143 -1z m163 15 l0 -21 22
21 c33 30 71 26 103 -12 24 -29 27 -38 23 -90 -3 -47 -10 -64 -33 -88 -31 -32
-80 -41 -103 -18 -9 9 -12 0 -12 -40 0 -45 3 -54 23 -62 16 -6 6 -9 -43 -9
-49 0 -61 2 -47 10 15 9 17 27 17 149 0 124 -2 139 -17 142 -14 3 -12 7 12 21
40 22 55 21 55 -3z"/>
<path d="M248 651 c-31 -28 -33 -34 -36 -109 -4 -88 10 -130 53 -158 33 -21
84 -12 116 22 21 22 24 37 27 107 3 69 0 87 -18 115 -36 58 -93 67 -142 23z"/>
<path d="M607 542 c-23 -25 -24 -134 -1 -156 40 -40 89 0 89 73 0 81 -49 127
-88 83z"/>
<path d="M866 554 c-30 -29 -20 -44 29 -44 38 0 45 3 45 20 0 18 -26 40 -49
40 -5 0 -17 -7 -25 -16z"/>
<path d="M1559 467 c-38 -25 -48 -57 -24 -77 12 -10 21 -10 40 -2 21 10 25 18
25 57 0 25 -2 45 -4 45 -1 0 -18 -10 -37 -23z"/>
<path d="M2436 554 c-36 -35 -32 -115 8 -161 21 -24 28 -26 52 -18 33 12 47
52 38 107 -11 71 -62 109 -98 72z"/>
<path d="M2727 542 c-23 -25 -24 -134 -1 -156 40 -40 89 0 89 73 0 81 -49 127
-88 83z"/>
</g>
</svg>
