<?xml version="1.0" standalone="no"?>
<!DOCTYPE svg PUBLIC "-//W3C//DTD SVG 20010904//EN"
 "http://www.w3.org/TR/2001/REC-SVG-20010904/DTD/svg10.dtd">
<svg version="1.0" xmlns="http://www.w3.org/2000/svg"
 width="300.000000pt" height="100.000000pt" viewBox="0 0 300.000000 100.000000"
 preserveAspectRatio="xMidYMid meet">

<g transform="translate(0.000000,100.000000) scale(0.100000,-0.100000)"
fill="#000000" stroke="none">
<path d="M0 500 l0 -500 1500 0 1500 0 0 500 0 500 -1500 0 -1500 0 0 -500z
m251 199 c15 -7 24 -7 35 2 12 10 14 3 14 -41 0 -54 -4 -58 -24 -18 -18 36
-59 54 -90 40 -50 -22 -26 -77 49 -115 50 -25 79 -63 79 -104 0 -66 -73 -102
-150 -73 -21 8 -29 8 -36 -2 -4 -8 -7 10 -7 42 l0 55 16 -32 c30 -60 114 -69
134 -15 10 26 -15 55 -101 116 -38 27 -46 38 -48 69 -6 66 67 110 129 76z
m179 -60 l0 -70 22 15 c31 22 65 20 78 -3 5 -11 10 -51 10 -90 0 -50 4 -74 16
-85 14 -15 11 -16 -38 -16 -41 1 -49 3 -35 11 14 8 17 24 17 85 0 81 -10 95
-49 74 -18 -9 -21 -20 -21 -80 0 -55 4 -71 18 -79 13 -8 3 -10 -43 -10 -46 0
-56 2 -42 10 15 9 17 27 17 144 0 119 -2 134 -17 138 -15 3 -14 6 7 15 55 24
60 18 60 -59z m904 -53 c28 -63 53 -113 56 -111 4 2 29 54 56 115 l49 110 45
-1 c37 0 41 -2 23 -9 -22 -9 -23 -14 -23 -145 0 -131 1 -136 23 -145 16 -6 4
-9 -48 -9 -52 0 -64 3 -47 9 21 9 22 14 21 117 l0 108 -20 -40 c-10 -22 -35
-76 -55 -120 l-36 -80 -24 50 c-13 28 -39 84 -58 125 l-34 75 -1 -113 c-1
-108 0 -113 22 -122 17 -7 10 -9 -33 -9 -43 0 -50 2 -32 9 21 9 22 14 22 139
0 123 -1 131 -22 145 -22 16 -21 16 22 16 l45 0 49 -114z m-569 -10 c46 -46
45 -123 -2 -170 -70 -70 -181 11 -153 114 20 75 105 106 155 56z m135 4 l0
-20 20 20 c49 49 120 2 120 -80 0 -42 -24 -96 -48 -109 -27 -14 -65 -14 -80 1
-9 9 -12 1 -12 -35 0 -40 4 -49 23 -57 17 -7 8 -9 -38 -9 -45 0 -56 2 -42 10
15 9 17 27 17 139 0 114 -2 129 -17 133 -15 3 -14 6 7 15 37 16 50 14 50 -8z
m864 -2 c11 -15 16 -46 16 -96 0 -65 2 -73 15 -62 20 17 19 1 -2 -22 -20 -23
-39 -23 -52 -1 -9 17 -10 17 -29 -1 -28 -24 -64 -17 -80 17 -12 24 -11 31 2
52 9 14 35 34 57 45 31 16 40 26 37 43 -4 32 -52 31 -56 0 -4 -27 -30 -31 -39
-6 -18 46 101 74 131 31z m136 6 c0 -14 2 -14 22 0 27 19 59 21 76 4 7 -7 12
-43 12 -89 0 -57 4 -82 16 -93 14 -15 11 -16 -38 -16 -41 1 -49 3 -35 11 14 8
17 24 17 85 0 81 -10 95 -49 74 -18 -9 -21 -20 -21 -85 0 -62 3 -74 18 -78 9
-3 -10 -5 -43 -5 -33 0 -52 2 -42 5 14 4 17 17 17 88 0 71 -3 84 -17 88 -15 3
-14 6 7 15 36 16 60 14 60 -4z m314 -6 c11 -15 16 -46 16 -96 0 -65 2 -73 15
-62 20 17 19 1 -2 -22 -20 -23 -39 -23 -52 -1 -9 17 -10 17 -29 -1 -28 -24
-64 -17 -80 17 -12 24 -11 31 2 52 9 14 35 34 57 45 31 16 40 26 37 43 -4 32
-52 31 -56 0 -4 -27 -30 -31 -39 -6 -18 46 101 74 131 31z m241 4 c22 -5 31
-10 19 -11 -17 -1 -20 -6 -16 -32 6 -43 -29 -79 -79 -79 -22 0 -39 -5 -42 -14
-9 -22 2 -26 63 -26 62 0 80 -11 80 -51 0 -63 -100 -100 -170 -64 -36 18 -36
24 -9 59 17 21 19 29 9 41 -10 12 -9 20 4 40 15 23 15 27 1 41 -24 25 -19 70
12 94 29 22 40 22 128 2z m213 1 c11 -10 23 -28 27 -40 6 -22 4 -23 -64 -23
-78 0 -84 -6 -56 -59 25 -49 64 -54 102 -13 l26 27 -8 -25 c-21 -69 -90 -92
-138 -45 -43 44 -41 123 5 172 26 28 77 31 106 6z m132 7 c0 -6 7 -6 19 1 22
15 51 5 51 -16 0 -12 -8 -15 -32 -13 l-33 3 -3 -75 c-2 -62 0 -77 14 -87 15
-11 9 -13 -42 -13 -45 1 -55 3 -41 11 14 8 17 24 17 89 0 67 -3 79 -17 83 -15
3 -14 6 7 15 32 14 60 15 60 2z"/>
<path d="M666 564 c-24 -23 -21 -105 5 -138 53 -67 111 9 78 103 -17 48 -55
64 -83 35z"/>
<path d="M917 552 c-34 -38 -16 -152 24 -152 57 0 80 108 33 154 -20 21 -37
20 -57 -2z"/>
<path d="M1692 494 c-26 -18 -31 -71 -7 -80 25 -10 45 16 45 57 0 43 -5 46
-38 23z"/>
<path d="M2142 494 c-26 -18 -31 -71 -7 -80 25 -10 45 16 45 57 0 43 -5 46
-38 23z"/>
<path d="M2352 578 c-17 -17 -15 -74 4 -92 45 -46 88 25 48 82 -17 25 -34 28
-52 10z"/>
<path d="M2324 375 c-10 -26 4 -44 40 -50 44 -9 90 6 94 30 5 25 -15 35 -76
35 -38 0 -54 -4 -58 -15z"/>
<path d="M2577 562 c-25 -28 -21 -32 28 -32 48 0 55 9 29 34 -20 21 -37 20
-57 -2z"/>
</g>
</svg>
