<?xml version="1.0" encoding="UTF-8"?>
<svg width="23px" height="28px" viewBox="0 0 23 28" version="1.1" xmlns="http://www.w3.org/2000/svg" xmlns:xlink="http://www.w3.org/1999/xlink">
    <!-- Generator: Sketch 53 (72520) - https://sketchapp.com -->
    <title>shopping-bag</title>
    <desc>Created with Sketch.</desc>
    <g id="Web" stroke="none" stroke-width="1" fill="none" fill-rule="evenodd">
        <g id="01_Main_D" transform="translate(-1291.000000, -33.000000)" fill="#DE6362" fill-rule="nonzero">
            <g id="shopping-bag" transform="translate(1291.000000, 33.000000)">
                <path d="M22.4515337,24.203681 L20.8482618,6.14969325 C20.8139059,5.74887526 20.4760736,5.44539877 20.0809816,5.44539877 L16.7828221,5.44539877 C16.7370143,2.43353783 14.2748466,0 11.2515337,0 C8.22822086,0 5.76605317,2.43353783 5.7202454,5.44539877 L2.42208589,5.44539877 C2.02126789,5.44539877 1.68916155,5.74887526 1.65480573,6.14969325 L0.0515337423,24.203681 C0.0515337423,24.2265849 0.045807771,24.2494888 0.045807771,24.2723926 C0.045807771,26.3280164 1.92965235,28 4.24867076,28 L18.2543967,28 C20.5734151,28 22.4572597,26.3280164 22.4572597,24.2723926 C22.4572597,24.2494888 22.4572597,24.2265849 22.4515337,24.203681 Z M11.2515337,1.54601227 C13.4216769,1.54601227 15.191002,3.28670757 15.2368098,5.44539877 L7.26625767,5.44539877 C7.31206544,3.28670757 9.08139059,1.54601227 11.2515337,1.54601227 Z M18.2543967,26.4539877 L4.24867076,26.4539877 C2.79427403,26.4539877 1.61472393,25.4920245 1.59182004,24.3067485 L3.12638037,6.99713701 L5.71451943,6.99713701 L5.71451943,9.34478528 C5.71451943,9.77423313 6.05807771,10.1177914 6.48752556,10.1177914 C6.91697342,10.1177914 7.2605317,9.77423313 7.2605317,9.34478528 L7.2605317,6.99713701 L15.2368098,6.99713701 L15.2368098,9.34478528 C15.2368098,9.77423313 15.5803681,10.1177914 16.009816,10.1177914 C16.4392638,10.1177914 16.7828221,9.77423313 16.7828221,9.34478528 L16.7828221,6.99713701 L19.3709611,6.99713701 L20.9112474,24.3067485 C20.8883436,25.4920245 19.7030675,26.4539877 18.2543967,26.4539877 Z" id="-"></path>
            </g>
        </g>
    </g>
</svg>